<?xml version="1.0" encoding="UTF-8" standalone="no" ?>
<!DOCTYPE svg PUBLIC "-//W3C//DTD SVG 1.1//EN" "http://www.w3.org/Graphics/SVG/1.1/DTD/svg11.dtd">
<svg xmlns="http://www.w3.org/2000/svg" xmlns:xlink="http://www.w3.org/1999/xlink" version="1.1" width="7.5974mm" height="5.2991mm" viewBox="108.41067574170282 192.86218162876025 21.536056361790735 15.021182771086128" xml:space="preserve">
<desc>Created with Fabric.js 5.3.0</desc>
<defs>
</defs>
<g transform="matrix(0.0435453659 0 0 0.0435453659 119.1787039226 200.3727730143)" id="pgc3ZOcWj-ZO1zQEbGwZb"  >
<path style="stroke: none; stroke-width: 1; stroke-dasharray: none; stroke-linecap: butt; stroke-dashoffset: 0; stroke-linejoin: miter; stroke-miterlimit: 4; fill: rgb(255,255,255); fill-rule: nonzero; opacity: 1;"  transform=" translate(-255.9992905211, -256.0048806398)" d="M 264.4 95.01 C 228.79999999999998 94.95 184.2 106.2 140.2 129.10000000000002 C 96.27 152 61.45 182 41.01 211.3 C 20.56 240.5 15.029999999999998 267.7 25.089999999999996 287.1 C 35.16 306.40000000000003 60.62 317.5 96.31 317.5 C 132 317.6 176.60000000000002 306.3 220.5 283.5 C 264.5 260.6 299.3 230.5 319.7 201.3 C 340.2 172.10000000000002 345.59999999999997 144.9 335.59999999999997 125.50000000000001 C 325.49999999999994 106.20000000000002 300.09999999999997 95.01000000000002 264.4 95.01000000000002 z M 356.29999999999995 165.3 C 352.79999999999995 180.60000000000002 345.19999999999993 196.3 334.49999999999994 211.60000000000002 C 311.8999999999999 243.90000000000003 274.99999999999994 275.40000000000003 228.79999999999995 299.40000000000003 C 182.59999999999997 323.50000000000006 135.69999999999996 335.6 96.29999999999995 335.6 C 77.69999999999996 335.6 60.45999999999995 332.8 45.92999999999996 326.90000000000003 L 56.51999999999995 347.3 C 66.59999999999995 366.7 91.98999999999995 377.8 127.69999999999996 377.8 C 163.39999999999998 377.8 207.99999999999994 366.6 251.89999999999998 343.7 C 295.9 320.9 330.7 290.8 351.09999999999997 261.5 C 371.49999999999994 232.3 377.09999999999997 205.1 366.99999999999994 185.8 z M 385.09999999999997 182.10000000000002 C 396.29999999999995 208.8 387.29999999999995 241.3 365.9 271.8 C 347 298.90000000000003 318.09999999999997 325.2 282.29999999999995 347.20000000000005 C 293.4 348.40000000000003 304.99999999999994 349.00000000000006 316.79999999999995 349.00000000000006 C 366.29999999999995 349.00000000000006 411.09999999999997 338.40000000000003 442.69999999999993 321.90000000000003 C 474.3999999999999 305.40000000000003 491.79999999999995 283.8 491.79999999999995 262.00000000000006 C 491.79999999999995 240.20000000000005 474.4 218.60000000000005 442.69999999999993 202.10000000000005 C 426.5999999999999 193.70000000000005 406.99999999999994 186.80000000000004 385.0999999999999 182.10000000000005 z M 491.79999999999995 306.90000000000003 C 481.59999999999997 318.8 467.59999999999997 329.3 451.09999999999997 337.90000000000003 C 416.09999999999997 356.1 368.9 367.00000000000006 316.79999999999995 367.00000000000006 C 295.59999999999997 367.00000000000006 275.19999999999993 365.20000000000005 256.09999999999997 361.80000000000007 C 232.89999999999998 373.50000000000006 209.59999999999997 382.20000000000005 187.19999999999996 387.9000000000001 C 188.39999999999995 388.6000000000001 189.59999999999997 389.2000000000001 190.89999999999995 389.9000000000001 C 222.49999999999994 406.4000000000001 267.29999999999995 417.0000000000001 316.79999999999995 417.0000000000001 C 366.29999999999995 417.0000000000001 411.09999999999997 406.4000000000001 442.69999999999993 389.9000000000001 C 474.3999999999999 373.4000000000001 491.79999999999995 351.80000000000007 491.79999999999995 330.0000000000001 z" stroke-linecap="round" />
</g>
</svg>