<?xml version="1.0" encoding="UTF-8" standalone="no" ?>
<!DOCTYPE svg PUBLIC "-//W3C//DTD SVG 1.1//EN" "http://www.w3.org/Graphics/SVG/1.1/DTD/svg11.dtd">
<svg xmlns="http://www.w3.org/2000/svg" xmlns:xlink="http://www.w3.org/1999/xlink" version="1.1" width="11.1341mm" height="12.9345mm" viewBox="34.158325373127546 159.99237707903512 31.56121189114141 36.66468695932632" xml:space="preserve">
<desc>Created with Fabric.js 5.3.0</desc>
<defs>
</defs>
<g transform="matrix(0.9702957263 -0.2419218956 0.2419218956 0.9702957263 49.9389313187 178.3247205587)" id="ebEeZJf114HpCZrDtz5Xr"  >
<path style="stroke: rgb(68,192,185); stroke-width: 0; stroke-dasharray: none; stroke-linecap: butt; stroke-dashoffset: 0; stroke-linejoin: miter; stroke-miterlimit: 4; fill: rgb(255,255,255); fill-rule: nonzero; opacity: 1;"  transform=" translate(-12.318805, -15.82214)" d="M 24.63761 29.78114 C 24.63761 30.81012 23.803459999999998 31.644280000000002 22.774469999999997 31.644280000000002 L 2.0019199999999984 31.644280000000002 C 0.8962899999999985 31.644280000000002 -1.7763568394002505e-15 30.74799 -1.7763568394002505e-15 29.642360000000004 L -1.7763568394002505e-15 1.9648700000000048 C -1.7763568394002505e-15 0.8797000000000048 0.8796999999999983 4.884981308350689e-15 1.9648699999999981 4.884981308350689e-15 L 22.847039999999996 4.884981308350689e-15 C 23.835939999999997 4.884981308350689e-15 24.637609999999995 0.8016600000000049 24.637609999999995 1.7905700000000049 z M 19.69005 12.87083 L 14.62477 12.87083 L 14.62477 7.80555 L 10.01997 7.80555 L 10.01997 12.87083 L 4.954690000000001 12.87083 L 4.954690000000001 17.47563 L 10.01997 17.47563 L 10.01997 22.540909999999997 L 14.624770000000002 22.540909999999997 L 14.624770000000002 17.475629999999995 L 19.69005 17.475629999999995 z" stroke-linecap="round" />
</g>
</svg>