<?xml version="1.0" encoding="UTF-8" standalone="no" ?>
<!DOCTYPE svg PUBLIC "-//W3C//DTD SVG 1.1//EN" "http://www.w3.org/Graphics/SVG/1.1/DTD/svg11.dtd">
<svg xmlns="http://www.w3.org/2000/svg" xmlns:xlink="http://www.w3.org/1999/xlink" version="1.1" width="7.2942mm" height="7.933mm" viewBox="15.772133795348859 199.1280339806865 20.676500796261447 22.487255219673685" xml:space="preserve">
<desc>Created with Fabric.js 5.3.0</desc>
<defs>
</defs>
<g transform="matrix(0.0463724524 0 0 0.0463724524 26.1103841935 210.3716615905)" id="OuuheuGLSGrfzuQ83DggX"  >
<path style="stroke: none; stroke-width: 1; stroke-dasharray: none; stroke-linecap: butt; stroke-dashoffset: 0; stroke-linejoin: miter; stroke-miterlimit: 4; fill: rgb(255,255,255); fill-rule: nonzero; opacity: 1;"  transform=" translate(-276.4327838868, -255.999247419)" d="M 150.79 479.797 L 65.52 294.717 C 62.38999999999999 287.92699999999996 65.36999999999999 279.85499999999996 72.154 276.724 L 201.317 217.214 C 208.1 214.094 216.179 217.064 219.304 223.85999999999999 L 304.587 408.927 C 307.717 415.72900000000004 304.73699999999997 423.79 297.941 426.927 L 168.79 486.43 C 161.995 489.574 153.922 486.58 150.79 479.797 z M 176.95999999999998 410.487 L 192.278 365.96500000000003 L 236.79999999999998 381.285 L 244.45999999999998 359.03200000000004 L 199.93699999999998 343.71400000000006 L 215.26199999999997 299.19200000000006 L 193.00999999999996 291.53200000000004 L 177.68499999999997 336.04800000000006 L 133.16999999999996 320.72400000000005 L 125.50999999999996 342.982 L 170.02599999999995 358.30600000000004 L 154.70199999999994 402.82800000000003 z M 283.03 199.437 C 330.92999999999995 113.81200000000001 229.91999999999996 94.13300000000001 180.44399999999996 136.844 L 141.54399999999995 188.197 C 105.95 210 97.853 175.98 109.226 158.424 L 163.332 84.909 L 260.49 32.763000000000005 C 267.598 27.563000000000006 278.32800000000003 24.630000000000006 293.257 24.318000000000005 L 487.72400000000005 25.781000000000006 L 488.59000000000003 137.825 L 381.28600000000006 130.1 C 383.10400000000004 173.494 338.5520000000001 183.18 314.60300000000007 237.005 L 300.7900000000001 283.385 C 270.5730000000001 273.22499999999997 259.50000000000006 249.018 283.0300000000001 199.435 z M 153.20199999999997 196.36 L 192.24799999999996 145.03000000000003 C 204.68199999999996 134.55300000000003 221.75799999999995 127.35500000000003 239.16799999999995 127.65500000000003 C 223.90399999999994 143.66300000000004 219.00999999999993 153.21200000000002 215.69299999999996 166.70100000000002 C 207.69299999999996 186.47600000000003 197.95299999999995 196.39100000000002 185.32699999999994 189.997 C 174.61499999999995 200.31900000000002 163.91499999999994 204.86700000000002 153.20199999999994 196.36100000000002 z" stroke-linecap="round" />
</g>
</svg>