<?xml version="1.0" encoding="UTF-8" standalone="no" ?>
<!DOCTYPE svg PUBLIC "-//W3C//DTD SVG 1.1//EN" "http://www.w3.org/Graphics/SVG/1.1/DTD/svg11.dtd">
<svg xmlns="http://www.w3.org/2000/svg" xmlns:xlink="http://www.w3.org/1999/xlink" version="1.1" width="342.83962649238174" height="335.10557787922204" viewBox="33.30638048301904 27.550060745096488 342.83962649238174 335.10557787922204" xml:space="preserve">
<desc>Created with Fabric.js 5.3.0</desc>
<defs>
</defs>
<g transform="matrix(0.7201004807 0 0 0.7201004807 204.7261937292 195.1028496847)" id="Oareik4jesrNVK00l2v9E"  >
<path style="stroke: none; stroke-width: 1; stroke-dasharray: none; stroke-linecap: butt; stroke-dashoffset: 0; stroke-linejoin: miter; stroke-miterlimit: 4; fill: rgb(255,255,255); fill-rule: nonzero; opacity: 1;" vector-effect="non-scaling-stroke"  transform=" translate(-0.000005, -0.0000026575)" d="M -111.75056 -231.98503 C -124.28555999999999 -232.02103 -132.6315 -229.31903 -145.64849999999998 -222.75503 L -145.64849999999998 -222.75503 C -193.86849999999998 -198.42103 -235.3365 -129.15934 -237.32049999999998 -73.98334 L -195.76049999999998 -60.685649999999995 C -191.43049999999997 -122.57565 -148.3335 -191.24502999999999 -93.86349999999997 -218.73503 L -93.86149999999998 -218.73503 C -89.43849999999998 -220.96502999999998 -85.56058999999998 -221.11703 -81.19758999999998 -222.75503 z M -55.72912 -207.52733 C -103.95912 -183.18733 -162.704 -105.38934 -164.627 -50.46634 L -31.26660000000001 -6.448350000000005 C -27.40160000000001 -68.66835 10.918929999999989 -135.82035000000002 65.73492999999999 -163.48335 L 81.45430999999999 -169.16105 L -43.73322 -210.13277 C -46.385220000000004 -210.67477 -55.729110000000006 -207.52733999999998 -55.729110000000006 -207.52733999999998 z M 125.9465 -153.66603 C 115.4705 -153.75603 103.1165 -150.57403 89.5265 -143.72603 L 89.5215 -143.72403 C 40.944500000000005 -119.20603 -0.7034999999999911 -52.25103 -2.0644999999999953 2.8989699999999914 L 38.902240000000006 15.729189999999992 C 42.81624000000001 -46.458810000000014 80.42912000000001 -114.26203000000001 144.22862 -138.30103000000003 C 147.2597 -139.44311000000002 153.65199 -141.66518000000002 153.65199 -141.66518000000002 L 161.44734000000003 -143.72603 L 132.73350000000002 -153.09503 C 130.56950000000003 -153.44503 128.31050000000002 -153.64503000000002 125.94850000000002 -153.66503 z M 189.5005 -131.65203 C 179.2335 -131.55903 167.91888999999998 -125.7371 154.67989 -119.0561 C 107.52189 -95.2561 69.31993 -34.54342 65.73493 19.61958 L 237.35550999999998 -53.594030000000004 C 236.95150999999998 -92.60403 226.60151 -114.89803 212.94051 -124.67603 C 210.59350999999998 -126.35603 208.07351 -127.73303 205.39050999999998 -128.81303 L 205.38051 -128.77903 L 200.64550999999997 -130.36303 C 197.16550999999998 -131.25003 196.52482999999998 -131.68903 192.57582999999997 -131.65203 z M -237.3205 -57.39903 L -237.3555 131.4376 L -195.7605 144.55897000000002 L -195.7605 -32.280719999999974 L -237.3555 -45.87154999999997 z M -69.76979 8.42524 L -137.25341 -13.3864 L -166.82278 -22.94363 L -166.82278 154.17746 L -35.1353 196.82312 L -35.1353 19.61956999999998 z M 237.1475 -24.50747 L 67.82397 53.406760000000006 L 68.15351 231.98539 L 237.14749999999998 155.98097 L 237.14749999999998 -16.310299999999984 z M -4.80675 30.28984 L -4.80675 207.42321 L 38.90224 222.16756 L 38.90224 43.958680000000015 z" stroke-linecap="round" />
</g>
</svg>