<?xml version="1.0" encoding="UTF-8" standalone="no" ?>
<!DOCTYPE svg PUBLIC "-//W3C//DTD SVG 1.1//EN" "http://www.w3.org/Graphics/SVG/1.1/DTD/svg11.dtd">
<svg xmlns="http://www.w3.org/2000/svg" xmlns:xlink="http://www.w3.org/1999/xlink" version="1.1" width="18.3453mm" height="16.6744mm" viewBox="98.45071697740624 184.6509746982972 52.00244824830342 47.2659528927729" xml:space="preserve">
<desc>Created with Fabric.js 5.3.0</desc>
<defs>
</defs>
<g transform="matrix(0.1063856687 0 0 0.1063856687 124.4519411016 208.2839511447)" id="fqIMkUs7LYchOinIML99J"  >
<path style="stroke: none; stroke-width: 1; stroke-dasharray: none; stroke-linecap: butt; stroke-dashoffset: 0; stroke-linejoin: miter; stroke-miterlimit: 4; fill: rgb(255,255,255); fill-rule: nonzero; opacity: 1;" vector-effect="non-scaling-stroke"  transform=" translate(0, 0)" d="M -88.10845 -216.9878 C -102.28083000000001 -218.46761999999998 -116.59722000000001 -216.33744 -129.72482000000002 -210.79557 C -137.75898 -207.40391 -149.35285000000002 -202.31153 -153.77482000000003 -199.84318 C -161.83078000000003 -195.34634 -237.60445000000004 -147.80668 -239.58845000000002 -92.63067999999998 L -197.74045 -78.39467999999998 C -193.41045 -140.28467999999998 -129.95394 -188.1796 -75.48394 -215.6696 C -75.48394 -215.6696 -83.94237000000001 -216.55279000000002 -88.10846000000001 -216.9878 z M -49.56718 -210.80235 C -97.79718 -186.46235 -161.61349 -124.03667999999999 -163.53649 -69.11367999999999 L -33.61654999999999 -21.96799999999999 C -29.751549999999988 -84.18799999999999 14.232070000000007 -146.71411 69.04807000000001 -174.37711 C 69.04807000000001 -174.37711 77.64786000000001 -177.42743 81.89586000000001 -179.03743 z M 110.91149 -168.8079 L 91.85669 -159.85848 C 43.27969 -135.34047999999999 -3.053449999999998 -67.77067999999998 -4.414450000000002 -12.620679999999993 L 39.741009999999996 1.5621600000000075 C 43.65501 -60.62584 89.33036 -123.31544 144.11236 -150.96143999999998 C 148.63436 -153.24443999999997 157.44122 -154.73443999999998 161.93122 -156.38644 z M 190.72461 -141.89678 C 180.45761000000002 -141.80378000000002 169.143 -135.98185 155.904 -129.30085 C 108.746 -105.50085 72.63307999999999 -47.32594 69.04808 6.837060000000008 L 238.57962 -63.838779999999986 C 238.17562 -102.84877999999998 227.82562000000001 -125.14277999999999 214.16462 -134.92077999999998 C 211.81762 -136.60078 207.92906000000002 -140.81677999999997 203.19321000000002 -141.89677999999998 C 198.45736000000002 -142.97678 190.72461 -141.89677999999998 190.72461 -141.89677999999998 z M -239.70545 114.56532 L -198.11045000000001 129.03932 L -198.11045000000001 -48.73867999999999 L -239.70545 -62.83755999999999 z M -169.17273 -40.02712 L -169.17273 140.46132 L -37.48525000000001 185.81223 L -37.48525000000001 6.837060000000008 z M 239.70545 -35.09913 L 69.04808000000003 32.98685999999999 L 69.04808000000003 217.44448999999997 L 239.70545 140.46132999999998 z M -6.29092 195.55468 L 36.88178 209.46312 L 36.88178 28.697990000000004 L -6.29092 16.249930000000006 z" stroke-linecap="round" />
</g>
</svg>