<?xml version="1.0" encoding="UTF-8" standalone="no" ?>
<!DOCTYPE svg PUBLIC "-//W3C//DTD SVG 1.1//EN" "http://www.w3.org/Graphics/SVG/1.1/DTD/svg11.dtd">
<svg xmlns="http://www.w3.org/2000/svg" xmlns:xlink="http://www.w3.org/1999/xlink" version="1.1" width="42.5377188109858" height="41.57545862043087" viewBox="1.9553121344681124 2.212270689784564 42.5377188109858 41.57545862043087" xml:space="preserve">
<desc>Created with Fabric.js 5.3.0</desc>
<defs>
</defs>
<g transform="matrix(0.0875010666 0 0 0.0875010666 23.22417154 23)" id="Oareik4jesrNVK00l2v9E"  >
<path style="stroke: none; stroke-width: 1; stroke-dasharray: none; stroke-linecap: butt; stroke-dashoffset: 0; stroke-linejoin: miter; stroke-miterlimit: 4; fill: rgb(255,255,255); fill-rule: nonzero; opacity: 1;" vector-effect="non-scaling-stroke"  transform=" translate(0, 0)" d="M -108.3635 -231.85661 C -120.8985 -231.89261 -132.63150000000002 -228.99660999999998 -145.6485 -222.43260999999998 L -145.6485 -222.43260999999998 C -193.8685 -198.09860999999998 -235.2545 -131.96461 -237.23850000000002 -76.78860999999998 L -195.39050000000003 -62.55260999999997 C -191.06050000000002 -124.44260999999997 -148.33350000000002 -190.92260999999996 -93.86350000000003 -218.41260999999997 L -93.86150000000004 -218.41260999999997 C -89.43850000000003 -220.64260999999996 -85.03950000000003 -222.57460999999998 -80.67650000000003 -224.21260999999998 L -102.93650000000004 -231.66260999999997 C -104.76650000000004 -231.78560999999996 -106.57350000000004 -231.85260999999997 -108.36450000000004 -231.85660999999996 z M -44.41203 -210.12945 C -54.89003 -210.21945 -55.72912 -207.20490999999998 -55.72912 -207.20490999999998 C -103.95912 -182.86490999999998 -159.26354 -108.19460999999998 -161.18654 -53.27160999999998 L -31.26660000000001 -6.1259299999999826 C -27.40160000000001 -68.34592999999998 10.918929999999989 -135.49793 65.73492999999999 -163.16092999999998 C 65.73492999999999 -163.16092999999998 73.29816 -166.70753999999997 77.54615999999999 -168.31753999999998 L -35.135300000000015 -207.20490999999998 C -37.787300000000016 -207.74690999999999 -44.41202000000001 -210.12945 -44.41202000000001 -210.12945 z M 125.9465 -153.34361 C 115.4705 -153.43361000000002 103.1165 -150.25161 89.5265 -143.40361000000001 L 89.5215 -143.40161 C 40.944500000000005 -118.88361 -0.7034999999999911 -51.928610000000006 -2.0644999999999953 3.2213899999999853 L 42.09096 17.404229999999984 C 46.004960000000004 -44.78377000000002 90.9655 -110.33261000000002 145.7475 -137.97861 C 150.2695 -140.26161 154.7875 -142.23661 159.2775 -143.88861 L 132.7335 -152.77261 C 130.5695 -153.12260999999998 128.3105 -153.32261 125.9485 -153.34260999999998 z M 189.5005 -131.32961 C 179.2335 -131.23661 167.91888999999998 -125.41468 154.67989 -118.73368 C 107.52189 -94.93368000000001 69.31993 -34.221000000000004 65.73493 19.941999999999993 L 237.35550999999998 -53.27161000000001 C 236.95150999999998 -92.28161 226.60151 -114.57561000000001 212.94051 -124.35361 C 210.59350999999998 -126.03361000000001 208.07351 -127.41061 205.39050999999998 -128.49061 L 205.38051 -128.45661 L 200.64550999999997 -130.04061000000002 C 197.16550999999998 -130.92761000000002 196.52482999999998 -131.36661 192.57582999999997 -131.32961 z M -237.3205 -57.07661 L -237.3555 130.40739000000002 L -195.7605 144.88139 L -195.7605 -32.89660999999998 L -237.3555 -48.36404999999998 z M -166.82278 -24.18505 L -166.82278 156.30339 L -35.1353 201.6543 L -35.1353 19.942000000000007 z M 237.1475 -26.74698 L 65.73492000000002 45.18286 L 67.82397000000002 231.85693 L 237.14750000000004 156.30339 L 237.14750000000004 -15.98787999999999 z M -2.1015 22.94739 L -2.1015 212.25439 L 42.090959999999995 227.44962 L 42.090959999999995 42.91048000000001 L -2.1015000000000015 30.120800000000006 z" stroke-linecap="round" />
</g>
</svg>