<?xml version="1.0" encoding="UTF-8" standalone="no" ?>
<!DOCTYPE svg PUBLIC "-//W3C//DTD SVG 1.1//EN" "http://www.w3.org/Graphics/SVG/1.1/DTD/svg11.dtd">
<svg xmlns="http://www.w3.org/2000/svg" xmlns:xlink="http://www.w3.org/1999/xlink" version="1.1" width="486.6014189577037" height="336.9900000000001" viewBox="73.18016538382682 140.50810246681596 486.6014189577037 336.9900000000001" xml:space="preserve">
<desc>Created with Fabric.js 5.3.0</desc>
<defs>
</defs>
<g transform="matrix(1 0 0 1 316.4808748627 309.0031024668)" id="EjHzeKdo259OzHofjSEyS"  >
<path style="stroke: none; stroke-width: 1; stroke-dasharray: none; stroke-linecap: butt; stroke-dashoffset: 0; stroke-linejoin: miter; stroke-miterlimit: 4; fill: rgb(255,255,255); fill-rule: nonzero; opacity: 1;"  transform=" translate(0, 0)" d="M 2.40071 -166.995 C -33.199290000000005 -167.055 -78.79929 -156.805 -122.79929 -133.905 C -166.72929 -111.005 -201.54928999999998 -81.005 -221.98928999999998 -51.705 C -242.43928999999997 -22.505 -247.96928999999997 4.695 -237.90928999999997 24.095 C -227.83928999999998 43.394999999999996 -202.37928999999997 54.495 -166.68928999999997 54.495 C -130.99928999999997 54.595 -86.39928999999997 43.295 -42.499289999999974 20.494999999999997 C 1.5007100000000264 -2.405000000000001 36.300710000000024 -32.505 56.70071000000003 -61.705000000000005 C 77.20071000000003 -90.905 82.60071000000002 -118.105 72.60071000000003 -137.505 C 62.50071000000003 -156.805 37.100710000000035 -167.995 1.400710000000032 -167.995 z M 100.30071 -90.705 C 96.80071 -75.405 89.20071 -59.705 78.50071 -44.405 C 55.90071 -12.105000000000004 19.000709999999998 19.394999999999996 -27.199290000000005 43.394999999999996 C -73.39929000000001 67.495 -120.29929 79.595 -159.69929000000002 79.595 C -178.29929 79.595 -195.53929000000002 76.795 -210.06929000000002 70.895 L -199.47929000000002 91.29499999999999 C -189.39929 110.695 -164.00929000000002 121.79499999999999 -128.29929 121.79499999999999 C -92.59929000000001 121.79499999999999 -47.999290000000016 110.59499999999998 -4.0992900000000105 87.695 C 39.90070999999999 64.895 74.70070999999999 34.794999999999995 95.10070999999999 5.49499999999999 C 115.50071 -23.70500000000001 121.10070999999999 -50.90500000000001 111.00071 -70.20500000000001 z M 129.10071 -74.905 C 140.30070999999998 -48.205 138.30070999999998 -13.704999999999998 116.90070999999999 16.795 C 98.00071 43.895 69.10070999999999 70.195 33.300709999999995 92.19500000000001 C 44.40071 93.39500000000001 56.00071 93.995 67.80071 93.995 C 117.30071 93.995 162.10071 83.39500000000001 193.70071000000002 66.89500000000001 C 225.40071 50.39500000000001 242.80071 28.79500000000001 242.80071 6.995000000000012 C 242.80071 -14.804999999999989 225.40071 -36.40499999999999 193.70071000000002 -52.90499999999999 C 177.60071000000002 -61.304999999999986 161.00071000000003 -69.20499999999998 139.10071000000002 -73.90499999999999 z M 239.80071 57.895 C 229.60071000000002 69.795 215.60071000000002 80.295 199.10071 88.89500000000001 C 164.10071 107.09500000000001 116.90070999999999 117.995 64.80070999999998 117.995 C 43.60070999999998 117.995 23.20070999999998 116.19500000000001 4.100709999999978 112.795 C -19.09929000000002 124.495 -42.39929000000002 133.195 -64.79929000000003 138.895 C -63.599290000000025 139.595 -62.39929000000003 140.19500000000002 -61.099290000000025 140.895 C -43.484320000000025 150.09269 -21.767660000000028 157.45704 2.5783699999999783 162.17396000000002 C 21.907389999999978 165.91885000000002 42.893769999999975 167.99500000000003 64.80070999999998 167.99500000000003 C 114.30070999999998 167.99500000000003 159.10071 157.39500000000004 190.70071 140.89500000000004 C 222.40070999999998 124.39500000000004 239.80070999999998 102.79500000000004 239.80070999999998 80.99500000000003 z" stroke-linecap="round" />
</g>
</svg>