<?xml version="1.0" encoding="UTF-8" standalone="no" ?>
<!DOCTYPE svg PUBLIC "-//W3C//DTD SVG 1.1//EN" "http://www.w3.org/Graphics/SVG/1.1/DTD/svg11.dtd">
<svg xmlns="http://www.w3.org/2000/svg" xmlns:xlink="http://www.w3.org/1999/xlink" version="1.1" width="5.9006mm" height="6.1291mm" viewBox="117.36007242608306 161.7655143332953 16.72603012439147 17.373760073793395" xml:space="preserve">
<desc>Created with Fabric.js 5.3.0</desc>
<defs>
</defs>
<g transform="matrix(0.0332184961 0 0 0.0332184961 125.7230874883 170.4523943702)" id="i2cm9JFcKpuarJTwJU4ne"  >
<path style="stroke: none; stroke-width: 1; stroke-dasharray: none; stroke-linecap: butt; stroke-dashoffset: 0; stroke-linejoin: miter; stroke-miterlimit: 4; fill: rgb(255,255,255); fill-rule: nonzero; opacity: 1;"  transform=" translate(-0.0000042515, 9.67e-7)" d="M 0 -246.45547 C -72.036 -246.09247 -144.05251 -211.73582 -190.24251 -149.29982 C -260.07251 -54.90982000000001 -249.36751 74.02017999999998 -170.39251000000002 155.69317999999998 L -207.63051000000002 206.02517999999998 L -56.410510000000016 183.41217999999998 L -79.02651000000002 32.193179999999984 L -122.16351000000002 90.50117999999998 C -166.24351000000001 36.11917999999998 -145.77844000000002 -47.61752000000001 -130.40143 -72.60768000000002 C -122.08404 -86.12480000000002 -101.85241 -117.50391000000002 -56.41051 -132.66143000000002 C -17.840400000000002 -145.52681 36.934619999999995 -132.66143000000002 36.934619999999995 -132.66143000000002 L 17.053129999999996 -206.53308000000004 L 100.95609999999999 -246.45547000000005 z M 211.86749 -223.21482 L 60.65048999999999 -194.67656 L 83.26449 -49.38481999999999 L 124.39049 -104.97281999999998 C 166.59449 -50.682819999999985 151.12657000000002 36.95914000000002 118.10553 75.18622000000002 C 85.08449 113.41330000000002 26.057060000000007 138.03892000000002 -35.31294000000001 120.28492000000003 L -17.00487000000001 198.69044000000002 C -3.0847400000000107 201.37164 -96.45716000000002 230.64757000000003 -96.45716000000002 230.64757000000003 C 2.572839999999985 274.34757 123.13048999999998 222.89018000000004 190.23848999999998 132.18218000000002 C 243.95540999999997 59.57148000000002 250.02087999999998 -33.47948999999997 214.01193999999998 -109.73518999999999 C 203.67983999999998 -131.61534999999998 189.88377999999997 -152.11275999999998 172.75548999999998 -170.34781999999998 L 211.86948999999998 -223.21382 z" stroke-linecap="round" />
</g>
</svg>