<?xml version="1.0" encoding="UTF-8" standalone="no" ?>
<!DOCTYPE svg PUBLIC "-//W3C//DTD SVG 1.1//EN" "http://www.w3.org/Graphics/SVG/1.1/DTD/svg11.dtd">
<svg xmlns="http://www.w3.org/2000/svg" xmlns:xlink="http://www.w3.org/1999/xlink" version="1.1" width="5.9006mm" height="5.9008mm" viewBox="117.36007242643322 161.80453003433368 16.726030123691146 16.726536000552198" xml:space="preserve">
<desc>Created with Fabric.js 5.3.0</desc>
<defs>
</defs>
<g transform="matrix(0.0332184961 0 0 0.0332184961 125.7230874883 170.1677980346)" id="i2cm9JFcKpuarJTwJU4ne"  >
<path style="stroke: none; stroke-width: 1; stroke-dasharray: none; stroke-linecap: butt; stroke-dashoffset: 0; stroke-linejoin: miter; stroke-miterlimit: 4; fill: rgb(255,255,255); fill-rule: nonzero; opacity: 1;"  transform=" translate(0, 0)" d="M -1.06251 -236.70241 C -73.09851 -236.33941 -144.05251 -203.16841 -190.24251 -140.73241 C -260.07251 -46.34240999999999 -249.36751 82.58759 -170.39251000000002 164.26059 L -207.63051000000002 214.59259 L -56.410510000000016 191.97959 L -79.02651000000002 40.76059000000001 L -122.16351000000002 99.06859 C -166.24351000000001 44.68659 -145.77844000000002 -39.05010999999999 -130.40143 -64.04026999999999 C -122.08404 -77.55739 -101.85241 -108.9365 -56.41051 -124.09402 C -17.840400000000002 -136.9594 47.60549 -134.84818 47.60549 -134.84818 C 47.60549 -134.84818 32.72605 -182.47003 24.167040000000004 -192.03741000000002 C 15.608030000000003 -201.60479000000004 29.225950000000005 -204.05449000000002 47.60549 -208.98341000000002 C 65.98503 -213.91233000000003 96.21349000000001 -220.95879000000002 96.21349000000001 -220.95879000000002 C 65.07349 -234.86479000000003 31.893490000000014 -236.87141000000003 -1.0605099999999936 -236.70441000000002 z M 211.86749 -214.64741 L 60.65048999999999 -192.03741000000002 L 83.26449 -40.817410000000024 L 124.39049 -96.40541000000002 C 166.59449 -42.11541000000002 151.12657000000002 45.526549999999986 118.10553 83.75362999999999 C 85.08449 121.98070999999999 17.757490000000004 145.42068 -43.61251 127.66667999999999 L -27.67575 203.03950999999998 C -13.75562 205.72070999999997 -95.27151 216.68758999999997 -95.27151 216.68758999999997 C 3.758489999999995 260.38759 123.13048999999998 231.45758999999998 190.23848999999998 140.74958999999996 C 243.95540999999997 68.13888999999996 250.02087999999998 -24.91208000000003 214.01193999999998 -101.16778000000005 C 203.67983999999998 -123.04794000000005 189.88377999999997 -143.54535000000004 172.75548999999998 -161.78041000000005 L 211.86948999999998 -214.64641000000006 z" stroke-linecap="round" />
</g>
</svg>