<?xml version="1.0" encoding="UTF-8" standalone="no" ?>
<!DOCTYPE svg PUBLIC "-//W3C//DTD SVG 1.1//EN" "http://www.w3.org/Graphics/SVG/1.1/DTD/svg11.dtd">
<svg xmlns="http://www.w3.org/2000/svg" xmlns:xlink="http://www.w3.org/1999/xlink" version="1.1" width="372.40358753177793" height="434.80972471166916" viewBox="120.36860334601107 79.77925316763108 372.40358753177793 434.80972471166916" xml:space="preserve">
<desc>Created with Fabric.js 5.3.0</desc>
<defs>
</defs>
<g transform="matrix(0.9510379061 0 0 0.9510379061 306.5703971119 297.1841155235)" id="3qQqfno6fTwtSG-ABqNLR"  >
<path style="stroke:white;stroke-width: 1; stroke-dasharray: none; stroke-linecap: butt; stroke-dashoffset: 0; stroke-linejoin: miter; stroke-miterlimit: 4; stroke: white;fill-rule: nonzero; opacity: 1;filter: url(#SVGID_28);"  transform=" translate(0, 0)" d="M 73.8 3.68051 L 136.63 -79.02949 L 179.49 -46.46948999999999 L 116.66000000000001 36.28051000000001 z M 60.94 -5.84949 L 127.75 -93.84949 L 82.75 -127.99949000000001 L 15.939999999999998 -39.99949000000001 z M 33.46 -103.62949 L 14.16 -64.05949000000001 L 71.16 -139.05949 L 28.65 -171.35949 L -7.590000000000003 -123.64948999999999 z M 12.72 -176.86949 L -33.92 -212.29949000000002 L -75.92 -156.98949000000002 L -22.25 -130.81949000000003 z M 119.72 58.65051 L -19.28 -44.05949 L -29.200000000000003 -43.14949 L -24.640000000000004 -41.14949 L 37.519999999999996 97.28051 L 20.999999999999996 99.53051 L -36.68000000000001 -28.969489999999993 L -76.68 -46.669489999999996 L -80.68 -77.50949 L -41.27000000000001 -58.08949 L -4.910000000000011 -61.419489999999996 L 12.08999999999999 -96.24949 L -98.81000000000002 -150.33949 L -179.49 -37.82949000000001 L -78.4 114.66051 L -107.17355 212.29949 L 78.92644999999999 212.29949 L 84.99999999999999 140.61050999999998 L 120.28999999999999 91.68050999999997 L 131 43.76050999999997 z" stroke-linecap="round" />
<filter id="SVGID_28" y="-24.71032691%" height="149.42065381999998%" x="-25.57134102%" width="151.14268204%" >
	<feGaussianBlur in="SourceAlpha" stdDeviation="5"></feGaussianBlur>
	<feOffset dx="10" dy="10" result="oBlur" ></feOffset>
	<feFlood flood-color="rgb(0,0,0)" flood-opacity="1"/>
	<feComposite in2="oBlur" operator="in" />
	<feMerge>
		<feMergeNode></feMergeNode>
		<feMergeNode in="SourceGraphic"></feMergeNode>
	</feMerge>
</filter>
<path style="stroke: none; stroke-width: 1; stroke-dasharray: none; stroke-linecap: butt; stroke-dashoffset: 0; stroke-linejoin: miter; stroke-miterlimit: 4; fill: rgb(223,193,63); fill-rule: nonzero; opacity: 1;"  transform=" translate(0, 0)" d="M 73.8 3.68051 L 136.63 -79.02949 L 179.49 -46.46948999999999 L 116.66000000000001 36.28051000000001 z M 60.94 -5.84949 L 127.75 -93.84949 L 82.75 -127.99949000000001 L 15.939999999999998 -39.99949000000001 z M 33.46 -103.62949 L 14.16 -64.05949000000001 L 71.16 -139.05949 L 28.65 -171.35949 L -7.590000000000003 -123.64948999999999 z M 12.72 -176.86949 L -33.92 -212.29949000000002 L -75.92 -156.98949000000002 L -22.25 -130.81949000000003 z M 119.72 58.65051 L -19.28 -44.05949 L -29.200000000000003 -43.14949 L -24.640000000000004 -41.14949 L 37.519999999999996 97.28051 L 20.999999999999996 99.53051 L -36.68000000000001 -28.969489999999993 L -76.68 -46.669489999999996 L -80.68 -77.50949 L -41.27000000000001 -58.08949 L -4.910000000000011 -61.419489999999996 L 12.08999999999999 -96.24949 L -98.81000000000002 -150.33949 L -179.49 -37.82949000000001 L -78.4 114.66051 L -107.17355 212.29949 L 78.92644999999999 212.29949 L 84.99999999999999 140.61050999999998 L 120.28999999999999 91.68050999999997 L 131 43.76050999999997 z" stroke-linecap="round" />
</g>
</svg>