<?xml version="1.0" encoding="UTF-8" standalone="no" ?>
<!DOCTYPE svg PUBLIC "-//W3C//DTD SVG 1.1//EN" "http://www.w3.org/Graphics/SVG/1.1/DTD/svg11.dtd">
<svg xmlns="http://www.w3.org/2000/svg" xmlns:xlink="http://www.w3.org/1999/xlink" version="1.1" width="319.94326452497097" height="425.26428718026494" viewBox="160.02836773751451 107.86785640986753 319.94326452497097 425.26428718026494" xml:space="preserve">
<desc>Created with Fabric.js 5.3.0</desc>
<defs>
</defs>
<g transform="matrix(14.6145271465 0 0 -16.2201300361 320 320.5)" id="DLxgueRA-eVPE2i7QDpqB"  >
<path style="stroke: rgb(68,192,185); stroke-width: 0; stroke-dasharray: none; stroke-linecap: butt; stroke-dashoffset: 0; stroke-linejoin: miter; stroke-miterlimit: 4; fill: rgb(255,255,255); fill-rule: nonzero; opacity: 1;"  transform=" translate(0, 0)" d="M 10.94607 -1.38958 L 10.94607 11.20141 C 10.94607 12.23039 9.82126 13.10915 8.79227 13.10915 L -8.750379999999998 13.0475 C -9.856009999999998 13.0475 -10.946069999999999 12.245389999999999 -10.946069999999999 11.139759999999999 L -10.946069999999999 -11.100630000000002 C -10.946069999999999 -12.185800000000002 -9.83555 -13.109150000000003 -8.75038 -13.109150000000003 L 8.792269999999998 -13.047500000000003 C 9.781169999999998 -13.047500000000003 10.946069999999999 -12.027890000000003 10.946069999999999 -11.038980000000002 z M -6.93996 1.58123 C -7.07985 1.6263999999999998 -7.18814 1.72804 -7.232530000000001 1.85582 C -7.2769200000000005 1.9836 -7.25227 2.12273 -7.16593 2.2317 L -1.7527400000000002 9.06559 L -1.7527400000000002 9.06559 C -1.6822300000000001 9.1546 -1.56038 9.19811 -1.4413400000000003 9.17678 C -1.3223100000000003 9.15545 -1.2282000000000002 9.07324 -1.2008500000000002 8.966700000000001 L -0.2802500000000002 5.379360000000001 C -0.2802500000000002 5.379360000000001 1.00039 5.801370000000001 1.69671 5.848790000000001 C 2.39303 5.896210000000001 3.48229 6.001240000000001 4.525729999999999 5.787140000000001 C 5.56917 5.573040000000001 6.7353499999999995 4.973340000000001 7.337179999999999 4.4655000000000005 C 8.44869 3.5275900000000004 9.12801 2.0381000000000005 9.189499999999999 0.15384000000000064 C 9.250989999999998 -1.7304199999999994 8.94085 -3.1596799999999994 7.816149999999999 -4.355099999999999 C 6.691459999999998 -5.550519999999999 4.606839999999998 -6.386709999999999 2.6511499999999986 -6.648079999999999 C 0.6954599999999986 -6.90945 -0.3458100000000015 -6.873409999999999 -3.3161500000000013 -6.80467 C -6.286480000000001 -6.73593 -9.23019 -6.18816 -9.23019 -6.18816 L -9.23019 -3.21556 C -9.23019 -3.21556 -5.48873 -3.739 -3.11139 -3.87572 C -0.7340599999999999 -4.012449999999999 1.0546299999999995 -4.0944 2.6511500000000003 -3.64836 C 4.24767 -3.20232 4.94962 -2.81546 5.40616 -2.09156 C 5.8627 -1.3676599999999999 5.96251 -0.7672999999999999 5.92547 0.030830000000000357 C 5.88843 0.8289600000000004 5.59971 1.7012900000000004 4.63938 2.3261900000000004 C 3.67905 2.9510900000000007 2.47216 3.0446800000000005 1.9388200000000002 3.03277 C 1.4054800000000003 3.0208600000000003 0.5183300000000002 2.68628 0.5183300000000002 2.68628 L 1.50137 -0.63924 L 1.50137 -0.63924 C 1.53489 -0.7491800000000001 1.49766 -0.86678 1.4048200000000002 -0.94425 C 1.3119800000000001 -1.0217100000000001 1.1789800000000001 -1.04614 1.0598900000000002 -1.00759 z" stroke-linecap="round" />
</g>
</svg>