<?xml version="1.0" encoding="UTF-8" standalone="no" ?>
<!DOCTYPE svg PUBLIC "-//W3C//DTD SVG 1.1//EN" "http://www.w3.org/Graphics/SVG/1.1/DTD/svg11.dtd">
<svg xmlns="http://www.w3.org/2000/svg" xmlns:xlink="http://www.w3.org/1999/xlink" version="1.1" width="5.0941mm" height="5.2634mm" viewBox="15.092493450608927 218.0723329710982 14.44 14.92" xml:space="preserve">
<desc>Created with Fabric.js 4.6.0</desc>
<defs>
</defs>
<g transform="matrix(0.03 0 0 0.03 22.31 225.53)" id="jwMZcHoxMF3wygsX6wuv6"  >
<filter id="SVGID_148" y="-25%" height="150%" x="-25%" width="150%" >
	<feGaussianBlur in="SourceAlpha" stdDeviation="4.25"></feGaussianBlur>
	<feOffset dx="14.17" dy="14.17" result="oBlur" ></feOffset>
	<feFlood flood-color="rgb(0,0,0)" flood-opacity="1"/>
	<feComposite in2="oBlur" operator="in" />
	<feMerge>
		<feMergeNode></feMergeNode>
		<feMergeNode in="SourceGraphic"></feMergeNode>
	</feMerge>
</filter>
<path style="stroke: none; stroke-width: 1; stroke-dasharray: none; stroke-linecap: butt; stroke-dashoffset: 0; stroke-linejoin: miter; stroke-miterlimit: 4; fill: rgb(255,255,255); fill-rule: nonzero; opacity: 1;filter: url(#SVGID_148);" vector-effect="non-scaling-stroke"  transform=" translate(0, 0)" d="M 0 -232 C -64 -184 -128 -168 -224 -136 C -224 -70.05954 -189.39465 16.794369999999986 -139.46979 88.26735 C -92.48325999999999 155.53377999999998 -31.029769999999985 208.72768 0 232 C 19.08619 217.68536 94.34601 154.20244 118.26425 122.77901 C 142.18249 91.35558 173.65157 45.288979999999995 188.3 13.986490000000003 C 202.94843 -17.315999999999995 224 -65.04759 224 -136 C 128 -168 64 -184 0 -232 z M 0 -197.25 L 5.4 -193.2 C 55.1 -155.89999999999998 105 -143.29999999999998 182.1 -117.6 L 188.29999999999998 -115.6 L 188.29999999999998 -109.1 C 188.29999999999998 -54.099999999999994 157.16424999999998 10.600000000000009 118.26424999999999 67.30000000000001 C 79.36425 124.10000000000001 32.69999999999999 172.3 5.3999999999999915 192.8 L -8.881784197001252e-15 196.9 L -5.400000000000009 192.8 C -32.70000000000001 172.3 -77.4 124.10000000000001 -116.30000000000001 67.30000000000001 C -155.20000000000002 10.600000000000009 -188.3 -54.099999999999994 -188.3 -109.1 L -188.3 -115.6 L -182.15 -117.6 C -105.10000000000001 -143.29999999999998 -55.10000000000001 -156 -5.400000000000006 -193.2 z M 0 -175.07 C -49.4 -139.7 -99.8 -125.89999999999999 -170.05 -102.69999999999999 C -167.47 -55.999999999999986 -137.70000000000002 4.300000000000011 -101.4 57.20000000000002 C -66.10000000000001 108.70000000000002 -24.80000000000001 153.5 0 174 C 24.8 153.5 66.1 108.7 101.4 57.2 C 137.7 4.300000000000004 167.5 -56 170 -102.7 C 99.7 -125.9 49.400000000000006 -139.7 0 -175.07 z M -45.5 -120.1 C -25.8 -119.6 -7.399999999999999 -105.69999999999999 0 -72 C 18 -158.3 110 -114.5 110 -49.5 C 109 14.399999999999999 18 58.2 0 112.6 C -19 58.199999999999996 -108 14.399999999999991 -110 -49.5 C -110 -89.1 -76.2 -120.8 -45.5 -120.1 z" stroke-linecap="round" />
</g>
</svg>