<?xml version="1.0" encoding="UTF-8" standalone="no" ?>
<!DOCTYPE svg PUBLIC "-//W3C//DTD SVG 1.1//EN" "http://www.w3.org/Graphics/SVG/1.1/DTD/svg11.dtd">
<svg xmlns="http://www.w3.org/2000/svg" xmlns:xlink="http://www.w3.org/1999/xlink" version="1.1" width="479.64704867810775" height="536.7102478087712" viewBox="95.4642238564746 25.09660638497553 479.64704867810775 536.7102478087712" xml:space="preserve">
<desc>Created with Fabric.js 5.3.0</desc>
<defs>
</defs>
<g transform="matrix(1.1209700615 0 0 1.1209700615 335.2877481955 293.4517302894)" id="qpo88dUssPxTj-3pbMjfS"  >
<path style="stroke: none; stroke-width: 0; stroke-dasharray: none; stroke-linecap: butt; stroke-dashoffset: 0; stroke-linejoin: miter; stroke-miterlimit: 4; fill: rgb(255,255,255); fill-rule: nonzero; opacity: 1;" vector-effect="non-scaling-stroke"  transform=" translate(0, 0)" d="M 117.9978 -239.22924 C 157.13022 -237.03972000000002 190.37833999999998 -213.75900000000001 204.68334 -188.00900000000001 C 219.94333999999998 -160.54200000000003 214.57234 -128.11661 201.36733999999998 -97.53861000000002 C 200.54433999999998 -95.63461000000002 194.31849 -83.14861000000002 194.91648999999998 -76.43061000000002 C 195.39648999999997 -71.03461000000001 201.12274 -46.873440000000016 198.43874 -45.46644000000002 C 197.00574 -44.32644000000002 177.57581 -62.22727000000002 174.56981 -67.01427000000002 C 169.43381 -75.19427000000002 162.31483 -94.71911000000003 167.04882999999998 -105.68111000000002 C 176.83382999999998 -128.33811000000003 182.70125 -146.29163000000003 171.50924999999998 -166.43963000000002 C 160.31624999999997 -186.58563000000004 140.79378999999997 -199.05883000000003 113.34378999999998 -196.67983000000004 C 83.71178999999998 -194.11283000000003 74.77640999999998 -187.35437000000005 63.72640999999999 -174.43037000000004 C 52.67640999999999 -161.50437000000005 48.430329999999984 -144.10968000000003 45.23832999999999 -123.28768000000004 C 38.85532999999999 -81.64568000000003 49.35278999999999 -34.75896000000003 26.91278999999999 1.5480399999999577 C 26.65278999999999 1.9680399999999576 -11.30352000000001 54.41473999999996 -11.30352000000001 54.41473999999996 C -13.38533000000001 54.66697999999996 -31.11943000000001 50.57803999999996 -37.663280000000015 44.72672999999996 C -42.79382000000001 40.13915999999996 -50.25528000000001 23.23765999999996 -50.25528000000001 23.23765999999996 L -7.892210000000013 -38.33797000000004 C 6.433789999999988 -62.11797000000004 -11.352780000000013 -81.09707000000003 -4.290780000000012 -127.17307000000004 C -0.7407800000000124 -150.34007000000003 9.374469999999988 -184.76753000000002 25.109469999999988 -203.17253000000005 C 40.84546999999999 -221.57753000000005 78.86536999999998 -241.41875000000005 117.99778999999998 -239.22923000000006 z M -52.52851 61.82541 C -40.96848 72.17344 -20.084519999999998 72.43158 -13.191519999999997 71.16758 C -11.601519999999997 76.14758 -11.075419999999998 82.79399000000001 -10.411419999999996 88.54199 C -8.389419999999996 105.99999 -9.916609999999997 123.42546999999999 -13.571249999999996 140.8534 C -17.225889999999996 158.28133 -20.923899999999996 175.81271999999998 -29.138899999999996 195.33671999999999 C -88.8059 182.62671999999998 -139.17789 141.93471 -177.27689 81.13270999999999 C -160.75489000000002 67.93770999999998 -151.86759 61.10122999999999 -129.97659000000002 49.30522999999999 C -111.19459000000002 39.18522999999999 -103.10040000000001 34.31856999999999 -91.79036000000002 31.96856999999999 C -80.48032000000002 29.618569999999988 -73.24676000000002 28.077169999999988 -69.32376000000002 28.14216999999999 C -69.32376000000002 28.14216999999999 -64.08854000000002 51.477389999999986 -52.528510000000026 61.825419999999994 z M -132.69888 171.71684 C -104.77046 195.37377999999998 -68.39941 210.58773 -42.05417 216.70972 C -45.21817 223.54672 -49.97534 232.26897 -52.52634 237.20997 C -55.21234 238.69497 -59.19034 239.62297 -64.86334 239.34697 C -71.59334 239.01997 -80.20733999999999 237.01997 -89.68534 233.50497 C -108.64034 226.47496999999998 -131.04534 213.51697 -151.41334 198.01297 C -171.78134 182.50997 -190.18334000000002 164.38497 -201.58134 147.64697 C -212.42134000000001 131.72697000000002 -215.99834 118.16897 -212.83734 109.21297000000001 C -209.63934 106.16497000000001 -203.70617000000001 99.72672000000001 -198.87017 95.54872000000002 C -198.87017 95.54872000000002 -171.77686 138.61559000000003 -132.69888 171.71684000000002 z" stroke-linecap="round" />
</g>
</svg>