<?xml version="1.0" encoding="UTF-8" standalone="no" ?>
<!DOCTYPE svg PUBLIC "-//W3C//DTD SVG 1.1//EN" "http://www.w3.org/Graphics/SVG/1.1/DTD/svg11.dtd">
<svg xmlns="http://www.w3.org/2000/svg" xmlns:xlink="http://www.w3.org/1999/xlink" version="1.1" width="55.78248000000001" height="56" viewBox="134.14938993985064 166.68200871957686 152.7346287100174 153.33020704280221" xml:space="preserve">
<desc>Created with Fabric.js 5.3.0</desc>
<defs>
</defs>
<g transform="matrix(0.2984688799 0 0 0.2984688799 210.5167042949 243.347112241)" id="3pdJdWQRXS-3CUQx22mmL"  >
<path style="stroke:white;stroke-width: 1; stroke-dasharray: none; stroke-linecap: butt; stroke-dashoffset: 0; stroke-linejoin: miter; stroke-miterlimit: 4; stroke: white;fill-rule: nonzero; opacity: 1;filter: url(#SVGID_19);"  transform=" translate(-257.2102182681, -256.2280808408)" d="M 246 18.844 C 243.843 18.864 241.708 18.912000000000003 239.594 19 C 166.314 22.064 119.20899999999999 65.286 100.18799999999999 113.094 C 88.48199999999999 142.514 87.85999999999999 173.557 98.37499999999999 197.874 C 108.88999999999999 222.194 129.897 240.426 165.281 245.719 C 184.131 248.537 202.683 251.60899999999998 220.595 255.219 C 280.475 230.069 291.812 183.059 307.22 140.029 C 314.95500000000004 118.42699999999999 323.497 97.592 341.09400000000005 83.374 C 353.85200000000003 73.064 370.8860000000001 67.16199999999999 393.5640000000001 66.81099999999999 C 365.0540000000001 46.33599999999999 331.5420000000001 31.266999999999996 294.46900000000005 23.71799999999999 C 277.249 20.210999999999988 261.09700000000004 18.69399999999999 245.99900000000005 18.841999999999988 z M 393.47 85.374 C 374.43 85.61699999999999 362.057 90.494 352.84400000000005 97.93799999999999 C 340.02600000000007 108.29399999999998 332.31600000000003 125.35799999999999 324.8140000000001 146.31199999999998 C 311.59800000000007 183.21599999999998 298.24700000000007 231.46599999999998 249.06200000000007 261.594 C 291.0970000000001 272.064 327.98800000000006 286.591 354.25000000000006 309.094 C 375.61400000000003 327.4 389.59200000000004 351.68 391.65600000000006 381.844 C 393.1960000000001 404.336 388.35600000000005 429.817 376.40600000000006 459.031 C 477.462 385.23 506.27 291.847 488.844 209.75 C 479.01099999999997 163.428 454.197 120.595 418.5 87.25 C 409.053 85.868 400.762 85.282 393.47 85.375 z M 85.09400000000005 100.814 C 64.61400000000005 107.23899999999999 43.09200000000005 118.198 20.81400000000005 134.469 L 20.81200000000005 493.62399999999997 L 251.68700000000004 493.62399999999997 C 262.85300000000007 470.32599999999996 271.50700000000006 446.881 277.87500000000006 423.654 C 243.33000000000004 422.506 210.50100000000006 411.064 183.31200000000007 392.594 C 134.40000000000006 359.36199999999997 102.82500000000007 302.827 111.06200000000007 243.374 C 97.62000000000006 233.166 87.60700000000007 220.054 81.21900000000007 205.28 C 68.32900000000006 175.474 69.56900000000006 139.55 82.84300000000006 106.187 C 83.56000000000006 104.38499999999999 84.30300000000005 102.6 85.09300000000006 100.813 z M 229.75000000000006 127.93799999999999 C 253.16200000000006 127.93799999999999 272.15600000000006 146.90599999999998 272.15600000000006 170.31199999999998 C 272.15600000000006 193.719 253.16200000000006 212.68699999999998 229.75000000000006 212.68699999999998 C 206.33800000000005 212.68699999999998 187.37500000000006 193.719 187.37500000000006 170.31199999999998 C 187.37500000000006 146.90599999999998 206.33800000000005 127.93699999999998 229.75000000000006 127.93699999999998 z M 128.78 254.125 C 125.28 303.051 152.162 348.859 193.812 377.155 C 238.505 407.52 299.10200000000003 417.09499999999997 356.46900000000005 386.813 C 350.41200000000003 385.825 344.62500000000006 384.517 339.0930000000001 382.906 C 325.8790000000001 365.29 319.03600000000006 340.34000000000003 320.4050000000001 319.719 C 320.6500000000001 316.032 321.1690000000001 312.509 321.9050000000001 309.186 C 316.55500000000006 306.078 310.8550000000001 303.13599999999997 304.8110000000001 300.37399999999997 C 303.15100000000007 306.14399999999995 302.16300000000007 312.23199999999997 301.7490000000001 318.46799999999996 C 300.6090000000001 335.63599999999997 303.75900000000007 354.16799999999995 310.93700000000007 371.05999999999995 C 275.0490000000001 350.61499999999995 255.52300000000008 315.62799999999993 252.71700000000007 282.18499999999995 C 225.10900000000007 274.71999999999997 194.39500000000007 268.98299999999995 162.5300000000001 264.2169999999999 C 150.0300000000001 262.3469999999999 138.7700000000001 258.88499999999993 128.7800000000001 254.12199999999993 z" stroke-linecap="round" />
<filter id="SVGID_19" y="-25.05484679%" height="150.10969358%" x="-25.07618039%" width="150.15236078%" >
	<feGaussianBlur in="SourceAlpha" stdDeviation="5"></feGaussianBlur>
	<feOffset dx="14" dy="14" result="oBlur" ></feOffset>
	<feFlood flood-color="rgb(0,0,0)" flood-opacity="1"/>
	<feComposite in2="oBlur" operator="in" />
	<feMerge>
		<feMergeNode></feMergeNode>
		<feMergeNode in="SourceGraphic"></feMergeNode>
	</feMerge>
</filter>
<path style="stroke: none; stroke-width: 1; stroke-dasharray: none; stroke-linecap: butt; stroke-dashoffset: 0; stroke-linejoin: miter; stroke-miterlimit: 4; fill: rgb(223,193,63); fill-rule: nonzero; opacity: 1;"  transform=" translate(-257.2102182681, -256.2280808408)" d="M 246 18.844 C 243.843 18.864 241.708 18.912000000000003 239.594 19 C 166.314 22.064 119.20899999999999 65.286 100.18799999999999 113.094 C 88.48199999999999 142.514 87.85999999999999 173.557 98.37499999999999 197.874 C 108.88999999999999 222.194 129.897 240.426 165.281 245.719 C 184.131 248.537 202.683 251.60899999999998 220.595 255.219 C 280.475 230.069 291.812 183.059 307.22 140.029 C 314.95500000000004 118.42699999999999 323.497 97.592 341.09400000000005 83.374 C 353.85200000000003 73.064 370.8860000000001 67.16199999999999 393.5640000000001 66.81099999999999 C 365.0540000000001 46.33599999999999 331.5420000000001 31.266999999999996 294.46900000000005 23.71799999999999 C 277.249 20.210999999999988 261.09700000000004 18.69399999999999 245.99900000000005 18.841999999999988 z M 393.47 85.374 C 374.43 85.61699999999999 362.057 90.494 352.84400000000005 97.93799999999999 C 340.02600000000007 108.29399999999998 332.31600000000003 125.35799999999999 324.8140000000001 146.31199999999998 C 311.59800000000007 183.21599999999998 298.24700000000007 231.46599999999998 249.06200000000007 261.594 C 291.0970000000001 272.064 327.98800000000006 286.591 354.25000000000006 309.094 C 375.61400000000003 327.4 389.59200000000004 351.68 391.65600000000006 381.844 C 393.1960000000001 404.336 388.35600000000005 429.817 376.40600000000006 459.031 C 477.462 385.23 506.27 291.847 488.844 209.75 C 479.01099999999997 163.428 454.197 120.595 418.5 87.25 C 409.053 85.868 400.762 85.282 393.47 85.375 z M 85.09400000000005 100.814 C 64.61400000000005 107.23899999999999 43.09200000000005 118.198 20.81400000000005 134.469 L 20.81200000000005 493.62399999999997 L 251.68700000000004 493.62399999999997 C 262.85300000000007 470.32599999999996 271.50700000000006 446.881 277.87500000000006 423.654 C 243.33000000000004 422.506 210.50100000000006 411.064 183.31200000000007 392.594 C 134.40000000000006 359.36199999999997 102.82500000000007 302.827 111.06200000000007 243.374 C 97.62000000000006 233.166 87.60700000000007 220.054 81.21900000000007 205.28 C 68.32900000000006 175.474 69.56900000000006 139.55 82.84300000000006 106.187 C 83.56000000000006 104.38499999999999 84.30300000000005 102.6 85.09300000000006 100.813 z M 229.75000000000006 127.93799999999999 C 253.16200000000006 127.93799999999999 272.15600000000006 146.90599999999998 272.15600000000006 170.31199999999998 C 272.15600000000006 193.719 253.16200000000006 212.68699999999998 229.75000000000006 212.68699999999998 C 206.33800000000005 212.68699999999998 187.37500000000006 193.719 187.37500000000006 170.31199999999998 C 187.37500000000006 146.90599999999998 206.33800000000005 127.93699999999998 229.75000000000006 127.93699999999998 z M 128.78 254.125 C 125.28 303.051 152.162 348.859 193.812 377.155 C 238.505 407.52 299.10200000000003 417.09499999999997 356.46900000000005 386.813 C 350.41200000000003 385.825 344.62500000000006 384.517 339.0930000000001 382.906 C 325.8790000000001 365.29 319.03600000000006 340.34000000000003 320.4050000000001 319.719 C 320.6500000000001 316.032 321.1690000000001 312.509 321.9050000000001 309.186 C 316.55500000000006 306.078 310.8550000000001 303.13599999999997 304.8110000000001 300.37399999999997 C 303.15100000000007 306.14399999999995 302.16300000000007 312.23199999999997 301.7490000000001 318.46799999999996 C 300.6090000000001 335.63599999999997 303.75900000000007 354.16799999999995 310.93700000000007 371.05999999999995 C 275.0490000000001 350.61499999999995 255.52300000000008 315.62799999999993 252.71700000000007 282.18499999999995 C 225.10900000000007 274.71999999999997 194.39500000000007 268.98299999999995 162.5300000000001 264.2169999999999 C 150.0300000000001 262.3469999999999 138.7700000000001 258.88499999999993 128.7800000000001 254.12199999999993 z" stroke-linecap="round" />
</g>
</svg>