<?xml version="1.0" encoding="UTF-8" standalone="no" ?>
<!DOCTYPE svg PUBLIC "-//W3C//DTD SVG 1.1//EN" "http://www.w3.org/Graphics/SVG/1.1/DTD/svg11.dtd">
<svg xmlns="http://www.w3.org/2000/svg" xmlns:xlink="http://www.w3.org/1999/xlink" version="1.1" width="186.19605922284683" height="200.1547983827068" viewBox="256.97126436781593 181.93417294396392 186.19605922284683 200.1547983827068" xml:space="preserve">
<desc>Created with Fabric.js 5.3.0</desc>
<defs>
</defs>
<g transform="matrix(3.2852664577 0 0 3.2852664577 350.0692939792 282.0115721353)" id="FaTR4sGUJ-wPesmDnRWZX"  >
<path style="stroke: none; stroke-width: 1; stroke-dasharray: none; stroke-linecap: butt; stroke-dashoffset: 0; stroke-linejoin: miter; stroke-miterlimit: 4; fill: rgb(255,255,255); fill-rule: nonzero; opacity: 1;"  transform=" translate(0, 0)" d="M -9.61127 28.04137 C -9.61127 28.92263 -9.10098 29.72416 -8.302529999999999 30.0971 C -7.504069999999999 30.47003 -6.5619 30.346890000000002 -5.886109999999999 29.781270000000003 L 27.52291 1.8185300000000026 L 27.52291 1.8185300000000026 C 27.94308 1.4668500000000027 28.18585 0.9470900000000027 28.18585 0.3991600000000026 C 28.18585 -0.14875999999999734 27.943089999999998 -0.6685299999999974 27.52291 -1.0202099999999974 L -7.034800000000001 -29.94439 L -7.034800000000001 -29.94439 C -7.5022 -30.3356 -8.15385 -30.420769999999997 -8.70609 -30.16283 C -9.258329999999999 -29.904899999999998 -9.61127 -29.35052 -9.61127 -28.74101 L -9.61127 -11.49585 L -28.185850000000002 -11.49585 L -28.185850000000002 12.35115 L -9.611270000000001 12.35115 z" stroke-linecap="round" />
</g>
</svg>