<?xml version="1.0" encoding="UTF-8" standalone="no" ?>
<!DOCTYPE svg PUBLIC "-//W3C//DTD SVG 1.1//EN" "http://www.w3.org/Graphics/SVG/1.1/DTD/svg11.dtd">
<svg xmlns="http://www.w3.org/2000/svg" xmlns:xlink="http://www.w3.org/1999/xlink" version="1.1" width="5.0369mm" height="5.102mm" viewBox="10.822442406244306 137.6955247174972 14.277803866229581 14.46238" xml:space="preserve">
<desc>Created with Fabric.js 4.6.0</desc>
<defs>
</defs>
<g transform="matrix(0.03 0 0 0.03 17.96 144.93)" id="LQdTukOo8ZqsKmXGGlKmX"  >
<filter id="SVGID_15" y="-25%" height="150%" x="-25%" width="150%" >
	<feGaussianBlur in="SourceAlpha" stdDeviation="4.25"></feGaussianBlur>
	<feOffset dx="14.17" dy="14.17" result="oBlur" ></feOffset>
	<feFlood flood-color="rgb(0,0,0)" flood-opacity="1"/>
	<feComposite in2="oBlur" operator="in" />
	<feMerge>
		<feMergeNode></feMergeNode>
		<feMergeNode in="SourceGraphic"></feMergeNode>
	</feMerge>
</filter>
<path style="stroke: none; stroke-width: 1; stroke-dasharray: none; stroke-linecap: butt; stroke-dashoffset: 0; stroke-linejoin: miter; stroke-miterlimit: 4; fill: rgb(223,193,63); fill-rule: nonzero; opacity: 1;filter: url(#SVGID_15);" vector-effect="non-scaling-stroke"  transform=" translate(0, 0)" d="M -0.00115 -224.373 C -14.76115 -224.373 -34.808150000000005 -220.90599999999998 -51.89115 -213.66299999999998 C -68.97115 -206.41799999999998 -82.58615 -195.617 -87.56515 -182.23299999999998 C -88.34115 -180.14899999999997 -88.99515000000001 -178.09099999999998 -89.56015000000001 -176.05299999999997 C -98.31415000000001 -153.42599999999996 -82.04015000000001 -96.16799999999996 -63.56415000000001 -58.804999999999964 C -70.86415000000001 -69.49499999999996 -78.10115000000002 -79.87199999999996 -84.65815 -90.17199999999997 C -101.03815 -115.89899999999997 -113.30415 -142.53399999999996 -108.83215000000001 -171.71699999999998 C -114.24215000000001 -174.777 -120.41215000000001 -176.373 -128.00015000000002 -176.373 C -141.00015000000002 -176.373 -155.05015000000003 -169.596 -165.63715000000002 -159.01 C -176.22415 -148.42399999999998 -183.00115000000002 -134.373 -183.00115000000002 -121.37299999999999 C -183.00115000000002 -114.43099999999998 -180.56415 -107.246 -176.20815000000002 -99.91299999999998 C -166.67115 -78.23599999999999 -138.63515 -45.38899999999998 -108.09815000000002 -15.940999999999988 C -122.25115000000002 -26.09299999999999 -137.06815 -36.53099999999999 -150.61415000000002 -47.33499999999999 C -177.47615000000002 -68.75799999999998 -200.87015000000002 -92.08499999999998 -200.99415000000002 -121.142 C -204.85215000000002 -117.37599999999999 -208.25415 -112.47399999999999 -211.14015 -106.475 C -216.70815000000002 -94.89099999999999 -220.07615 -79.88199999999999 -221.01815 -64.815 C -221.95815 -49.747 -220.48614999999998 -34.595 -217.10415 -22.869 C -213.72115 -11.145 -208.21815 -3.5489999999999995 -203.97415 -1.4259999999999984 C -203.64079 -1.2585399999999984 -203.31817 -1.0705099999999983 -203.00815 -0.8629999999999984 C -166.68515 23.351 -118.72215 28.471 -67.43615 34.517 C -71.01315 25.915000000000003 -73.00014999999999 16.497000000000003 -73.00014999999999 6.624000000000002 C -73.00014999999999 -33.586 -40.21014999999999 -66.376 -0.00014999999999076863 -66.376 C 40.20985000000001 -66.376 72.99985000000001 -33.586000000000006 72.99985000000001 6.623999999999995 C 72.99985000000001 16.495999999999995 71.01285000000001 25.913999999999994 67.43585000000002 34.516999999999996 C 118.72185000000002 28.470999999999997 166.68585000000002 23.350999999999996 203.00785000000002 -0.8630000000000067 C 203.31817 -1.0708800000000067 203.64113000000003 -1.2592500000000066 203.97485000000003 -1.4270000000000067 C 208.21785000000003 -3.5490000000000066 213.72085000000004 -11.147000000000007 217.10485000000003 -22.870000000000008 C 220.48485000000002 -34.595000000000006 221.95885000000004 -49.748000000000005 221.01785000000004 -64.816 C 220.07585000000003 -79.88300000000001 216.70785000000004 -94.892 211.13785000000004 -106.476 C 208.25385000000006 -112.476 204.85085000000004 -117.376 200.99385000000004 -121.144 C 200.86885000000004 -92.087 177.47385000000003 -68.761 150.61385000000004 -47.33800000000001 C 137.06685000000004 -36.53500000000001 122.24985000000004 -26.096000000000007 108.09585000000004 -15.945000000000007 C 138.63385000000005 -45.39500000000001 166.66985000000005 -78.24100000000001 176.20585000000005 -99.91900000000001 C 180.56285000000005 -107.251 182.99985000000007 -114.436 182.99985000000007 -121.37900000000002 C 182.99985000000007 -134.37900000000002 176.22285000000008 -148.42900000000003 165.63685000000007 -159.01500000000001 C 155.04885000000007 -169.596 140.99885000000006 -176.37300000000002 127.99885000000006 -176.37300000000002 C 120.41085000000007 -176.37300000000002 114.24185000000006 -174.77800000000002 108.83085000000005 -171.717 C 113.30285000000005 -142.53400000000002 101.03685000000006 -115.89900000000002 84.65685000000005 -90.17200000000001 C 78.09985000000005 -79.87200000000001 70.86385000000004 -69.49400000000001 63.56285000000005 -58.80500000000001 C 82.03985000000004 -96.168 98.31285000000005 -153.425 89.55785000000004 -176.053 C 88.99285000000005 -178.091 88.33785000000005 -180.149 87.56185000000005 -182.233 C 82.58885000000005 -195.603 68.92385000000004 -206.413 51.80985000000005 -213.66 C 34.69885000000005 -220.90699999999998 14.642850000000045 -224.373 -0.001149999999952911 -224.373 z M 1.06885 -47.073 C -13.71732 -47.07353 -27.898059999999997 -41.20012 -38.35365 -30.74491 C -48.80924 -20.289700000000003 -54.68315 -6.109170000000002 -54.68315 8.676999999999996 C -54.65587 27.940289999999997 -44.686 45.82464999999999 -28.31515 55.97699999999999 C -30.73188 49.21185999999999 -31.97855 42.08088999999999 -32.001149999999996 34.89299999999999 C -32.00089 18.188069999999986 -25.397599999999997 2.167439999999985 -13.643949999999997 -9.644540000000013 C -1.8902899999999967 -21.456520000000012 14.050930000000005 -28.092270000000013 30.672850000000004 -28.092000000000013 C 35.235820000000004 -28.07636000000001 39.783440000000006 -27.559970000000014 44.23485 -26.552000000000014 C 33.656980000000004 -39.526440000000015 17.80884 -47.06097000000001 1.0688500000000047 -47.07400000000001 z M -61.10515 46.463 C -114.90915000000001 51.003 -166.04215 54.261 -204.17115 72.195 C -204.44392000000002 72.32292 -204.72293000000002 72.43705999999999 -205.00715000000002 72.53699999999999 C -209.90015000000002 74.26299999999999 -214.33215 78.94999999999999 -217.42115 86.50699999999999 C -217.43715 86.54499999999999 -217.45115 86.58699999999999 -217.46815 86.627 L -217.00115 86.627 C -217.00115 91.252 -213.94715 97.652 -208.01715 104.951 C -202.55915 111.669 -195.07715 118.89099999999999 -187.57915 126.33699999999999 C -186.58515 125.317 -185.55915 124.314 -184.49915 123.33099999999999 C -175.11415 114.62099999999998 -162.87714999999997 106.817 -149.41715 99.243 C -131.11915 88.947 -110.53115 79.116 -92.35714999999999 69.62299999999999 C -127.89914999999999 92.216 -163.72715 120.291 -175.56914999999998 138.24099999999999 C -168.63914999999997 143.885 -158.59515 150.89399999999998 -147.76514999999998 156.694 C -134.98514999999998 163.53799999999998 -120.73014999999998 169.21699999999998 -108.88014999999999 171.921 C -108.35714999999999 169.156 -107.61214999999999 166.444 -106.64014999999999 163.815 C -102.07414999999999 151.493 -93.56514999999999 140.602 -83.74815 129.725 C -75.72314999999999 120.83099999999999 -66.75215 111.88499999999999 -57.922149999999995 102.62799999999999 L -57.86214999999999 102.62799999999999 C -73.25415 121.64599999999999 -88.74215 152.85799999999998 -91.55715 174.76299999999998 C -61.950149999999994 188.53799999999998 -15.691149999999993 189.628 -0.00014999999999076863 189.628 C 15.923850000000009 189.628 62.74185000000001 188.968 91.55985000000001 174.774 C 88.74985000000001 152.869 73.25685000000001 121.649 57.86285000000001 102.628 L 57.92285000000001 102.628 C 66.75285000000001 111.884 75.72285000000001 120.831 83.74785000000001 129.724 C 93.56485 140.60199999999998 102.07385000000002 151.494 106.63785000000001 163.814 C 107.60585000000002 166.426 108.34785000000001 169.12 108.86785000000002 171.86599999999999 C 120.16985000000003 169.15599999999998 133.39785 163.55599999999998 145.62785000000002 156.761 C 156.69485000000003 150.613 167.09785000000002 143.528 174.99785000000003 137.394 C 162.60785000000004 119.416 127.34385000000003 91.864 92.35485000000003 69.622 C 110.52985000000002 79.117 131.11785000000003 88.94800000000001 149.41485000000003 99.244 C 162.87485000000004 106.818 175.11285000000004 114.622 184.49785000000003 123.332 C 185.55785000000003 124.315 186.58385000000004 125.317 187.57785000000004 126.338 C 195.07485000000003 118.892 202.55785000000003 111.66999999999999 208.01585000000003 104.95299999999999 C 213.94585000000004 97.65499999999999 216.99985000000004 91.255 216.99985000000004 86.63 L 217.46685000000005 86.63 C 217.45085000000006 86.58999999999999 217.43685000000005 86.548 217.41985000000005 86.50999999999999 C 214.32985000000005 78.95299999999999 209.89985000000004 74.26599999999999 205.00585000000007 72.53999999999999 C 204.72163000000006 72.44005999999999 204.44262000000006 72.32592 204.16985000000005 72.198 C 166.03985000000006 54.263999999999996 114.90785000000005 51.004999999999995 61.102850000000046 46.465999999999994 C 57.834850000000046 51.458999999999996 53.96485000000005 56.02199999999999 49.60885000000005 60.068999999999996 C 64.17485000000005 64.341 76.99885000000005 70.90299999999999 86.36185000000005 80.267 L 73.63585000000005 92.993 C 60.81885000000005 80.172 30.498850000000047 71.627 -0.001149999999952911 71.627 C -30.501149999999953 71.627 -60.82114999999995 80.172 -73.63814999999995 92.99 L -86.36414999999995 80.264 C -77.00414999999995 70.902 -64.18214999999995 64.34 -49.62014999999995 60.068 C -53.973149999999954 56.022 -57.836149999999954 51.45399999999999 -61.104149999999954 46.462999999999994 z M 220.55785 117.998 C 213.76185 126.06 205.71385 133.638 198.36085 140.99 C 198.28285 141.07000000000002 198.19485 141.15200000000002 198.11485 141.23000000000002 C 199.63885 144.668 200.63485 148.282 200.91485 152.098 C 212.09485 145.02 218.48485 132.18300000000002 220.55685 117.99800000000002 z M -220.56115 118 C -218.48915 132.185 -212.09715 145.02 -200.91915 152.098 C -200.64215000000002 148.328 -199.66715 144.75500000000002 -198.17515 141.35500000000002 C -198.34915 141.121 -198.53915 140.88700000000003 -198.70515 140.65200000000002 C -205.96915 133.40500000000003 -213.87115 125.94000000000001 -220.56115 118.00000000000001 z M 182.98085 154.033 C 174.81085000000002 160.15699999999998 164.99085 166.593 154.37085000000002 172.493 C 141.64285 179.565 128.00385000000003 185.823 114.59685000000002 189.10899999999998 C 118.58485000000002 190.01399999999998 122.99985000000002 190.509 127.99885000000002 190.509 C 141.88185000000001 190.509 156.35085 185.42399999999998 166.81085000000002 178.04399999999998 C 177.27085000000002 170.664 182.99885 161.39 182.99885 154.35399999999998 C 182.99885 154.249 182.98385000000002 154.13799999999998 182.98085 154.03199999999998 z M -182.88915 156.006 C -182.08915 162.798 -176.47615 171.228 -166.81415 178.046 C -156.35415 185.426 -141.88415 190.51 -128.00115 190.51 C -123.08715 190.51 -118.73715 190.03 -114.80114999999999 189.154 C -128.63315 185.899 -143.00115 179.664 -156.26315 172.561 C -166.25715 167.209 -175.35514999999998 161.678 -182.89015 156.007 z M -87.88415 195.57 C -83.60715 203.29399999999998 -69.98615000000001 211.557 -52.82415 216.69 C -35.46815 221.884 -15.158150000000006 224.373 -0.001150000000002649 224.373 C 15.041849999999997 224.373 35.35885 221.88299999999998 52.74485 216.689 C 69.75685 211.606 83.31485 203.44899999999998 87.73485 195.813 C 54.27284999999999 208.063 14.214849999999998 207.62599999999998 -0.0011500000000097543 207.62599999999998 C -14.45515000000001 207.62599999999998 -54.23115000000001 207.54599999999996 -87.88415 195.569 z" stroke-linecap="round" />
</g>
</svg>