<?xml version="1.0" encoding="UTF-8" standalone="no" ?>
<!DOCTYPE svg PUBLIC "-//W3C//DTD SVG 1.1//EN" "http://www.w3.org/Graphics/SVG/1.1/DTD/svg11.dtd">
<svg xmlns="http://www.w3.org/2000/svg" xmlns:xlink="http://www.w3.org/1999/xlink" version="1.1" width="9.1927mm" height="8.7857mm" viewBox="76.32079071430765 164.36407370404675 26.05797023729312 24.9044096282339" xml:space="preserve">
<desc>Created with Fabric.js 5.3.0</desc>
<defs>
</defs>
<g transform="matrix(0.6137825732 0 0 0.6137825732 89.349775833 176.8162785182)" id="3jIJY1Fv3xN_KV77SOvGC"  >
<path style="stroke: rgb(103,36,241); stroke-width: 0; stroke-dasharray: none; stroke-linecap: butt; stroke-dashoffset: 0; stroke-linejoin: miter; stroke-miterlimit: 4; fill: rgb(255,255,255); fill-rule: nonzero; opacity: 1;"  transform=" translate(0, 0)" d="M -1.2016 -19.57951 C -1.00248 -20.01119 -0.57049 -20.28765 -0.0950899999999999 -20.28765 C 0.3803000000000001 -20.28765 0.8122900000000001 -20.01118 1.0114100000000001 -19.5795 L 6.65713 -7.3398 L 20.22911 -5.73146 L 20.22911 -5.73146 C 20.66744 -5.67952 21.035539999999997 -5.37739 21.17195 -4.957590000000001 C 21.30836 -4.537800000000001 21.18816 -4.077000000000001 20.864089999999997 -3.7773200000000005 L 10.829239999999997 5.502169999999999 L 13.390949999999997 18.39435 L 13.390949999999997 18.39435 C 13.495359999999996 18.91979 13.284649999999997 19.45797 12.851239999999997 19.77284 C 12.417829999999997 20.087709999999998 11.840879999999997 20.121769999999998 11.373429999999997 19.86009 L -0.09521000000000335 13.43965 L -12.076710000000004 20.1472 L -12.076710000000004 20.1472 C -12.451870000000003 20.35722 -12.914920000000004 20.329890000000002 -13.262760000000004 20.077180000000002 C -13.610600000000003 19.82447 -13.779710000000003 19.39254 -13.695920000000005 18.970840000000003 L -11.019660000000005 5.502170000000003 L -20.815980000000003 -3.5567499999999974 L -20.815980000000003 -3.5567499999999974 C -21.182980000000004 -3.8961199999999976 -21.319090000000003 -4.417939999999997 -21.164610000000003 -4.893329999999997 C -21.010140000000003 -5.368719999999997 -20.593290000000003 -5.710859999999997 -20.096900000000005 -5.769689999999997 L -6.847540000000006 -7.339799999999997 z" stroke-linecap="round" />
</g>
</svg>