<?xml version="1.0" encoding="UTF-8" standalone="no" ?>
<!DOCTYPE svg PUBLIC "-//W3C//DTD SVG 1.1//EN" "http://www.w3.org/Graphics/SVG/1.1/DTD/svg11.dtd">
<svg xmlns="http://www.w3.org/2000/svg" xmlns:xlink="http://www.w3.org/1999/xlink" version="1.1" width="5.7492mm" height="5.2747mm" viewBox="45.960799590371096 99.975131050789 16.296936728327157 14.951800789222009" xml:space="preserve">
<desc>Created with Fabric.js 5.3.0</desc>
<defs>
</defs>
<g transform="matrix(0.0332184961 0 0 0.0332184961 54.1092679545 107.4510314454)" id="9e7prmweaf2kcswuFS3zY"  >
<filter id="SVGID_13" y="-25.39927317%" height="150.79854634%" x="-24.92448815%" width="149.8489763%" >
	<feGaussianBlur in="SourceAlpha" stdDeviation="4.252"></feGaussianBlur>
	<feOffset dx="14.173" dy="14.173" result="oBlur" ></feOffset>
	<feFlood flood-color="rgb(0,0,0)" flood-opacity="1"/>
	<feComposite in2="oBlur" operator="in" />
	<feMerge>
		<feMergeNode></feMergeNode>
		<feMergeNode in="SourceGraphic"></feMergeNode>
	</feMerge>
</filter>
<path style="stroke: none; stroke-width: 1; stroke-dasharray: none; stroke-linecap: butt; stroke-dashoffset: 0; stroke-linejoin: miter; stroke-miterlimit: 4; fill: rgb(223,193,63); fill-rule: nonzero; opacity: 1;filter: url(#SVGID_13);" vector-effect="non-scaling-stroke"  transform=" translate(-255.9924592175, -256.000741262)" d="M 311.133 257.95 C 311.6893795018858 261.9114511995954 310.64829964645816 265.93160212446475 308.23904718213475 269.12505735666167 C 305.8297947178114 272.3185125888586 302.2499731333763 274.4233494347252 298.28799999999995 274.976 L 151.03999999999996 295.586 L 129.70999999999998 328.108 L 47.07299999999998 339.678 L 68.40299999999998 307.11 L 43.85599999999998 310.55 C 43.57799999999998 310.55 43.30099999999998 310.67 43.01299999999998 310.71500000000003 C 42.314518234011985 310.81178111411754 41.61015427868982 310.85989705793463 40.90499999999998 310.85900000000004 C 32.95038339052562 310.9040178139003 26.329885752109075 304.7601467101344 25.781548339447482 296.8243242518652 C 25.233210926785894 288.88850179359605 30.94578672234092 281.8924587048203 38.830999999999975 280.843 C 39.12099999999998 280.843 39.39799999999998 280.843 39.68599999999998 280.76500000000004 L 64.23299999999998 277.32700000000006 L 34.78299999999997 251.81500000000005 L 117.36499999999997 240.26800000000006 L 146.81499999999997 265.7780000000001 L 294.07499999999993 245.17000000000007 C 294.77312056069667 245.07285994940744 295.47715380531537 245.02440963119685 296.18199999999996 245.02500000000006 C 303.6870705639934 245.01319318164474 310.0593723870072 250.52039952544246 311.13499999999993 257.94800000000004 z M 274.429 219.404 C 277.1886456702519 215.16213880213098 280.9035425736268 211.62567476375642 285.27599999999995 209.078 C 289.34475534412013 206.74377972744315 294.0205473881953 205.684741743984 298.698 206.038 C 303.57719602721045 206.50057955540333 308.24818421563776 208.24142118787955 312.23999999999995 211.085 C 317.0008089192188 214.46028962784206 321.0521832896279 218.73794841041928 324.16399999999993 223.67499999999998 C 327.952305676444 229.57008832260522 330.78272388350405 236.0281400724128 332.54999999999995 242.809 C 334.4526906759259 249.98018527340554 335.3155003118514 257.3874834553653 335.11199999999997 264.804 C 334.95293436872237 271.5966710677591 333.7751457683341 278.32698795251923 331.61799999999994 284.77000000000004 C 329.7809692762487 290.38711342827776 326.88174429336635 295.59892864340765 323.0779999999999 300.122 C 319.79727153525397 304.0459556320574 315.50987590715357 307.0023987389365 310.67599999999993 308.67400000000004 C 306.2172346543903 310.13849394908135 301.420947639415 310.2273463420213 296.91099999999994 308.92900000000003 C 292.25367083932656 307.53581131919094 287.97480419756806 305.10022242671937 284.39899999999994 301.807 C 282.29950345431166 299.92265341731587 280.37989593026055 297.8470401195975 278.66499999999996 295.607 L 246.38699999999997 300.12100000000004 C 248.39583132700778 305.59729653530184 250.76776456011447 310.9334781595854 253.48699999999997 316.09400000000005 C 258.3771395225663 325.4941183071981 264.66764423977446 334.09635653326023 272.14300000000003 341.6060000000001 C 278.91414303829566 348.48783126505333 287.0538060656893 353.8724842517433 296.03599999999994 357.41200000000003 C 304.8222390393519 360.82493038718815 314.4141782947723 361.59653980658277 323.6329999999999 359.63200000000006 C 333.65195885721346 357.3088937489827 342.7875287170337 352.14352935389775 349.9429999999999 344.7560000000001 C 357.84099999999995 336.9030000000001 364.36299999999994 326.4980000000001 369.05499999999995 314.2420000000001 C 374.095054831517 300.7896710384609 376.90534266818366 286.60481073788196 377.37499999999994 272.24700000000007 C 377.98413328273296 256.4177799465395 376.13551250494095 240.58980788559074 371.89499999999987 225.327 C 368.0687453018709 211.0539388409619 361.814086099329 197.54603990770607 353.40499999999986 185.39499999999995 C 345.8049999999999 174.66900000000004 336.98799999999994 166.44900000000004 327.6249999999999 160.99200000000005 C 319.1933510343753 155.90335621945758 309.5106131000464 153.26468720223468 299.6629999999999 153.37200000000004 C 290.24340462585735 153.66721317044244 281.1131134320245 156.69628230157247 273.3849999999999 162.09000000000003 C 265.16868563577225 167.8560219980738 258.2909956249741 175.32444640503877 253.21999999999989 183.98700000000002 C 247.77961372295493 193.17558563212404 243.73858575437248 203.12345731858602 241.22999999999988 213.503 C 239.47843160487648 220.5631798866811 238.29135304862862 227.75152572433177 237.67999999999998 234.99999999999997 L 268.872 230.63 C 270.2381904630071 226.66640416459063 272.1056723093909 222.89380182384832 274.42900000000003 219.404 z M 472.734 184.42 C 461.808 149.146 445.447 119.66299999999998 425.892 97.04599999999999 C 407.335 75.52799999999999 386.348 60.785999999999994 364.774 52.83299999999999 C 344.619 45.42299999999999 324.21 44.09299999999999 304.821 48.584999999999994 C 286.76300000000003 52.788999999999994 269.625 62.050999999999995 254.21800000000002 76.205 C 239.79800000000003 89.41499999999999 228.12800000000001 105.831 219.03300000000002 124.012 C 210.20340700812866 141.96330436716477 203.72018318321565 160.97605562560585 199.743 180.58200000000002 C 195.6353249125881 200.5403332931463 193.6721794987511 220.88047756212617 193.88700000000003 241.256 L 216.46900000000002 238.096 C 216.83705852147156 224.51600108020344 218.5273772475326 211.00416856896786 221.51600000000002 197.75200000000007 C 224.8341984123178 182.77501450691338 230.20918721855833 168.32931143299146 237.48800000000003 154.82600000000002 C 244.85300000000004 141.42600000000002 254.20400000000004 129.70200000000003 265.485 120.73900000000002 C 277.375 111.29900000000002 290.365 105.75300000000001 303.785 104.09900000000002 C 317.95000000000005 102.32500000000002 332.55800000000005 104.84300000000002 346.723 111.60900000000002 C 361.586 118.70900000000002 375.807 130.389 388.208 146.38300000000004 C 401.064 162.95500000000004 411.723 183.84300000000005 418.86800000000005 208.30000000000004 C 425.93658867481065 232.5192480655765 428.8909438761197 257.75295696462933 427.60800000000006 282.94999999999993 C 426.35400000000004 307.00000000000006 421.2080000000001 329.37200000000007 412.88800000000003 348.60600000000005 C 404.84600000000006 367.18600000000004 394.03100000000006 382.49300000000005 381.064 393.48600000000005 C 368.75100000000003 403.9560000000001 354.71900000000005 410.40100000000007 339.601 412.14200000000005 C 325.48656138858956 413.65430133088233 311.2302374929052 411.1952993227838 298.438 405.04200000000003 C 286.125 399.32000000000005 274.61199999999997 390.557 264.408 379.53200000000004 C 254.10437973379553 368.25980225902197 245.44420980246161 355.589035049194 238.68400000000003 341.89500000000004 C 232.55001969693046 329.55813606392564 227.67795414772854 316.6331914375253 224.14200000000008 303.317 L 201.65800000000002 306.423 C 206.18899399063395 326.3665621149881 212.88399898595517 345.7557874903492 221.624 364.2459999999999 C 230.11337406899636 382.2763331805315 240.92804165338464 399.11693031548475 253.79200000000003 414.3379999999999 C 266.78200000000004 429.52399999999994 281.612 442.16799999999995 297.706 451.131 C 314.886 460.705 333.733 466.195 353.411 465.996 C 374.674 465.786 394.851 458.974 412.931 446.21799999999996 C 432.287 432.56399999999996 448.936 412.32099999999997 461.548 386.78599999999994 C 474.79200000000003 359.96599999999995 483.245 327.99799999999993 485.596 293.14599999999996 C 488.0033663781392 256.4113826225947 483.6457957991013 219.54693207995592 472.74000000000007 184.38600000000008 z" stroke-linecap="round" />
</g>
</svg>