<?xml version="1.0" encoding="UTF-8" standalone="no" ?>
<!DOCTYPE svg PUBLIC "-//W3C//DTD SVG 1.1//EN" "http://www.w3.org/Graphics/SVG/1.1/DTD/svg11.dtd">
<svg xmlns="http://www.w3.org/2000/svg" xmlns:xlink="http://www.w3.org/1999/xlink" version="1.1" width="6.2335mm" height="6.8267mm" viewBox="123.39890215876382 95.31473764653471 17.66968281120612 19.3513639115508" xml:space="preserve">
<desc>Created with Fabric.js 4.6.0</desc>
<defs>
</defs>
<g transform="matrix(-0.04 0 0 0.04 132.23 104.99)" id="iMnmhK2YuUQDedjXvXSkA"  >
<filter id="SVGID_22" y="-24%" height="148%" x="-25%" width="150%" >
	<feGaussianBlur in="SourceAlpha" stdDeviation="4.25"></feGaussianBlur>
	<feOffset dx="-11.34" dy="-11.34" result="oBlur" ></feOffset>
	<feFlood flood-color="rgb(0,0,0)" flood-opacity="1"/>
	<feComposite in2="oBlur" operator="in" />
	<feMerge>
		<feMergeNode></feMergeNode>
		<feMergeNode in="SourceGraphic"></feMergeNode>
	</feMerge>
</filter>
<path style="stroke: none; stroke-width: 1; stroke-dasharray: none; stroke-linecap: butt; stroke-dashoffset: 0; stroke-linejoin: miter; stroke-miterlimit: 4; fill: rgb(223,193,63); fill-rule: nonzero; opacity: 1;filter: url(#SVGID_22);" vector-effect="non-scaling-stroke"  transform=" translate(0, 0)" d="M 51.85635 -234.7918 C -39.50365 -234.1778 -141.81765000000001 -180.0978 -182.07865 -101.62379999999999 C -240.10165 11.466200000000015 -210.72165 120.14020000000002 -147.03865000000002 234.76919999999998 L 43.531349999999975 234.76719999999997 C 44.257349999999974 234.79519999999997 44.994349999999976 234.80919999999998 45.753349999999976 234.78719999999998 C 45.89534999999998 234.78519999999997 46.03334999999998 234.7722 46.17634999999998 234.76719999999997 L 100.00234999999998 234.76719999999997 C 89.51634999999997 231.26519999999996 79.12034999999997 226.87319999999997 68.91734999999997 221.72019999999998 C 78.98934999999997 204.73719999999997 71.27134999999997 177.32219999999998 45.74934999999997 178.01019999999997 C 35.10934999999997 178.30019999999996 27.56934999999997 183.30519999999996 23.116349999999972 190.23219999999998 C 13.658349999999972 181.8352 4.830349999999971 172.75419999999997 -3.3506500000000266 163.16419999999997 C 11.551349999999973 147.17119999999997 4.984349999999974 114.02619999999996 -23.040650000000028 114.78419999999997 C -27.697650000000028 114.90919999999997 -31.75665000000003 115.94119999999997 -35.227650000000025 117.63919999999997 C -40.86065000000003 107.72919999999998 -45.889650000000024 97.58219999999997 -50.26265000000002 87.31119999999997 C -31.15665000000002 73.01819999999998 -36.56765000000002 35.09419999999997 -66.50665000000002 35.87619999999997 C -67.80865000000003 29.579199999999968 -68.85665000000002 23.31219999999997 -69.63065000000002 17.10319999999997 C -70.18065000000001 12.68819999999997 -70.58765000000001 8.30819999999997 -70.86465000000001 3.9681999999999693 C -43.58465000000001 -1.7788000000000306 -42.08465000000001 -42.378800000000034 -66.36465000000001 -50.66680000000003 C -64.23165000000002 -59.07880000000003 -61.40265000000001 -67.07980000000003 -57.857650000000014 -74.55880000000003 L -57.81965000000002 -74.63880000000003 C -54.09665000000002 -72.45880000000002 -49.503650000000015 -71.22380000000003 -44.03165000000001 -71.37180000000004 C -19.536650000000012 -72.01380000000003 -12.571650000000012 -99.39180000000003 -23.127650000000013 -114.58680000000004 C -18.91965000000001 -117.75180000000005 -14.495650000000014 -120.83880000000003 -9.795650000000013 -123.82080000000003 C -8.183650000000013 -124.84380000000003 -6.535650000000013 -125.80080000000004 -4.863650000000012 -126.71780000000004 C -2.727650000000012 -115.67780000000005 5.644349999999987 -106.22280000000003 20.26234999999999 -106.61780000000005 C 39.62234999999999 -107.12380000000005 48.03034999999999 -124.34280000000004 45.49234999999999 -139.04080000000005 C 56.19234999999999 -139.56080000000006 66.18234999999999 -138.64080000000004 75.28034999999998 -136.56580000000005 C 72.01634999999999 -123.50580000000005 79.05034999999998 -107.71580000000006 96.38635 -108.18580000000006 C 104.23034999999999 -108.39080000000006 109.96234999999999 -111.81580000000005 113.58935 -116.69880000000006 C 114.97935 -115.34080000000006 116.29135 -113.93580000000006 117.51635 -112.49080000000006 C 122.60935 -106.48080000000006 126.30135 -99.80680000000007 128.42635 -92.59780000000006 C 112.23935000000002 -87.36980000000007 111.59835000000001 -62.624800000000064 126.50635000000001 -56.66580000000006 C 123.45935000000001 -48.511800000000065 118.54935000000002 -40.035800000000066 111.42835000000001 -31.462800000000062 C 109.02635000000001 -34.22980000000006 105.40835000000001 -36.026800000000065 100.56835000000001 -35.895800000000065 C 86.62535000000001 -35.51580000000006 82.80435000000001 -19.729800000000065 89.08835 -11.282800000000066 C 82.03635 -6.7398000000000655 75.40835000000001 -3.916800000000066 69.37635 -2.4228000000000662 C 70.02235 -8.420800000000067 66.47335 -14.850800000000067 58.710350000000005 -14.642800000000067 C 51.38235 -14.442800000000068 47.81035000000001 -8.534800000000068 47.97335 -2.858800000000066 C 47.728350000000006 -2.948800000000066 47.48035 -3.036800000000066 47.24035000000001 -3.1318000000000663 C 43.34635000000001 -5.256800000000066 39.71435000000001 -8.511800000000067 36.47035000000001 -13.221800000000066 C 46.47035000000001 -16.171800000000065 46.63035000000001 -31.721800000000066 36.92835000000001 -34.53180000000006 C 38.34235000000001 -37.728800000000064 40.338350000000005 -41.11380000000006 43.02535000000001 -44.62580000000006 C 45.54135000000001 -42.95580000000006 49.57835000000001 -41.83080000000006 55.15835000000001 -41.90580000000006 C 67.72035000000001 -42.06580000000006 72.50835000000001 -48.075800000000065 69.54535000000001 -52.58580000000006 C 69.57535000000001 -52.581800000000065 69.60335000000002 -52.58080000000006 69.63335000000001 -52.578800000000065 C 69.57735000000001 -52.62580000000006 69.52035000000001 -52.66880000000007 69.46535 -52.715800000000065 C 68.66035 -53.87380000000007 67.33335 -54.925800000000066 65.49035 -55.74580000000007 C 56.000350000000005 -62.19080000000007 44.884350000000005 -64.52380000000007 34.76035 -63.04380000000007 L 34.47035 -63.31880000000007 C 34.350350000000006 -63.19280000000007 34.24035000000001 -63.06580000000007 34.12035 -62.938800000000064 C 13.593350000000001 -59.59880000000007 -2.5876499999999965 -40.490800000000064 7.726350000000004 -8.188800000000064 C 46.00135 111.68119999999993 250.08035 10.147199999999934 207.45935 -119.73880000000005 C 181.27635 -199.53380000000004 128.09635 -233.93180000000007 56.19735 -234.79180000000005 L 56.19735 -234.78180000000006 C 54.75335 -234.79880000000006 53.30535 -234.80180000000007 51.85535 -234.79380000000006 z M 62.85435 -180.3818 C 77.09635 -180.0668 82.21735 -165.7918 78.22935 -155.1118 C 69.28635 -157.0368 59.75534999999999 -157.9998 49.77435 -157.8758 C 47.97235 -157.8518 46.15435 -157.7888 44.324349999999995 -157.6958 C 42.449349999999995 -167.9178 48.257349999999995 -180.00379999999998 61.76134999999999 -180.3758 C 62.13134999999999 -180.3858 62.495349999999995 -180.3878 62.85435 -180.3808 z M -26.80765 -160.7038 C -16.547649999999997 -160.4768 -11.03065 -153.0018 -10.22965 -144.8478 C -21.041649999999997 -140.1558 -30.73365 -134.2978 -39.31765 -127.47380000000001 C -50.63765 -136.6198 -46.84465 -160.1938 -27.90165 -160.70080000000002 C -27.53165 -160.7108 -27.16665 -160.71280000000002 -26.80765 -160.7048 z M 141.55435 -136.9668 C 162.47435000000002 -136.5038 163.73135 -105.91080000000001 145.30734999999999 -100.8568 C 142.33735 -109.49680000000001 137.75134999999997 -117.52080000000001 131.77734999999998 -124.5708 C 130.13735 -126.50380000000001 128.40134999999998 -128.3658 126.57134999999998 -130.1548 C 129.52335 -134.0608 134.14934999999997 -136.79479999999998 140.46134999999998 -136.9648 C 140.83135 -136.9748 141.19535 -136.9748 141.55434999999997 -136.9668 z M -79.35865 -89.0508 C -76.67065 -88.9908 -74.31264999999999 -88.43079999999999 -72.27465 -87.4948 C -73.12764999999999 -85.8688 -73.95465 -84.2248 -74.74164999999999 -82.5628 C -79.22165 -73.1148 -82.66465 -63.096799999999995 -85.13865 -52.654799999999994 C -104.04365 -56.6508 -102.49665 -88.4588 -80.45065 -89.0488 C -80.08064999999999 -89.0588 -79.71665 -89.0588 -79.35764999999999 -89.0508 z M 144.86835 -52.4848 C 162.06234999999998 -47.0648 159.95835 -17.071800000000003 138.56535 -16.5148 C 133.50135 -16.3778 129.52535 -17.951800000000002 126.62535 -20.5148 C 135.14235 -30.9948 141.19535 -41.7528 144.86935 -52.4848 z M -93.45565 1.0192 C -92.74265000000001 1.0352000000000001 -92.05265 1.0862 -91.37765 1.1592000000000002 C -90.83265 1.4792000000000003 -90.27165000000001 1.7772000000000001 -89.69265 2.0562000000000005 C -89.40065 7.801200000000001 -88.89865 13.590200000000001 -88.17465 19.4112 C -87.22665 27.0212 -85.88865 34.6862 -84.22865 42.3682 C -84.86865 42.9232 -85.47465 43.5082 -86.05265 44.1182 C -88.59265 45.214200000000005 -91.49965 45.8812 -94.79065 45.9662 C -123.76265000000001 46.7462 -123.75865 1.8081999999999994 -94.79265 1.0232000000000028 C -94.34065 1.0112000000000028 -93.89264999999999 1.0092000000000028 -93.45465 1.0192000000000028 z M 99.84735 3.9722 C 103.78035 12.696200000000001 99.44335000000001 25.6482 86.83535 25.979200000000002 C 79.14535000000001 26.1872 74.54235 21.5362 73.00535 15.852200000000002 C 81.67035000000001 13.792200000000001 90.74335 9.880200000000002 99.84735 3.972200000000001 z M -70.46265 92.5242 C -69.78765 92.58619999999999 -69.10265 92.63419999999999 -68.40265 92.65419999999999 C -62.768649999999994 106.2062 -56.08664999999999 119.54119999999999 -48.40464999999999 132.4442 C -48.44764999999999 132.5592 -48.48864999999999 132.67419999999998 -48.53064999999999 132.7912 C -52.232649999999985 136.2032 -57.27464999999999 138.4472 -63.68764999999999 138.6132 C -91.62965 139.36520000000002 -93.88064999999999 99.6002 -70.46064999999999 92.5232 z M -20.93865 171.4382 C -9.34865 185.44819999999999 3.559350000000002 198.5142 17.716350000000002 210.2382 C 13.280350000000002 217.2622 5.699350000000003 222.3502 -5.035649999999997 222.6282 C -34.81565 223.4342 -40.347649999999994 186.0082 -21.662649999999996 171.49419999999998 C -21.419649999999997 171.4782 -21.178649999999998 171.45919999999998 -20.938649999999996 171.43819999999997 z" stroke-linecap="round" />
</g>
</svg>