<?xml version="1.0" encoding="UTF-8" standalone="no" ?>
<!DOCTYPE svg PUBLIC "-//W3C//DTD SVG 1.1//EN" "http://www.w3.org/Graphics/SVG/1.1/DTD/svg11.dtd">
<svg xmlns="http://www.w3.org/2000/svg" xmlns:xlink="http://www.w3.org/1999/xlink" version="1.1" width="63mm" height="88mm" viewBox="0 0 178.58268 249.44882" xml:space="preserve">
<desc>Created with Fabric.js 4.6.0</desc>
<defs>
</defs>
<g transform="matrix(0.87 0 0 0.49 89.21 194.15)" id="_EsD0jtIfcrhAQysz0pl7"  >
<path style="stroke: rgb(209,179,15); stroke-opacity: 0.56; stroke-width: 1.41732; stroke-dasharray: none; stroke-linecap: butt; stroke-dashoffset: 0; stroke-linejoin: miter; stroke-miterlimit: 4; fill: none; fill-rule: nonzero; opacity: 1;" vector-effect="non-scaling-stroke"  transform=" translate(0, 0)" d="M -95.26334 -76.18224 C -95.26334 -81.24286 -94.13371 -86.09621999999999 -92.12295 -89.67461999999999 C -90.11219 -93.25301999999999 -87.38501000000001 -95.26334999999999 -84.54137 -95.26334999999999 L 85.07235 -95.26334999999999 L 85.07235 -95.26334999999999 C 87.77517 -95.26334999999999 90.36729 -93.35257999999999 92.27847 -89.95139999999999 C 94.18965 -86.55020999999999 95.26334 -81.93721 95.26334 -77.12720999999999 L 95.26334 78.71037000000001 L 95.26334 78.71037000000001 C 95.26334 87.85232 91.09897 95.26333000000001 85.96197 95.26333000000001 L -85.36093000000001 95.26333000000001 L -85.36093000000001 95.26333000000001 C -90.82988000000002 95.26333000000001 -95.26334000000001 87.37343000000001 -95.26334000000001 77.64075000000001 z" stroke-linecap="round" />
</g>
<g transform="matrix(0.83 0 0 0.45 89.16 194.02)" id="XMnhmxet6158A64CR_7ew"  >
<path style="stroke: rgb(209,179,15); stroke-width: 1.41732; stroke-dasharray: none; stroke-linecap: butt; stroke-dashoffset: 0; stroke-linejoin: miter; stroke-miterlimit: 4; fill: rgb(30,29,26); fill-opacity: 0.72; fill-rule: nonzero; opacity: 1;" vector-effect="non-scaling-stroke"  transform=" translate(0, 0)" d="M -95.26334 -81.22243 C -95.26334 -88.97701 -91.85589 -95.26335 -87.65258 -95.26335 L 87.26836 -95.26335 L 87.26836 -95.26335 C 91.68387 -95.26335 95.26335 -88.65965 95.26335 -80.51358 L 95.26335 80.46891000000001 L 95.26335 80.46891000000001 C 95.26335 88.63964000000001 91.67304 95.26333000000001 87.24416000000001 95.26333000000001 L -86.23706 95.26333000000001 L -86.23706 95.26333000000001 C -91.22214 95.26333000000001 -95.26334 87.80781000000002 -95.26334 78.61096 z" stroke-linecap="round" />
</g>
<g transform="matrix(0.03 0 0 0.03 14.13 142.28)" id="-fdEU9f_6HAf9wE4pFehm"  >
<filter id="SVGID_21" y="-25%" height="150%" x="-25%" width="150%" >
	<feGaussianBlur in="SourceAlpha" stdDeviation="4.25"></feGaussianBlur>
	<feOffset dx="14.17" dy="14.17" result="oBlur" ></feOffset>
	<feFlood flood-color="rgb(0,0,0)" flood-opacity="1"/>
	<feComposite in2="oBlur" operator="in" />
	<feMerge>
		<feMergeNode></feMergeNode>
		<feMergeNode in="SourceGraphic"></feMergeNode>
	</feMerge>
</filter>
<path style="stroke: none; stroke-width: 1; stroke-dasharray: none; stroke-linecap: butt; stroke-dashoffset: 0; stroke-linejoin: miter; stroke-miterlimit: 4; fill: rgb(226,204,107); fill-rule: nonzero; opacity: 1;filter: url(#SVGID_21);" vector-effect="non-scaling-stroke"  transform=" translate(-256.66, -257.95)" d="M 286.744 21.547 C 285.11100000000005 23.845 283.456 26.119 281.78700000000003 28.381 C 319.821 80.225 385.495 104.605 454.96500000000003 110.855 C 468.07500000000005 104.465 481.127 98.89200000000001 493.88300000000004 94.275 L 493.88300000000004 21.548 L 286.74300000000005 21.548 z M 261.05400000000003 30.98 C 240.21400000000003 41.813 222.747 54.547 212.04700000000003 80.156 C 249.43200000000002 146.848 324.65500000000003 183.022 384.65700000000004 184.506 C 396.482 181.306 409.634 171.339 420.987 158.466 C 429.27700000000004 149.066 436.55 138.31400000000002 442.197 128.311 C 369.885 119.79100000000001 300.254 91.32900000000001 261.055 30.98100000000001 z M 19.11 97.184 L 19.11 126.584 L 170.68 226.332 C 228.185 263.034 288.047 263.06 325.42 249.564 L 327.096 248.959 L 494.211 253.979 L 494.211 228.966 L 327.81100000000004 224.58100000000002 C 273.67100000000005 246.29100000000003 215.90300000000002 230.00600000000003 169.65100000000004 197.745 L 19.11 97.184 z M 209.176 110.211 C 190.962 128.235 172.07 145.963 153.041 164.18099999999998 L 180.267 182.36599999999999 L 180.343 182.41899999999998 C 223.62 212.606 275.233 226.476 322.64300000000003 206.57899999999998 L 323.276 206.313 C 326.75600000000003 202.666 330.31600000000003 199.06699999999998 333.958 195.52599999999998 C 287.63 182.67799999999997 241.03000000000003 153.97299999999998 209.17800000000003 110.21199999999999 z M 108.69599999999998 207.913 C 85.89199999999998 231.395 63.487999999999985 256.52 42.41399999999999 284.713 C 60.77699999999999 311.119 76.23599999999999 332.31100000000004 101.00399999999999 357.62300000000005 L 141.01399999999998 344.07300000000004 L 143.69699999999997 353.521 C 160.29199999999997 411.934 209.19299999999998 456.48400000000004 268.5 478.745 C 302.563 491.531 339.837 496.811 375.92 493.29 C 399.336 487.16 397.846 449.305 379.39000000000004 425.682 C 360.89500000000004 405.96500000000003 344.46400000000006 384.47200000000004 330.34400000000005 361.68600000000004 C 302.63400000000007 363.442 287.607 377.136 267.92400000000004 397.05600000000004 L 254.63100000000003 383.922 C 272.946 365.387 291.93800000000005 348.908 320.091 344.17400000000004 C 315.601 336.047 311.401 327.77900000000005 307.499 319.389 C 273.742 309.729 253.60200000000003 318.867 226.187 333.353 L 217.45700000000002 316.829 C 237.937 306.009 258.363 296.863 283.01700000000005 296.993 C 283.81200000000007 296.997 284.61100000000005 297.01 285.4150000000001 297.033 C 289.61500000000007 297.158 293.94000000000005 297.55600000000004 298.4070000000001 298.257 C 295.4830000000001 290.877 292.7770000000001 283.42 290.3150000000001 275.895 C 251.7290000000001 279.155 205.42300000000012 270.67499999999995 160.6250000000001 242.08499999999998 L 160.5710000000001 242.04999999999998 L 108.69600000000011 207.91199999999998 z" stroke-linecap="round" />
</g>
<g transform="matrix(-0.03 0 0 0.03 163.72 142.96)" id="I5ZZTU1PMzMYOFJH2u-IA"  >
<filter id="SVGID_22" y="-25%" height="150%" x="-25%" width="150%" >
	<feGaussianBlur in="SourceAlpha" stdDeviation="4.25"></feGaussianBlur>
	<feOffset dx="-14.17" dy="14.17" result="oBlur" ></feOffset>
	<feFlood flood-color="rgb(0,0,0)" flood-opacity="1"/>
	<feComposite in2="oBlur" operator="in" />
	<feMerge>
		<feMergeNode></feMergeNode>
		<feMergeNode in="SourceGraphic"></feMergeNode>
	</feMerge>
</filter>
<path style="stroke: none; stroke-width: 1; stroke-dasharray: none; stroke-linecap: butt; stroke-dashoffset: 0; stroke-linejoin: miter; stroke-miterlimit: 4; fill: rgb(226,204,107); fill-rule: nonzero; opacity: 1;filter: url(#SVGID_22);" vector-effect="non-scaling-stroke"  transform=" translate(-256.66, -257.95)" d="M 286.744 21.547 C 285.11100000000005 23.845 283.456 26.119 281.78700000000003 28.381 C 319.821 80.225 385.495 104.605 454.96500000000003 110.855 C 468.07500000000005 104.465 481.127 98.89200000000001 493.88300000000004 94.275 L 493.88300000000004 21.548 L 286.74300000000005 21.548 z M 261.05400000000003 30.98 C 240.21400000000003 41.813 222.747 54.547 212.04700000000003 80.156 C 249.43200000000002 146.848 324.65500000000003 183.022 384.65700000000004 184.506 C 396.482 181.306 409.634 171.339 420.987 158.466 C 429.27700000000004 149.066 436.55 138.31400000000002 442.197 128.311 C 369.885 119.79100000000001 300.254 91.32900000000001 261.055 30.98100000000001 z M 19.11 97.184 L 19.11 126.584 L 170.68 226.332 C 228.185 263.034 288.047 263.06 325.42 249.564 L 327.096 248.959 L 494.211 253.979 L 494.211 228.966 L 327.81100000000004 224.58100000000002 C 273.67100000000005 246.29100000000003 215.90300000000002 230.00600000000003 169.65100000000004 197.745 L 19.11 97.184 z M 209.176 110.211 C 190.962 128.235 172.07 145.963 153.041 164.18099999999998 L 180.267 182.36599999999999 L 180.343 182.41899999999998 C 223.62 212.606 275.233 226.476 322.64300000000003 206.57899999999998 L 323.276 206.313 C 326.75600000000003 202.666 330.31600000000003 199.06699999999998 333.958 195.52599999999998 C 287.63 182.67799999999997 241.03000000000003 153.97299999999998 209.17800000000003 110.21199999999999 z M 108.69599999999998 207.913 C 85.89199999999998 231.395 63.487999999999985 256.52 42.41399999999999 284.713 C 60.77699999999999 311.119 76.23599999999999 332.31100000000004 101.00399999999999 357.62300000000005 L 141.01399999999998 344.07300000000004 L 143.69699999999997 353.521 C 160.29199999999997 411.934 209.19299999999998 456.48400000000004 268.5 478.745 C 302.563 491.531 339.837 496.811 375.92 493.29 C 399.336 487.16 397.846 449.305 379.39000000000004 425.682 C 360.89500000000004 405.96500000000003 344.46400000000006 384.47200000000004 330.34400000000005 361.68600000000004 C 302.63400000000007 363.442 287.607 377.136 267.92400000000004 397.05600000000004 L 254.63100000000003 383.922 C 272.946 365.387 291.93800000000005 348.908 320.091 344.17400000000004 C 315.601 336.047 311.401 327.77900000000005 307.499 319.389 C 273.742 309.729 253.60200000000003 318.867 226.187 333.353 L 217.45700000000002 316.829 C 237.937 306.009 258.363 296.863 283.01700000000005 296.993 C 283.81200000000007 296.997 284.61100000000005 297.01 285.4150000000001 297.033 C 289.61500000000007 297.158 293.94000000000005 297.55600000000004 298.4070000000001 298.257 C 295.4830000000001 290.877 292.7770000000001 283.42 290.3150000000001 275.895 C 251.7290000000001 279.155 205.42300000000012 270.67499999999995 160.6250000000001 242.08499999999998 L 160.5710000000001 242.04999999999998 L 108.69600000000011 207.91199999999998 z" stroke-linecap="round" />
</g>
</svg>