<?xml version="1.0" encoding="UTF-8" standalone="no" ?>
<!DOCTYPE svg PUBLIC "-//W3C//DTD SVG 1.1//EN" "http://www.w3.org/Graphics/SVG/1.1/DTD/svg11.dtd">
<svg xmlns="http://www.w3.org/2000/svg" xmlns:xlink="http://www.w3.org/1999/xlink" version="1.1" width="499.6936812488102" height="391.48046999999997" viewBox="71.6565303791881 153.83910098152705 499.6936812488102 391.48046999999997" xml:space="preserve">
<desc>Created with Fabric.js 5.3.0</desc>
<defs>
</defs>
<g transform="matrix(1 0 0 1 321.5033710036 349.5793359815)" id="_tBxbUwtD56-nCempKS_4"  >
<path style="stroke: none; stroke-width: 1; stroke-dasharray: none; stroke-linecap: butt; stroke-dashoffset: 0; stroke-linejoin: miter; stroke-miterlimit: 4; fill: rgb(0,0,0); fill-rule: nonzero; opacity: 1;"  transform=" translate(-249.3468406244, -195.240235)" d="M 493.76833 344.61252 C 499.78475 353.67964 500.32851999999997 365.32042 495.18354999999997 374.90892 C 490.03857999999997 384.49742000000003 480.03824999999995 390.48047 469.15662 390.48047 L 31.469949999999983 390.48047 C 19.876219999999982 390.48047 9.221489999999982 384.10589000000004 3.7398299999999836 373.88993000000005 C -1.7418300000000162 363.67397000000005 -1.1624800000000164 351.27143000000007 5.247659999999984 341.61096000000003 L 222.748 13.824480000000051 C 228.47709999999998 5.190380000000051 238.15019999999998 5.1514348342607263e-14 248.51217 5.1514348342607263e-14 C 258.87414 5.1514348342607263e-14 268.54724 5.190370000000051 274.27634 13.824480000000051 z M 249.73924 358.90224 C 335.47591 358.65171 404.70069 277.48805 404.70069 277.48805 C 404.70069 277.48805 344.23285 183.99636999999998 249.73924 183.39853999999997 C 155.24563 182.80070999999998 93.06960000000001 277.48805 93.06960000000001 277.48805 C 93.06960000000001 277.48805 164.00258000000002 359.15277 249.73924 358.90224 z" stroke-linecap="round" />
</g>
<g transform="matrix(1 0 0 1 321.6224429507 425.4882425127)" id="E3rQs1g4w8K9lHtXRxoAr"  >
<path style="stroke: rgb(147,207,155); stroke-width: 0; stroke-dasharray: none; stroke-linecap: butt; stroke-dashoffset: 0; stroke-linejoin: miter; stroke-miterlimit: 4; fill: rgb(0,0,0); fill-rule: nonzero; opacity: 1;"  transform=" translate(-57.72452, -58.65552)" d="M 57.72452 0 C 89.58845 0 115.44904 26.27767 115.44904 58.65552 C 115.44904 91.03336 89.58846 117.31104 57.72452 117.31104 C 25.86059 117.31104 0 91.03337 0 58.65552 C 0 26.277680000000004 25.86058 0 57.72452 0 z M 57.3453 43.69641 C 57.3453 54.24472 65.90625 62.80567 76.45456 62.80567 C 87.00287 62.80567 95.56381999999999 54.24472 95.56381999999999 43.69641 C 95.56381999999999 33.1481 87.00286999999999 24.58715 76.45455999999999 24.58715 C 65.90624999999999 24.58715 57.34529999999999 33.1481 57.34529999999999 43.69641 z" stroke-linecap="round" />
</g>
</svg>