<?xml version="1.0" encoding="UTF-8" standalone="no" ?>
<!DOCTYPE svg PUBLIC "-//W3C//DTD SVG 1.1//EN" "http://www.w3.org/Graphics/SVG/1.1/DTD/svg11.dtd">
<svg xmlns="http://www.w3.org/2000/svg" xmlns:xlink="http://www.w3.org/1999/xlink" version="1.1" width="271.5666252452547" height="413.22868587740385" viewBox="176.6075900488829 94.68044873528916 271.5666252452547 413.22868587740385" xml:space="preserve">
<desc>Created with Fabric.js 5.3.0</desc>
<defs>
</defs>
<g transform="matrix(0.8393113711 0 0 0.8393113711 312.3909039854 210.421374402)" id="y-rBPYFaNA5E4HnWdQM0G"  >
<path style="stroke: rgb(243,243,101); stroke-width: 0; stroke-dasharray: none; stroke-linecap: butt; stroke-dashoffset: 0; stroke-linejoin: miter; stroke-miterlimit: 4; fill: rgb(0,0,0); fill-rule: nonzero; opacity: 1;"  transform=" translate(0, 0)" d="M -161.77942 -77.47675 C -161.79799999999997 -111.82957999999999 -129.64338999999998 -137.89986 -129.64338999999998 -137.89986 L 125.92551000000003 -137.89986 C 125.92551000000003 -137.89986 161.80690000000004 -112.18794 161.77941000000004 -77.47674999999998 C 161.77941000000004 -77.47674999999998 161.75451000000004 -74.49173999999998 161.74225000000004 -73.02150999999998 L 161.74225000000004 -73.02150999999998 C 161.52864000000005 -47.413379999999975 151.65181000000004 -22.83058999999998 134.08852000000005 -4.193169999999981 L 0.18471000000005233 137.89987000000002 L -135.12157999999994 -5.02640999999997 L -135.12157999999994 -5.02640999999997 C -152.23964999999993 -23.10850999999997 -161.77940999999993 -47.06187999999997 -161.77940999999993 -71.96148999999997 C -161.77940999999993 -73.78152999999998 -161.77940999999993 -77.47674999999997 -161.77940999999993 -77.47674999999997 z" stroke-linecap="round" />
</g>
<g transform="matrix(0.8393113711 0 0 -0.8393113711 312.3909026715 392.168209845)" id="smakTu23xGSx41cMuBt06"  >
<path style="stroke: rgb(243,243,101); stroke-width: 0; stroke-dasharray: none; stroke-linecap: butt; stroke-dashoffset: 0; stroke-linejoin: miter; stroke-miterlimit: 4; fill: rgb(0,0,0); fill-rule: nonzero; opacity: 1;"  transform=" translate(0.0000011306, -0.000005)" d="M -161.77942 -77.47675 C -161.79799999999997 -111.82957999999999 -129.64338999999998 -137.89986 -129.64338999999998 -137.89986 L 125.92551000000003 -137.89986 C 125.92551000000003 -137.89986 161.80690000000004 -112.18794 161.77941000000004 -77.47674999999998 C 161.77941000000004 -77.47674999999998 161.75451000000004 -74.49173999999998 161.74225000000004 -73.02150999999998 L 161.74225000000004 -73.02150999999998 C 161.52864000000005 -47.413379999999975 151.65181000000004 -22.83058999999998 134.08852000000005 -4.193169999999981 L 0.18471000000005233 137.89987000000002 L -135.12157999999994 -5.02640999999997 L -135.12157999999994 -5.02640999999997 C -152.23964999999993 -23.10850999999997 -161.77940999999993 -47.06187999999997 -161.77940999999993 -71.96148999999997 C -161.77940999999993 -73.78152999999998 -161.77940999999993 -77.47674999999997 -161.77940999999993 -77.47674999999997 z" stroke-linecap="round" />
</g>
</svg>