<?xml version="1.0" encoding="UTF-8" standalone="no" ?>
<!DOCTYPE svg PUBLIC "-//W3C//DTD SVG 1.1//EN" "http://www.w3.org/Graphics/SVG/1.1/DTD/svg11.dtd">
<svg xmlns="http://www.w3.org/2000/svg" xmlns:xlink="http://www.w3.org/1999/xlink" version="1.1" width="509.65694806224536" height="430.71903027252955" viewBox="69.55440188125672 138.12713529158103 509.65694806224536 430.71903027252955" xml:space="preserve">
<desc>Created with Fabric.js 5.3.0</desc>
<defs>
</defs>
<g transform="matrix(1 0 0 1 324.3828759124 353.4866504278)" id="x88XNNMQpTOd2RvLhKK0d"  >
<path style="stroke: rgb(193,196,138); stroke-width: 0; stroke-dasharray: none; stroke-linecap: butt; stroke-dashoffset: 0; stroke-linejoin: miter; stroke-miterlimit: 4; fill: rgb(0,0,0); fill-rule: nonzero; opacity: 1;"  transform=" translate(0, 0)" d="M -182.21032 -215.35952 C -182.21032 -215.35952 -147.87224 -170.26826 -120.06244 -155.87804 C -92.25264 -141.48783 -99.74540999999999 -140.26434 -54.16539 -124.03417 C -8.585370000000005 -107.804 43.09025 -109.22111000000001 55.20889 -102.05635000000001 C 87.76768999999999 -82.80697 64.23852 -36.21704000000001 64.23852 -36.21704000000001 C 64.23852 -36.21704000000001 85.73629 -36.21704000000001 88.44989 -36.21704000000001 C 99.40599 -36.21704000000001 102.91687999999999 -79.55077000000001 114.54705 -103.05635000000001 C 126.17722 -126.56193 146.91893 -148.4829 174.28798 -149.89806000000002 C 201.65703000000002 -151.31322 214.77460000000002 -128.88589000000002 221.75811 -121.49008000000002 C 227.50551 -115.40335000000002 243.43517 -107.28710000000002 254.08491999999998 -100.25061000000002 L 254.08491999999998 -100.25061000000002 C 254.71112999999997 -99.83686000000003 254.98093999999998 -99.05381000000003 254.74251999999998 -98.34214000000003 C 254.5041 -97.63047000000003 253.81700999999998 -97.16800000000003 253.06793 -97.21500000000003 C 239.96535 -98.03713000000003 224.14239999999998 -100.70499000000004 213.30106999999998 -98.34382000000004 C 192.32199999999997 -93.77472000000003 188.79879999999997 -88.95327000000003 180.49982999999997 -79.58625000000004 C 172.20085999999998 -70.21923000000004 177.18367999999998 -7.061130000000034 177.18367999999998 16.20617999999996 C 177.18367999999998 84.02870999999996 122.00984999999997 123.60318999999996 81.35090999999998 143.53398999999996 C 40.69196999999998 163.46478999999997 -53.16540000000002 157.08978999999997 -53.16540000000002 157.08978999999997 C -53.16540000000002 157.08978999999997 -63.59068000000002 172.18846999999997 -73.22461000000001 187.20173999999997 C -83.82458000000001 203.72046999999998 -112.12525000000002 220.01823999999996 -120.06245000000001 214.13042999999996 C -127.99965000000002 208.24261999999996 -108.57987000000001 196.63908999999995 -100.78913000000001 181.12489999999997 C -92.99838000000001 165.61071999999996 -88.17591000000002 149.88939999999997 -88.17591000000002 149.88939999999997 C -88.17591000000002 149.88939999999997 -115.07857000000001 169.34192999999996 -135.22673000000003 186.57886999999997 C -153.16359000000003 201.92401999999996 -184.10956000000004 210.84122999999997 -191.15114000000003 205.88788999999997 C -200.5869 199.25038999999998 -175.51470000000003 189.82573999999997 -159.03084 171.30777999999998 C -149.39547000000002 160.4834 -138.58973 148.23127 -130.42216000000002 135.25503999999998 C -128.51388000000003 132.22325999999998 -150.30447 144.96665 -175.30162 156.89815 C -204.96324 171.05606999999998 -250.06127 172.93114 -254.51504 157.08979 C -258.96293 141.26936 -215.14933 141.60652 -181.63546 127.06390999999999 C -153.31018 114.77277 -141.15708999999998 106.38027 -120.06244 94.23356999999999 C -98.96779 82.08686999999999 -76.14406 61.110759999999985 -76.14406 61.110759999999985 C -76.14406 61.110759999999985 -130.47334999999998 36.30603999999998 -148.45835 16.936549999999983 C -166.44334 -2.4329400000000163 -187.01124 -15.095230000000015 -200.95435 -71.71191000000002 C -214.89746 -128.32859000000002 -182.21032 -215.35952 -182.21032 -215.35952 z" stroke-linecap="round" />
</g>
</svg>