<?xml version="1.0" encoding="UTF-8" standalone="no" ?>
<!DOCTYPE svg PUBLIC "-//W3C//DTD SVG 1.1//EN" "http://www.w3.org/Graphics/SVG/1.1/DTD/svg11.dtd">
<svg xmlns="http://www.w3.org/2000/svg" xmlns:xlink="http://www.w3.org/1999/xlink" version="1.1" width="270.7673320182638" height="367.18218885514705" viewBox="201.78754067708297 69.41131421772403 270.7673320182638 367.18218885514705" xml:space="preserve">
<desc>Created with Fabric.js 5.3.0</desc>
<defs>
</defs>
<g transform="matrix(1 0 0 1 266.9680672796 194.7056623064)" id="FXHo4lyPa_1r2iK67PFjw"  >
<path style="stroke: rgb(98,130,33); stroke-width: 0; stroke-dasharray: none; stroke-linecap: butt; stroke-dashoffset: 0; stroke-linejoin: miter; stroke-miterlimit: 4; fill: rgb(0,0,0); fill-rule: nonzero; opacity: 1;"  transform=" translate(-65.1805266025, -125.2943480887)" d="M 65.01439 2.58098 C 66.25487000000001 0.8444499999999999 68.30536000000001 -0.1268600000000002 70.43485000000001 0.013349999999999973 C 72.56433000000001 0.15354999999999996 74.46977000000001 1.38531 75.47187000000001 3.2695 C 87.05114 25.04128 97.74771000000001 45.18106 108.90493000000001 70.09884 C 121.5476 98.33412999999999 130.47469 112.59359 130.35996 137.20497 C 130.24523 161.81635 97.47882 243.66065 66.30377 250.58124 C 62.60055 251.40332 0 184.04016000000001 0 137.20497 C 0 93.25555 36.33728 42.725620000000006 65.01439 2.580990000000014 z M 61.8086 209.32356 C 61.8086 215.51118 66.82466 220.52722999999997 73.01227 220.52722999999997 L 73.09506 220.52722999999997 L 73.09506 54.174289999999985 C 73.09506 47.98666999999998 68.07900000000001 42.97061999999998 61.89139 42.97061999999998 L 61.8086 42.97061999999998 z" stroke-linecap="round" />
</g>
<g transform="matrix(0.9564404032 0 0 0.959901955 383.3948680851 320)" id="iOWCGXp-crc4LTWaWqKxA"  >
<path style="stroke: rgb(98,130,33); stroke-width: 0; stroke-dasharray: none; stroke-linecap: butt; stroke-dashoffset: 0; stroke-linejoin: miter; stroke-miterlimit: 4; fill: rgb(0,0,0); fill-rule: nonzero; opacity: 1;"  transform=" translate(-93.2206626612, -65.1348050059)" d="M 147.83566 0.67776 C 159.80722 2.1529 172.79379999999998 8.06612 184.4887 13.233009999999998 C 185.47145 13.667189999999998 186.17893 14.555559999999998 186.38214 15.610559999999998 C 186.58535 16.66556 186.25847 17.753149999999998 185.50731 18.521319999999996 C 177.35435999999999 26.858779999999996 181.34013 21.168419999999998 163.56878 46.2234 C 159.02221 52.63339 152.11399 78.15534 144.58960000000002 89.56796 C 132.39161000000001 108.06927999999999 120.27715000000002 115.94021000000001 98.21263000000002 125.21802 C 76.14811000000002 134.49581999999998 17.25539000000002 131.69448 0.1418700000000115 110.94606999999999 C -0.9719399999999885 109.59567999999999 4.379440000000011 81.68766 19.52287000000001 56.97061999999999 C 32.018450000000016 36.575389999999985 52.07773000000001 19.60801999999999 72.79400000000001 10.495709999999988 C 97.07212000000001 -0.1833200000000108 134.17895000000001 -1.0050400000000117 147.83567 0.677749999999989 z M 30.74548 92.44578 C 33.72626 97.21603 40.00971 98.66667 44.77995 95.68589 L 135.13871 39.22347 C 132.15793 34.45322 125.87448 33.00258 121.10424 35.98336 z" stroke-linecap="round" />
</g>
<g transform="matrix(0.1698112925 0 0 2.1132076436 269.4298747394 373.6611071237)" id="p4rhK0Ohulamdnz5sjLqx"  >
<path style="stroke: rgb(92,35,144); stroke-width: 0; stroke-dasharray: none; stroke-linecap: butt; stroke-dashoffset: 0; stroke-linejoin: miter; stroke-miterlimit: 4; fill: rgb(0,0,0); fill-rule: nonzero; opacity: 1;"  transform=" translate(0, 0)" d="M -38.05287 -29.78051 L 38.05287 -29.78051 L 38.05287 29.780500000000004 L -38.05287 29.780500000000004 z" stroke-linecap="round" />
</g>
<g transform="matrix(1 0 0 1 288.1126530142 375.2230026339)" id="RJX8qXiJxQYk0QukJO5K1"  >
<path style="stroke: rgb(136,152,78); stroke-width: 0; stroke-dasharray: none; stroke-linecap: butt; stroke-dashoffset: 0; stroke-linejoin: miter; stroke-miterlimit: 4; fill: rgb(0,0,0); fill-rule: nonzero; opacity: 1;"  transform=" translate(0, 0)" d="M -15.03045 1.24759 C -15.03045 1.24759 -10.25762 -6.805470000000001 -3.5852400000000006 -12.56491 C 3.0871399999999998 -18.32435 11.65908 -19.79016 11.65908 -19.79016 L 15.03046 -7.180860000000001 L 2.0489099999999993 -1.7524100000000011 L -15.030440000000002 19.79017 z" stroke-linecap="round" />
</g>
</svg>