<?xml version="1.0" encoding="UTF-8" standalone="no" ?>
<!DOCTYPE svg PUBLIC "-//W3C//DTD SVG 1.1//EN" "http://www.w3.org/Graphics/SVG/1.1/DTD/svg11.dtd">
<svg xmlns="http://www.w3.org/2000/svg" xmlns:xlink="http://www.w3.org/1999/xlink" version="1.1" width="316.3334672669" height="262.4782266791" viewBox="304.59522232554997 373.69921888605 316.3334672669 262.4782266791" xml:space="preserve">
<desc>Created with Fabric.js 5.3.0</desc>
<defs>
</defs>
<g transform="matrix(1 0 0 1 462.761955959 504.9383322256)" id="eL0AWEU8zCEGKg508m5_v"  >
<g style=""   >
		<g transform="matrix(3.3415695928 0 0 1.3553220005 0 75.022837476)" id="elbnJQVgr6n3LSF96xlye"  >
<path style="stroke: rgb(110,1,73); stroke-width: 0; stroke-dasharray: none; stroke-linecap: butt; stroke-dashoffset: 0; stroke-linejoin: miter; stroke-miterlimit: 4; fill: rgb(0,0,0); fill-rule: nonzero; opacity: 1;"  transform=" translate(0, 0)" d="M -39.4227 -33.87085 C -38.86743 -38.388639999999995 -37.17834 -41.47817 -35.26366 -41.47817 L -13.01173 -41.47817 L -0.15695000000000014 -3.718049999999998 L -0.15695000000000014 -3.718049999999998 C 0.12160999999999983 -2.899789999999998 0.5319899999999999 -2.424799999999998 0.9652699999999999 -2.419119999999998 C 1.3985599999999998 -2.4134399999999983 1.81096 -2.8776499999999983 2.0930299999999997 -3.688569999999998 L 15.23806 -41.47818 L 36.1446 -41.47818 L 36.1446 -41.47818 C 37.834689999999995 -41.47818 39.31905 -38.70997 39.779019999999996 -34.70031 L 47.19418999999999 29.940420000000003 L 47.19418999999999 29.940420000000003 C 47.507859999999994 32.67481 47.28358999999999 35.61361 46.58829999999999 37.87995 C 45.89300999999999 40.14629 44.80706999999999 41.47816 43.65451999999999 41.47816 L -43.45121 41.47816 L -43.45121 41.47816 C -44.680170000000004 41.47816 -45.83654000000001 40.04332 -46.568780000000004 37.609840000000005 C -47.30102 35.17636 -47.52261 32.03172000000001 -47.1662 29.131910000000005 z" stroke-linecap="round" />
</g>
		<g transform="matrix(0 2.7824216875 -2.7824216875 0 3.2112094534 -43.8948135337)" id="zL_OHYY0ygkS2PteRSHO6"  >
<path style="stroke: none; stroke-width: 1; stroke-dasharray: none; stroke-linecap: butt; stroke-dashoffset: 0; stroke-linejoin: miter; stroke-miterlimit: 4; fill: rgb(0,0,0); fill-rule: nonzero; opacity: 1;"  transform=" translate(0, 0)" d="M -7.46865 32.5 L 30.589879999999997 0.6457100000000011 L 30.589879999999997 0.6457100000000011 C 30.781029999999998 0.48572000000000115 30.891469999999998 0.2492700000000011 30.891469999999998 1.1102230246251565e-15 C 30.891469999999998 -0.24926999999999888 30.781029999999998 -0.4857199999999989 30.589879999999997 -0.6457099999999989 L -7.46865 -32.5 L -7.46865 -11.895 L -30.89147 -11.895 L -30.89147 11.952000000000002 L -7.46865 11.952000000000002 z" stroke-linecap="round" />
</g>
</g>
</g>
</svg>