<?xml version="1.0" encoding="UTF-8" standalone="no" ?>
<!DOCTYPE svg PUBLIC "-//W3C//DTD SVG 1.1//EN" "http://www.w3.org/Graphics/SVG/1.1/DTD/svg11.dtd">
<svg xmlns="http://www.w3.org/2000/svg" xmlns:xlink="http://www.w3.org/1999/xlink" version="1.1" width="307.132628737972" height="270.9738574493343" viewBox="309.5218820974728 365.20364365917237 307.132628737972 270.9738574493343" xml:space="preserve">
<desc>Created with Fabric.js 5.3.0</desc>
<defs>
</defs>
<g transform="matrix(2.0797182512 0 0 2.0797182512 463.0881964665 500.6905723838)" id="KGcHyjgKXLvqXFBjgC8ty"  >
<g style=""   >
		<g transform="matrix(1.6067414857 0 0 0.6516853904 0 38.1150492643)" id="elbnJQVgr6n3LSF96xlye"  >
<path style="stroke: rgb(110,1,73); stroke-width: 0; stroke-dasharray: none; stroke-linecap: butt; stroke-dashoffset: 0; stroke-linejoin: miter; stroke-miterlimit: 4; fill: rgb(0,0,0); fill-rule: nonzero; opacity: 1;"  transform=" translate(0, 0)" d="M -40.46383 -25.60717 C -39.36299 -35.13058 -35.80363 -41.64102 -31.787730000000003 -41.47667 L -11.537650000000003 -41.47667 L -1.9905700000000035 -12.945899999999998 L -1.9905700000000035 -12.945899999999998 C -1.4186900000000033 -11.236889999999999 -0.5814800000000035 -10.200219999999998 0.3160199999999964 -10.089799999999999 C 1.2135299999999964 -9.97937 2.0884399999999967 -10.805379999999998 2.7264799999999965 -12.365529999999998 L 14.631949999999996 -41.476679999999995 L 32.96231999999999 -41.476679999999995 L 32.96231999999999 -41.476679999999995 C 36.47722999999999 -41.476679999999995 39.56428999999999 -35.71957 40.52087999999999 -27.380619999999993 L 45.66750999999999 17.484400000000008 L 45.66750999999999 17.484400000000008 C 46.31985999999999 23.171170000000007 45.85343999999999 29.283030000000007 44.40742999999999 33.996390000000005 C 42.961409999999994 38.70975000000001 40.70297999999999 41.47966 38.30597999999999 41.47966 L -37.89929000000001 41.47966 L -37.89929000000001 41.47966 C -40.45752000000001 41.492470000000004 -42.86556000000001 38.50309 -44.384820000000005 33.42841 C -45.90408000000001 28.35373 -46.35323 21.79945 -45.59451000000001 15.775839999999999 z" stroke-linecap="round" />
</g>
		<g transform="matrix(0 1.337883959 -1.337883959 0 1.3871922046 -21.4455313688)" id="zL_OHYY0ygkS2PteRSHO6"  >
<path style="stroke: none; stroke-width: 1; stroke-dasharray: none; stroke-linecap: butt; stroke-dashoffset: 0; stroke-linejoin: miter; stroke-miterlimit: 4; fill: rgb(0,0,0); fill-rule: nonzero; opacity: 1;"  transform=" translate(0, 0)" d="M -5.68832 32.5 L 31.537229999999997 1.3428900000000006 L 31.537229999999997 1.3428900000000006 C 31.934759999999997 1.0101600000000006 32.164449999999995 0.5184000000000006 32.164449999999995 6.661338147750939e-16 C 32.164449999999995 -0.5183999999999993 31.934769999999997 -1.0101599999999993 31.537229999999994 -1.3428899999999993 L -5.6883200000000045 -32.5 L -5.6883200000000045 -11.895 L -32.164440000000006 -11.895 L -32.164440000000006 11.952000000000002 L -5.6883200000000045 11.952000000000002 z" stroke-linecap="round" />
</g>
</g>
</g>
</svg>