<?xml version="1.0" encoding="UTF-8" standalone="no" ?>
<!DOCTYPE svg PUBLIC "-//W3C//DTD SVG 1.1//EN" "http://www.w3.org/Graphics/SVG/1.1/DTD/svg11.dtd">
<svg xmlns="http://www.w3.org/2000/svg" xmlns:xlink="http://www.w3.org/1999/xlink" version="1.1" width="346.7384883018868" height="348.0161686632233" viewBox="120.46723383647813 27.601081793779798 346.7384883018868 348.0161686632233" xml:space="preserve">
<desc>Created with Fabric.js 5.3.0</desc>
<defs>
</defs>
<g transform="matrix(1 0 0 1 293.8364779874 201.6091661254)" id="Cbu3UtT38zkwM7VOxiGIU"  >
<path style="stroke: rgb(206,215,6); stroke-width: 0; stroke-dasharray: none; stroke-linecap: butt; stroke-dashoffset: 0; stroke-linejoin: miter; stroke-miterlimit: 4; fill: rgb(0,0,0); fill-rule: nonzero; opacity: 1;"  transform=" translate(0, 0)" d="M 173.36924 -24.78971 C 173.36924 9.24989 161.73123999999999 63.83847 142.10935 89.87353 C 129.15411 107.06304 112.95822000000001 98.83113 93.47882000000001 110.28719000000001 C 93.47882000000001 110.28719000000001 93.47882000000001 142.96599 93.47882000000001 159.06152 L 93.47882000000001 159.06152 C 93.47882000000001 165.20368 88.68193000000001 170.27667 82.54937000000001 170.62004 L 57.758690000000016 172.00808999999998 L 57.758690000000016 123.28211999999999 L 34.501350000000016 128.28212 L 34.501350000000016 174.00808999999998 L 10.565250000000017 174.00808999999998 L 10.565250000000017 128.28212 L -13.432209999999984 128.28212 L -13.432209999999984 174.00808999999998 L -37.72488999999999 174.00808999999998 L -37.72488999999999 128.28212 L -63.827499999999986 123.28211999999999 L -63.827499999999986 173.00808999999998 L -88.50195 170.90822999999997 L -88.50195 170.90822999999997 C -94.48328 170.39919999999998 -99.07910999999999 165.39565 -99.07910999999999 159.39269999999996 C -99.07910999999999 141.65574999999995 -99.07910999999999 105.64435999999996 -99.07910999999999 105.64435999999996 C -116.32051999999999 94.34772999999996 -132.69905999999997 105.86893999999997 -144.60116 89.87352999999996 C -163.60817 64.32973999999996 -173.36925 8.162609999999958 -173.36925 -24.789710000000042 C -173.36925 -113.82387000000004 -85.24704999999999 -174.00808000000004 1.4375699999999938 -174.00808000000004 C 88.12218999999999 -174.00808000000004 173.36924 -113.82388000000003 173.36924 -24.789710000000042 z M 16.22548 -39.52471 C 16.22548 -13.18149 40.69315 21.787060000000004 74.53725 21.787060000000004 C 108.38135 21.787060000000004 132.39889 -5.680609999999994 132.39889 -39.52471 C 132.39889 -73.36881 108.38135 -83.58581000000001 74.53725 -83.58581000000001 C 40.69315 -83.58581000000001 16.225479999999997 -65.86793 16.225479999999997 -39.524710000000006 z M -130.88054 -39.52471 C -130.88054 -5.6806100000000015 -108.58806999999999 21.787060000000004 -74.74396999999999 21.787060000000004 C -40.89986999999999 21.787060000000004 -15.432199999999987 -5.680609999999994 -15.432199999999987 -39.52471 C -15.432199999999987 -73.36881 -40.899869999999986 -83.58581000000001 -74.74396999999999 -83.58581000000001 C -108.58806999999999 -83.58581000000001 -130.88054 -73.36881000000001 -130.88054 -39.524710000000006 z M 6.80445 21.30788 C 5.7880400000000005 19.27506 3.71034 17.99097 1.43757 17.99097 C -0.8351999999999999 17.99097 -2.9128999999999996 19.27506 -3.92931 21.30788 L -28.4801 70.40944 L -28.4801 70.40944 C -29.00055 71.45035 -28.83853 72.7028 -28.07034 73.57701 C -27.30214 74.45122 -26.080910000000003 74.7729 -24.981730000000002 74.39058 L 1.4375699999999973 65.20126 L 24.35476 73.17246 L 24.35476 73.17246 C 26.033279999999998 73.75629 27.89818 73.26506 29.07127 71.93009 C 30.244359999999997 70.59512000000001 30.49177 68.68254 29.697 67.09301 L 17.96945 43.63792000000001 z" stroke-linecap="round" />
</g>
</svg>