<?xml version="1.0" encoding="UTF-8" standalone="no" ?>
<!DOCTYPE svg PUBLIC "-//W3C//DTD SVG 1.1//EN" "http://www.w3.org/Graphics/SVG/1.1/DTD/svg11.dtd">
<svg xmlns="http://www.w3.org/2000/svg" xmlns:xlink="http://www.w3.org/1999/xlink" version="1.1" width="63mm" height="88mm" viewBox="0 0 178.58268 249.44882" xml:space="preserve">
<desc>Created with Fabric.js 4.6.0</desc>
<defs>
</defs>
<g transform="matrix(0.87 0 0 0.49 89.21 194.15)" id="_EsD0jtIfcrhAQysz0pl7"  >
<path style="stroke: rgb(209,179,15); stroke-opacity: 0.56; stroke-width: 1.41732; stroke-dasharray: none; stroke-linecap: butt; stroke-dashoffset: 0; stroke-linejoin: miter; stroke-miterlimit: 4; fill: none; fill-rule: nonzero; opacity: 1;" vector-effect="non-scaling-stroke"  transform=" translate(0, 0)" d="M -95.26334 -76.18224 C -95.26334 -81.24286 -94.13371 -86.09621999999999 -92.12295 -89.67461999999999 C -90.11219 -93.25301999999999 -87.38501000000001 -95.26334999999999 -84.54137 -95.26334999999999 L 85.07235 -95.26334999999999 L 85.07235 -95.26334999999999 C 87.77517 -95.26334999999999 90.36729 -93.35257999999999 92.27847 -89.95139999999999 C 94.18965 -86.55020999999999 95.26334 -81.93721 95.26334 -77.12720999999999 L 95.26334 78.71037000000001 L 95.26334 78.71037000000001 C 95.26334 87.85232 91.09897 95.26333000000001 85.96197 95.26333000000001 L -85.36093000000001 95.26333000000001 L -85.36093000000001 95.26333000000001 C -90.82988000000002 95.26333000000001 -95.26334000000001 87.37343000000001 -95.26334000000001 77.64075000000001 z" stroke-linecap="round" />
</g>
<g transform="matrix(0.83 0 0 0.45 89.16 194.02)" id="XMnhmxet6158A64CR_7ew"  >
<path style="stroke: rgb(209,179,15); stroke-width: 1.41732; stroke-dasharray: none; stroke-linecap: butt; stroke-dashoffset: 0; stroke-linejoin: miter; stroke-miterlimit: 4; fill: rgb(30,29,26); fill-opacity: 0.72; fill-rule: nonzero; opacity: 1;" vector-effect="non-scaling-stroke"  transform=" translate(0, 0)" d="M -95.26334 -81.22243 C -95.26334 -88.97701 -91.85589 -95.26335 -87.65258 -95.26335 L 87.26836 -95.26335 L 87.26836 -95.26335 C 91.68387 -95.26335 95.26335 -88.65965 95.26335 -80.51358 L 95.26335 80.46891000000001 L 95.26335 80.46891000000001 C 95.26335 88.63964000000001 91.67304 95.26333000000001 87.24416000000001 95.26333000000001 L -86.23706 95.26333000000001 L -86.23706 95.26333000000001 C -91.22214 95.26333000000001 -95.26334 87.80781000000002 -95.26334 78.61096 z" stroke-linecap="round" />
</g>
<g transform="matrix(0.03 0 0 0.03 164.47 144.75)" id="t_U0h99enkVaCvihwdDBc"  >
<filter id="SVGID_179" y="-25%" height="150%" x="-25%" width="150%" >
	<feGaussianBlur in="SourceAlpha" stdDeviation="4.25"></feGaussianBlur>
	<feOffset dx="14.17" dy="14.17" result="oBlur" ></feOffset>
	<feFlood flood-color="rgb(0,0,0)" flood-opacity="1"/>
	<feComposite in2="oBlur" operator="in" />
	<feMerge>
		<feMergeNode></feMergeNode>
		<feMergeNode in="SourceGraphic"></feMergeNode>
	</feMerge>
</filter>
<path style="stroke: none; stroke-width: 1; stroke-dasharray: none; stroke-linecap: butt; stroke-dashoffset: 0; stroke-linejoin: miter; stroke-miterlimit: 4; fill: rgb(223,193,63); fill-rule: nonzero; opacity: 1;filter: url(#SVGID_179);" vector-effect="non-scaling-stroke"  transform=" translate(-252.86, -256.02)" d="M 414.875 20.625 L 408.28 27.5 L 402.125 33.875 L 474.595 106.345 L 481.06 100 L 487.78000000000003 93.406 L 481.09200000000004 86.75 L 421.62200000000007 27.344 L 414.87200000000007 20.624000000000002 z M 372.437 30.625 L 339.47 63.563 L 442.874 166.97 L 475.813 134 L 372.438 30.625 z M 219.22 88.875 C 218.07 88.875 216.93 88.888 215.78 88.905 C 165.418 89.723 115.348 109.33500000000001 76.906 147.75 C -1.73899999999999 226.364 -1.7239999999999895 353.808 76.936 432.438 C 155.601 511.068 283.131 511.08799999999997 361.78100000000006 432.438 C 428.31100000000004 365.938 438.48300000000006 264.648 392.3760000000001 187.28099999999998 L 414.7510000000001 165.28099999999998 L 401.53100000000006 152.063 L 374.0640000000001 179.063 L 368.6260000000001 184.40699999999998 L 372.7820000000001 190.813 C 402.42500000000007 236.447 409.6470000000001 292.253 394.4080000000001 342.813 C 377.64200000000005 341.631 362.81500000000005 328.033 358.2830000000001 308.813 C 355.24800000000005 295.916 356.77900000000005 282.007 362.9410000000001 271.657 C 323.4170000000001 287.95 311.4940000000001 317.099 321.1280000000001 361.46999999999997 C 283.1250000000001 366.815 287.1880000000001 318.404 263.0030000000001 303.5 C 261.2560000000001 344.35 213.9030000000001 372.37 189.9730000000001 343.72 C 166.4230000000001 315.533 193.8930000000001 275.96200000000005 228.9730000000001 283.28000000000003 C 194.3410000000001 254.61800000000002 163.27300000000008 257.247 131.4410000000001 287.906 C 136.4110000000001 259.41 147.25500000000008 240.949 167.0340000000001 230.626 C 102.417 235.333 56.08 279.655 41.376 332 C 27.333999999999996 272.53499999999997 43.558 207.487 90.096 160.97 C 116.612 134.47 149.166 117.804 183.282 110.97 C 181.644 113.01 180.472 115.295 179.81400000000002 117.75 C 174.597 137.223 204.068 162.02 245.627 173.156 C 287.187 184.292 325.097 177.536 330.315 158.062 C 331.867 152.26700000000002 330.31 145.99 326.315 139.75 L 330.502 135.406 L 357.158 107.686 L 343.908 94.436 L 322.096 117.126 C 290.464 98.334 254.829 88.904 219.221 88.876 z M 249 209.03 C 229.21 209.34 205.68200000000002 219.87 182.687 243.53 C 234.363 227.815 276.267 232.903 295.781 285.75 C 306.681 240.183 284.529 209.63 250.907 209.03 C 250.27700000000002 209.02 249.639 209.02 249.001 209.03 z" stroke-linecap="round" />
</g>
<g transform="matrix(-0.03 0 0 0.03 13.43 145.33)" id="HBPJjJHfOPUc9bZKdVdF5"  >
<filter id="SVGID_181" y="-25%" height="150%" x="-25%" width="150%" >
	<feGaussianBlur in="SourceAlpha" stdDeviation="4.25"></feGaussianBlur>
	<feOffset dx="-14.17" dy="14.17" result="oBlur" ></feOffset>
	<feFlood flood-color="rgb(0,0,0)" flood-opacity="1"/>
	<feComposite in2="oBlur" operator="in" />
	<feMerge>
		<feMergeNode></feMergeNode>
		<feMergeNode in="SourceGraphic"></feMergeNode>
	</feMerge>
</filter>
<path style="stroke: none; stroke-width: 1; stroke-dasharray: none; stroke-linecap: butt; stroke-dashoffset: 0; stroke-linejoin: miter; stroke-miterlimit: 4; fill: rgb(223,193,63); fill-rule: nonzero; opacity: 1;filter: url(#SVGID_181);" vector-effect="non-scaling-stroke"  transform=" translate(-252.86, -256.02)" d="M 414.875 20.625 L 408.28 27.5 L 402.125 33.875 L 474.595 106.345 L 481.06 100 L 487.78000000000003 93.406 L 481.09200000000004 86.75 L 421.62200000000007 27.344 L 414.87200000000007 20.624000000000002 z M 372.437 30.625 L 339.47 63.563 L 442.874 166.97 L 475.813 134 L 372.438 30.625 z M 219.22 88.875 C 218.07 88.875 216.93 88.888 215.78 88.905 C 165.418 89.723 115.348 109.33500000000001 76.906 147.75 C -1.73899999999999 226.364 -1.7239999999999895 353.808 76.936 432.438 C 155.601 511.068 283.131 511.08799999999997 361.78100000000006 432.438 C 428.31100000000004 365.938 438.48300000000006 264.648 392.3760000000001 187.28099999999998 L 414.7510000000001 165.28099999999998 L 401.53100000000006 152.063 L 374.0640000000001 179.063 L 368.6260000000001 184.40699999999998 L 372.7820000000001 190.813 C 402.42500000000007 236.447 409.6470000000001 292.253 394.4080000000001 342.813 C 377.64200000000005 341.631 362.81500000000005 328.033 358.2830000000001 308.813 C 355.24800000000005 295.916 356.77900000000005 282.007 362.9410000000001 271.657 C 323.4170000000001 287.95 311.4940000000001 317.099 321.1280000000001 361.46999999999997 C 283.1250000000001 366.815 287.1880000000001 318.404 263.0030000000001 303.5 C 261.2560000000001 344.35 213.9030000000001 372.37 189.9730000000001 343.72 C 166.4230000000001 315.533 193.8930000000001 275.96200000000005 228.9730000000001 283.28000000000003 C 194.3410000000001 254.61800000000002 163.27300000000008 257.247 131.4410000000001 287.906 C 136.4110000000001 259.41 147.25500000000008 240.949 167.0340000000001 230.626 C 102.417 235.333 56.08 279.655 41.376 332 C 27.333999999999996 272.53499999999997 43.558 207.487 90.096 160.97 C 116.612 134.47 149.166 117.804 183.282 110.97 C 181.644 113.01 180.472 115.295 179.81400000000002 117.75 C 174.597 137.223 204.068 162.02 245.627 173.156 C 287.187 184.292 325.097 177.536 330.315 158.062 C 331.867 152.26700000000002 330.31 145.99 326.315 139.75 L 330.502 135.406 L 357.158 107.686 L 343.908 94.436 L 322.096 117.126 C 290.464 98.334 254.829 88.904 219.221 88.876 z M 249 209.03 C 229.21 209.34 205.68200000000002 219.87 182.687 243.53 C 234.363 227.815 276.267 232.903 295.781 285.75 C 306.681 240.183 284.529 209.63 250.907 209.03 C 250.27700000000002 209.02 249.639 209.02 249.001 209.03 z" stroke-linecap="round" />
</g>
</svg>