<?xml version="1.0" encoding="UTF-8" standalone="no" ?>
<!DOCTYPE svg PUBLIC "-//W3C//DTD SVG 1.1//EN" "http://www.w3.org/Graphics/SVG/1.1/DTD/svg11.dtd">
<svg xmlns="http://www.w3.org/2000/svg" xmlns:xlink="http://www.w3.org/1999/xlink" version="1.1" width="63mm" height="88mm" viewBox="0 0 178.58268 249.44882" xml:space="preserve">
<desc>Created with Fabric.js 4.6.0</desc>
<defs>
</defs>
<g transform="matrix(0.83 0 0 0.45 89.21 194.09)" id="XMnhmxet6158A64CR_7ew"  >
<path style="stroke: rgb(209,179,15); stroke-width: 1.41732; stroke-dasharray: none; stroke-linecap: butt; stroke-dashoffset: 0; stroke-linejoin: miter; stroke-miterlimit: 4; fill: rgb(30,29,26); fill-opacity: 0.72; fill-rule: nonzero; opacity: 1;" vector-effect="non-scaling-stroke"  transform=" translate(0, 0)" d="M -95.26334 -81.22243 C -95.26334 -88.97701 -91.85589 -95.26335 -87.65258 -95.26335 L 87.26836 -95.26335 L 87.26836 -95.26335 C 91.68387 -95.26335 95.26335 -88.65965 95.26335 -80.51358 L 95.26335 80.46891000000001 L 95.26335 80.46891000000001 C 95.26335 88.63964000000001 91.67304 95.26333000000001 87.24416000000001 95.26333000000001 L -86.23706 95.26333000000001 L -86.23706 95.26333000000001 C -91.22214 95.26333000000001 -95.26334 87.80781000000002 -95.26334 78.61096 z" stroke-linecap="round" />
</g>
<g transform="matrix(0.87 0 0 0.49 89.21 194.09)" id="_EsD0jtIfcrhAQysz0pl7"  >
<path style="stroke: rgb(209,179,15); stroke-opacity: 0.56; stroke-width: 1.41732; stroke-dasharray: none; stroke-linecap: butt; stroke-dashoffset: 0; stroke-linejoin: miter; stroke-miterlimit: 4; fill: none; fill-rule: nonzero; opacity: 1;" vector-effect="non-scaling-stroke"  transform=" translate(0, 0)" d="M -95.26334 -76.18224 C -95.26334 -81.24286 -94.13371 -86.09621999999999 -92.12295 -89.67461999999999 C -90.11219 -93.25301999999999 -87.38501000000001 -95.26334999999999 -84.54137 -95.26334999999999 L 85.07235 -95.26334999999999 L 85.07235 -95.26334999999999 C 87.77517 -95.26334999999999 90.36729 -93.35257999999999 92.27847 -89.95139999999999 C 94.18965 -86.55020999999999 95.26334 -81.93721 95.26334 -77.12720999999999 L 95.26334 78.71037000000001 L 95.26334 78.71037000000001 C 95.26334 87.85232 91.09897 95.26333000000001 85.96197 95.26333000000001 L -85.36093000000001 95.26333000000001 L -85.36093000000001 95.26333000000001 C -90.82988000000002 95.26333000000001 -95.26334000000001 87.37343000000001 -95.26334000000001 77.64075000000001 z" stroke-linecap="round" />
</g>
<g transform="matrix(0.03 0 0 0.03 12.96 144.93)" id="LQdTukOo8ZqsKmXGGlKmX"  >
<filter id="SVGID_45" y="-24%" height="148%" x="-24%" width="148%" >
	<feGaussianBlur in="SourceAlpha" stdDeviation="4.25"></feGaussianBlur>
	<feOffset dx="11.34" dy="11.34" result="oBlur" ></feOffset>
	<feFlood flood-color="rgb(0,0,0)" flood-opacity="1"/>
	<feComposite in2="oBlur" operator="in" />
	<feMerge>
		<feMergeNode></feMergeNode>
		<feMergeNode in="SourceGraphic"></feMergeNode>
	</feMerge>
</filter>
<path style="stroke: none; stroke-width: 1; stroke-dasharray: none; stroke-linecap: butt; stroke-dashoffset: 0; stroke-linejoin: miter; stroke-miterlimit: 4; fill: rgb(223,193,63); fill-rule: nonzero; opacity: 1;filter: url(#SVGID_45);" vector-effect="non-scaling-stroke"  transform=" translate(0, 0)" d="M -0.00115 -224.373 C -14.76115 -224.373 -34.808150000000005 -220.90599999999998 -51.89115 -213.66299999999998 C -68.97115 -206.41799999999998 -82.58615 -195.617 -87.56515 -182.23299999999998 C -88.34115 -180.14899999999997 -88.99515000000001 -178.09099999999998 -89.56015000000001 -176.05299999999997 C -98.31415000000001 -153.42599999999996 -82.04015000000001 -96.16799999999996 -63.56415000000001 -58.804999999999964 C -70.86415000000001 -69.49499999999996 -78.10115000000002 -79.87199999999996 -84.65815 -90.17199999999997 C -101.03815 -115.89899999999997 -113.30415 -142.53399999999996 -108.83215000000001 -171.71699999999998 C -114.24215000000001 -174.777 -120.41215000000001 -176.373 -128.00015000000002 -176.373 C -141.00015000000002 -176.373 -155.05015000000003 -169.596 -165.63715000000002 -159.01 C -176.22415 -148.42399999999998 -183.00115000000002 -134.373 -183.00115000000002 -121.37299999999999 C -183.00115000000002 -114.43099999999998 -180.56415 -107.246 -176.20815000000002 -99.91299999999998 C -166.67115 -78.23599999999999 -138.63515 -45.38899999999998 -108.09815000000002 -15.940999999999988 C -122.25115000000002 -26.09299999999999 -137.06815 -36.53099999999999 -150.61415000000002 -47.33499999999999 C -177.47615000000002 -68.75799999999998 -200.87015000000002 -92.08499999999998 -200.99415000000002 -121.142 C -204.85215000000002 -117.37599999999999 -208.25415 -112.47399999999999 -211.14015 -106.475 C -216.70815000000002 -94.89099999999999 -220.07615 -79.88199999999999 -221.01815 -64.815 C -221.95815 -49.747 -220.48614999999998 -34.595 -217.10415 -22.869 C -213.72115 -11.145 -208.21815 -3.5489999999999995 -203.97415 -1.4259999999999984 C -203.64079 -1.2585399999999984 -203.31817 -1.0705099999999983 -203.00815 -0.8629999999999984 C -166.68515 23.351 -118.72215 28.471 -67.43615 34.517 C -71.01315 25.915000000000003 -73.00014999999999 16.497000000000003 -73.00014999999999 6.624000000000002 C -73.00014999999999 -33.586 -40.21014999999999 -66.376 -0.00014999999999076863 -66.376 C 40.20985000000001 -66.376 72.99985000000001 -33.586000000000006 72.99985000000001 6.623999999999995 C 72.99985000000001 16.495999999999995 71.01285000000001 25.913999999999994 67.43585000000002 34.516999999999996 C 118.72185000000002 28.470999999999997 166.68585000000002 23.350999999999996 203.00785000000002 -0.8630000000000067 C 203.31817 -1.0708800000000067 203.64113000000003 -1.2592500000000066 203.97485000000003 -1.4270000000000067 C 208.21785000000003 -3.5490000000000066 213.72085000000004 -11.147000000000007 217.10485000000003 -22.870000000000008 C 220.48485000000002 -34.595000000000006 221.95885000000004 -49.748000000000005 221.01785000000004 -64.816 C 220.07585000000003 -79.88300000000001 216.70785000000004 -94.892 211.13785000000004 -106.476 C 208.25385000000006 -112.476 204.85085000000004 -117.376 200.99385000000004 -121.144 C 200.86885000000004 -92.087 177.47385000000003 -68.761 150.61385000000004 -47.33800000000001 C 137.06685000000004 -36.53500000000001 122.24985000000004 -26.096000000000007 108.09585000000004 -15.945000000000007 C 138.63385000000005 -45.39500000000001 166.66985000000005 -78.24100000000001 176.20585000000005 -99.91900000000001 C 180.56285000000005 -107.251 182.99985000000007 -114.436 182.99985000000007 -121.37900000000002 C 182.99985000000007 -134.37900000000002 176.22285000000008 -148.42900000000003 165.63685000000007 -159.01500000000001 C 155.04885000000007 -169.596 140.99885000000006 -176.37300000000002 127.99885000000006 -176.37300000000002 C 120.41085000000007 -176.37300000000002 114.24185000000006 -174.77800000000002 108.83085000000005 -171.717 C 113.30285000000005 -142.53400000000002 101.03685000000006 -115.89900000000002 84.65685000000005 -90.17200000000001 C 78.09985000000005 -79.87200000000001 70.86385000000004 -69.49400000000001 63.56285000000005 -58.80500000000001 C 82.03985000000004 -96.168 98.31285000000005 -153.425 89.55785000000004 -176.053 C 88.99285000000005 -178.091 88.33785000000005 -180.149 87.56185000000005 -182.233 C 82.58885000000005 -195.603 68.92385000000004 -206.413 51.80985000000005 -213.66 C 34.69885000000005 -220.90699999999998 14.642850000000045 -224.373 -0.001149999999952911 -224.373 z M 1.06885 -47.073 C -13.71732 -47.07353 -27.898059999999997 -41.20012 -38.35365 -30.74491 C -48.80924 -20.289700000000003 -54.68315 -6.109170000000002 -54.68315 8.676999999999996 C -54.65587 27.940289999999997 -44.686 45.82464999999999 -28.31515 55.97699999999999 C -30.73188 49.21185999999999 -31.97855 42.08088999999999 -32.001149999999996 34.89299999999999 C -32.00089 18.188069999999986 -25.397599999999997 2.167439999999985 -13.643949999999997 -9.644540000000013 C -1.8902899999999967 -21.456520000000012 14.050930000000005 -28.092270000000013 30.672850000000004 -28.092000000000013 C 35.235820000000004 -28.07636000000001 39.783440000000006 -27.559970000000014 44.23485 -26.552000000000014 C 33.656980000000004 -39.526440000000015 17.80884 -47.06097000000001 1.0688500000000047 -47.07400000000001 z M -61.10515 46.463 C -114.90915000000001 51.003 -166.04215 54.261 -204.17115 72.195 C -204.44392000000002 72.32292 -204.72293000000002 72.43705999999999 -205.00715000000002 72.53699999999999 C -209.90015000000002 74.26299999999999 -214.33215 78.94999999999999 -217.42115 86.50699999999999 C -217.43715 86.54499999999999 -217.45115 86.58699999999999 -217.46815 86.627 L -217.00115 86.627 C -217.00115 91.252 -213.94715 97.652 -208.01715 104.951 C -202.55915 111.669 -195.07715 118.89099999999999 -187.57915 126.33699999999999 C -186.58515 125.317 -185.55915 124.314 -184.49915 123.33099999999999 C -175.11415 114.62099999999998 -162.87714999999997 106.817 -149.41715 99.243 C -131.11915 88.947 -110.53115 79.116 -92.35714999999999 69.62299999999999 C -127.89914999999999 92.216 -163.72715 120.291 -175.56914999999998 138.24099999999999 C -168.63914999999997 143.885 -158.59515 150.89399999999998 -147.76514999999998 156.694 C -134.98514999999998 163.53799999999998 -120.73014999999998 169.21699999999998 -108.88014999999999 171.921 C -108.35714999999999 169.156 -107.61214999999999 166.444 -106.64014999999999 163.815 C -102.07414999999999 151.493 -93.56514999999999 140.602 -83.74815 129.725 C -75.72314999999999 120.83099999999999 -66.75215 111.88499999999999 -57.922149999999995 102.62799999999999 L -57.86214999999999 102.62799999999999 C -73.25415 121.64599999999999 -88.74215 152.85799999999998 -91.55715 174.76299999999998 C -61.950149999999994 188.53799999999998 -15.691149999999993 189.628 -0.00014999999999076863 189.628 C 15.923850000000009 189.628 62.74185000000001 188.968 91.55985000000001 174.774 C 88.74985000000001 152.869 73.25685000000001 121.649 57.86285000000001 102.628 L 57.92285000000001 102.628 C 66.75285000000001 111.884 75.72285000000001 120.831 83.74785000000001 129.724 C 93.56485 140.60199999999998 102.07385000000002 151.494 106.63785000000001 163.814 C 107.60585000000002 166.426 108.34785000000001 169.12 108.86785000000002 171.86599999999999 C 120.16985000000003 169.15599999999998 133.39785 163.55599999999998 145.62785000000002 156.761 C 156.69485000000003 150.613 167.09785000000002 143.528 174.99785000000003 137.394 C 162.60785000000004 119.416 127.34385000000003 91.864 92.35485000000003 69.622 C 110.52985000000002 79.117 131.11785000000003 88.94800000000001 149.41485000000003 99.244 C 162.87485000000004 106.818 175.11285000000004 114.622 184.49785000000003 123.332 C 185.55785000000003 124.315 186.58385000000004 125.317 187.57785000000004 126.338 C 195.07485000000003 118.892 202.55785000000003 111.66999999999999 208.01585000000003 104.95299999999999 C 213.94585000000004 97.65499999999999 216.99985000000004 91.255 216.99985000000004 86.63 L 217.46685000000005 86.63 C 217.45085000000006 86.58999999999999 217.43685000000005 86.548 217.41985000000005 86.50999999999999 C 214.32985000000005 78.95299999999999 209.89985000000004 74.26599999999999 205.00585000000007 72.53999999999999 C 204.72163000000006 72.44005999999999 204.44262000000006 72.32592 204.16985000000005 72.198 C 166.03985000000006 54.263999999999996 114.90785000000005 51.004999999999995 61.102850000000046 46.465999999999994 C 57.834850000000046 51.458999999999996 53.96485000000005 56.02199999999999 49.60885000000005 60.068999999999996 C 64.17485000000005 64.341 76.99885000000005 70.90299999999999 86.36185000000005 80.267 L 73.63585000000005 92.993 C 60.81885000000005 80.172 30.498850000000047 71.627 -0.001149999999952911 71.627 C -30.501149999999953 71.627 -60.82114999999995 80.172 -73.63814999999995 92.99 L -86.36414999999995 80.264 C -77.00414999999995 70.902 -64.18214999999995 64.34 -49.62014999999995 60.068 C -53.973149999999954 56.022 -57.836149999999954 51.45399999999999 -61.104149999999954 46.462999999999994 z M 220.55785 117.998 C 213.76185 126.06 205.71385 133.638 198.36085 140.99 C 198.28285 141.07000000000002 198.19485 141.15200000000002 198.11485 141.23000000000002 C 199.63885 144.668 200.63485 148.282 200.91485 152.098 C 212.09485 145.02 218.48485 132.18300000000002 220.55685 117.99800000000002 z M -220.56115 118 C -218.48915 132.185 -212.09715 145.02 -200.91915 152.098 C -200.64215000000002 148.328 -199.66715 144.75500000000002 -198.17515 141.35500000000002 C -198.34915 141.121 -198.53915 140.88700000000003 -198.70515 140.65200000000002 C -205.96915 133.40500000000003 -213.87115 125.94000000000001 -220.56115 118.00000000000001 z M 182.98085 154.033 C 174.81085000000002 160.15699999999998 164.99085 166.593 154.37085000000002 172.493 C 141.64285 179.565 128.00385000000003 185.823 114.59685000000002 189.10899999999998 C 118.58485000000002 190.01399999999998 122.99985000000002 190.509 127.99885000000002 190.509 C 141.88185000000001 190.509 156.35085 185.42399999999998 166.81085000000002 178.04399999999998 C 177.27085000000002 170.664 182.99885 161.39 182.99885 154.35399999999998 C 182.99885 154.249 182.98385000000002 154.13799999999998 182.98085 154.03199999999998 z M -182.88915 156.006 C -182.08915 162.798 -176.47615 171.228 -166.81415 178.046 C -156.35415 185.426 -141.88415 190.51 -128.00115 190.51 C -123.08715 190.51 -118.73715 190.03 -114.80114999999999 189.154 C -128.63315 185.899 -143.00115 179.664 -156.26315 172.561 C -166.25715 167.209 -175.35514999999998 161.678 -182.89015 156.007 z M -87.88415 195.57 C -83.60715 203.29399999999998 -69.98615000000001 211.557 -52.82415 216.69 C -35.46815 221.884 -15.158150000000006 224.373 -0.001150000000002649 224.373 C 15.041849999999997 224.373 35.35885 221.88299999999998 52.74485 216.689 C 69.75685 211.606 83.31485 203.44899999999998 87.73485 195.813 C 54.27284999999999 208.063 14.214849999999998 207.62599999999998 -0.0011500000000097543 207.62599999999998 C -14.45515000000001 207.62599999999998 -54.23115000000001 207.54599999999996 -87.88415 195.569 z" stroke-linecap="round" />
</g>
<g transform="matrix(0.03 0 0 0.03 165.45 144.93)" id="-FjlOgS4E6gY5rQS3xfKn"  >
<filter id="SVGID_46" y="-24%" height="148%" x="-24%" width="148%" >
	<feGaussianBlur in="SourceAlpha" stdDeviation="4.25"></feGaussianBlur>
	<feOffset dx="11.34" dy="11.34" result="oBlur" ></feOffset>
	<feFlood flood-color="rgb(0,0,0)" flood-opacity="1"/>
	<feComposite in2="oBlur" operator="in" />
	<feMerge>
		<feMergeNode></feMergeNode>
		<feMergeNode in="SourceGraphic"></feMergeNode>
	</feMerge>
</filter>
<path style="stroke: none; stroke-width: 1; stroke-dasharray: none; stroke-linecap: butt; stroke-dashoffset: 0; stroke-linejoin: miter; stroke-miterlimit: 4; fill: rgb(223,193,63); fill-rule: nonzero; opacity: 1;filter: url(#SVGID_46);" vector-effect="non-scaling-stroke"  transform=" translate(0, 0)" d="M -0.00115 -224.373 C -14.76115 -224.373 -34.808150000000005 -220.90599999999998 -51.89115 -213.66299999999998 C -68.97115 -206.41799999999998 -82.58615 -195.617 -87.56515 -182.23299999999998 C -88.34115 -180.14899999999997 -88.99515000000001 -178.09099999999998 -89.56015000000001 -176.05299999999997 C -98.31415000000001 -153.42599999999996 -82.04015000000001 -96.16799999999996 -63.56415000000001 -58.804999999999964 C -70.86415000000001 -69.49499999999996 -78.10115000000002 -79.87199999999996 -84.65815 -90.17199999999997 C -101.03815 -115.89899999999997 -113.30415 -142.53399999999996 -108.83215000000001 -171.71699999999998 C -114.24215000000001 -174.777 -120.41215000000001 -176.373 -128.00015000000002 -176.373 C -141.00015000000002 -176.373 -155.05015000000003 -169.596 -165.63715000000002 -159.01 C -176.22415 -148.42399999999998 -183.00115000000002 -134.373 -183.00115000000002 -121.37299999999999 C -183.00115000000002 -114.43099999999998 -180.56415 -107.246 -176.20815000000002 -99.91299999999998 C -166.67115 -78.23599999999999 -138.63515 -45.38899999999998 -108.09815000000002 -15.940999999999988 C -122.25115000000002 -26.09299999999999 -137.06815 -36.53099999999999 -150.61415000000002 -47.33499999999999 C -177.47615000000002 -68.75799999999998 -200.87015000000002 -92.08499999999998 -200.99415000000002 -121.142 C -204.85215000000002 -117.37599999999999 -208.25415 -112.47399999999999 -211.14015 -106.475 C -216.70815000000002 -94.89099999999999 -220.07615 -79.88199999999999 -221.01815 -64.815 C -221.95815 -49.747 -220.48614999999998 -34.595 -217.10415 -22.869 C -213.72115 -11.145 -208.21815 -3.5489999999999995 -203.97415 -1.4259999999999984 C -203.64079 -1.2585399999999984 -203.31817 -1.0705099999999983 -203.00815 -0.8629999999999984 C -166.68515 23.351 -118.72215 28.471 -67.43615 34.517 C -71.01315 25.915000000000003 -73.00014999999999 16.497000000000003 -73.00014999999999 6.624000000000002 C -73.00014999999999 -33.586 -40.21014999999999 -66.376 -0.00014999999999076863 -66.376 C 40.20985000000001 -66.376 72.99985000000001 -33.586000000000006 72.99985000000001 6.623999999999995 C 72.99985000000001 16.495999999999995 71.01285000000001 25.913999999999994 67.43585000000002 34.516999999999996 C 118.72185000000002 28.470999999999997 166.68585000000002 23.350999999999996 203.00785000000002 -0.8630000000000067 C 203.31817 -1.0708800000000067 203.64113000000003 -1.2592500000000066 203.97485000000003 -1.4270000000000067 C 208.21785000000003 -3.5490000000000066 213.72085000000004 -11.147000000000007 217.10485000000003 -22.870000000000008 C 220.48485000000002 -34.595000000000006 221.95885000000004 -49.748000000000005 221.01785000000004 -64.816 C 220.07585000000003 -79.88300000000001 216.70785000000004 -94.892 211.13785000000004 -106.476 C 208.25385000000006 -112.476 204.85085000000004 -117.376 200.99385000000004 -121.144 C 200.86885000000004 -92.087 177.47385000000003 -68.761 150.61385000000004 -47.33800000000001 C 137.06685000000004 -36.53500000000001 122.24985000000004 -26.096000000000007 108.09585000000004 -15.945000000000007 C 138.63385000000005 -45.39500000000001 166.66985000000005 -78.24100000000001 176.20585000000005 -99.91900000000001 C 180.56285000000005 -107.251 182.99985000000007 -114.436 182.99985000000007 -121.37900000000002 C 182.99985000000007 -134.37900000000002 176.22285000000008 -148.42900000000003 165.63685000000007 -159.01500000000001 C 155.04885000000007 -169.596 140.99885000000006 -176.37300000000002 127.99885000000006 -176.37300000000002 C 120.41085000000007 -176.37300000000002 114.24185000000006 -174.77800000000002 108.83085000000005 -171.717 C 113.30285000000005 -142.53400000000002 101.03685000000006 -115.89900000000002 84.65685000000005 -90.17200000000001 C 78.09985000000005 -79.87200000000001 70.86385000000004 -69.49400000000001 63.56285000000005 -58.80500000000001 C 82.03985000000004 -96.168 98.31285000000005 -153.425 89.55785000000004 -176.053 C 88.99285000000005 -178.091 88.33785000000005 -180.149 87.56185000000005 -182.233 C 82.58885000000005 -195.603 68.92385000000004 -206.413 51.80985000000005 -213.66 C 34.69885000000005 -220.90699999999998 14.642850000000045 -224.373 -0.001149999999952911 -224.373 z M 1.06885 -47.073 C -13.71732 -47.07353 -27.898059999999997 -41.20012 -38.35365 -30.74491 C -48.80924 -20.289700000000003 -54.68315 -6.109170000000002 -54.68315 8.676999999999996 C -54.65587 27.940289999999997 -44.686 45.82464999999999 -28.31515 55.97699999999999 C -30.73188 49.21185999999999 -31.97855 42.08088999999999 -32.001149999999996 34.89299999999999 C -32.00089 18.188069999999986 -25.397599999999997 2.167439999999985 -13.643949999999997 -9.644540000000013 C -1.8902899999999967 -21.456520000000012 14.050930000000005 -28.092270000000013 30.672850000000004 -28.092000000000013 C 35.235820000000004 -28.07636000000001 39.783440000000006 -27.559970000000014 44.23485 -26.552000000000014 C 33.656980000000004 -39.526440000000015 17.80884 -47.06097000000001 1.0688500000000047 -47.07400000000001 z M -61.10515 46.463 C -114.90915000000001 51.003 -166.04215 54.261 -204.17115 72.195 C -204.44392000000002 72.32292 -204.72293000000002 72.43705999999999 -205.00715000000002 72.53699999999999 C -209.90015000000002 74.26299999999999 -214.33215 78.94999999999999 -217.42115 86.50699999999999 C -217.43715 86.54499999999999 -217.45115 86.58699999999999 -217.46815 86.627 L -217.00115 86.627 C -217.00115 91.252 -213.94715 97.652 -208.01715 104.951 C -202.55915 111.669 -195.07715 118.89099999999999 -187.57915 126.33699999999999 C -186.58515 125.317 -185.55915 124.314 -184.49915 123.33099999999999 C -175.11415 114.62099999999998 -162.87714999999997 106.817 -149.41715 99.243 C -131.11915 88.947 -110.53115 79.116 -92.35714999999999 69.62299999999999 C -127.89914999999999 92.216 -163.72715 120.291 -175.56914999999998 138.24099999999999 C -168.63914999999997 143.885 -158.59515 150.89399999999998 -147.76514999999998 156.694 C -134.98514999999998 163.53799999999998 -120.73014999999998 169.21699999999998 -108.88014999999999 171.921 C -108.35714999999999 169.156 -107.61214999999999 166.444 -106.64014999999999 163.815 C -102.07414999999999 151.493 -93.56514999999999 140.602 -83.74815 129.725 C -75.72314999999999 120.83099999999999 -66.75215 111.88499999999999 -57.922149999999995 102.62799999999999 L -57.86214999999999 102.62799999999999 C -73.25415 121.64599999999999 -88.74215 152.85799999999998 -91.55715 174.76299999999998 C -61.950149999999994 188.53799999999998 -15.691149999999993 189.628 -0.00014999999999076863 189.628 C 15.923850000000009 189.628 62.74185000000001 188.968 91.55985000000001 174.774 C 88.74985000000001 152.869 73.25685000000001 121.649 57.86285000000001 102.628 L 57.92285000000001 102.628 C 66.75285000000001 111.884 75.72285000000001 120.831 83.74785000000001 129.724 C 93.56485 140.60199999999998 102.07385000000002 151.494 106.63785000000001 163.814 C 107.60585000000002 166.426 108.34785000000001 169.12 108.86785000000002 171.86599999999999 C 120.16985000000003 169.15599999999998 133.39785 163.55599999999998 145.62785000000002 156.761 C 156.69485000000003 150.613 167.09785000000002 143.528 174.99785000000003 137.394 C 162.60785000000004 119.416 127.34385000000003 91.864 92.35485000000003 69.622 C 110.52985000000002 79.117 131.11785000000003 88.94800000000001 149.41485000000003 99.244 C 162.87485000000004 106.818 175.11285000000004 114.622 184.49785000000003 123.332 C 185.55785000000003 124.315 186.58385000000004 125.317 187.57785000000004 126.338 C 195.07485000000003 118.892 202.55785000000003 111.66999999999999 208.01585000000003 104.95299999999999 C 213.94585000000004 97.65499999999999 216.99985000000004 91.255 216.99985000000004 86.63 L 217.46685000000005 86.63 C 217.45085000000006 86.58999999999999 217.43685000000005 86.548 217.41985000000005 86.50999999999999 C 214.32985000000005 78.95299999999999 209.89985000000004 74.26599999999999 205.00585000000007 72.53999999999999 C 204.72163000000006 72.44005999999999 204.44262000000006 72.32592 204.16985000000005 72.198 C 166.03985000000006 54.263999999999996 114.90785000000005 51.004999999999995 61.102850000000046 46.465999999999994 C 57.834850000000046 51.458999999999996 53.96485000000005 56.02199999999999 49.60885000000005 60.068999999999996 C 64.17485000000005 64.341 76.99885000000005 70.90299999999999 86.36185000000005 80.267 L 73.63585000000005 92.993 C 60.81885000000005 80.172 30.498850000000047 71.627 -0.001149999999952911 71.627 C -30.501149999999953 71.627 -60.82114999999995 80.172 -73.63814999999995 92.99 L -86.36414999999995 80.264 C -77.00414999999995 70.902 -64.18214999999995 64.34 -49.62014999999995 60.068 C -53.973149999999954 56.022 -57.836149999999954 51.45399999999999 -61.104149999999954 46.462999999999994 z M 220.55785 117.998 C 213.76185 126.06 205.71385 133.638 198.36085 140.99 C 198.28285 141.07000000000002 198.19485 141.15200000000002 198.11485 141.23000000000002 C 199.63885 144.668 200.63485 148.282 200.91485 152.098 C 212.09485 145.02 218.48485 132.18300000000002 220.55685 117.99800000000002 z M -220.56115 118 C -218.48915 132.185 -212.09715 145.02 -200.91915 152.098 C -200.64215000000002 148.328 -199.66715 144.75500000000002 -198.17515 141.35500000000002 C -198.34915 141.121 -198.53915 140.88700000000003 -198.70515 140.65200000000002 C -205.96915 133.40500000000003 -213.87115 125.94000000000001 -220.56115 118.00000000000001 z M 182.98085 154.033 C 174.81085000000002 160.15699999999998 164.99085 166.593 154.37085000000002 172.493 C 141.64285 179.565 128.00385000000003 185.823 114.59685000000002 189.10899999999998 C 118.58485000000002 190.01399999999998 122.99985000000002 190.509 127.99885000000002 190.509 C 141.88185000000001 190.509 156.35085 185.42399999999998 166.81085000000002 178.04399999999998 C 177.27085000000002 170.664 182.99885 161.39 182.99885 154.35399999999998 C 182.99885 154.249 182.98385000000002 154.13799999999998 182.98085 154.03199999999998 z M -182.88915 156.006 C -182.08915 162.798 -176.47615 171.228 -166.81415 178.046 C -156.35415 185.426 -141.88415 190.51 -128.00115 190.51 C -123.08715 190.51 -118.73715 190.03 -114.80114999999999 189.154 C -128.63315 185.899 -143.00115 179.664 -156.26315 172.561 C -166.25715 167.209 -175.35514999999998 161.678 -182.89015 156.007 z M -87.88415 195.57 C -83.60715 203.29399999999998 -69.98615000000001 211.557 -52.82415 216.69 C -35.46815 221.884 -15.158150000000006 224.373 -0.001150000000002649 224.373 C 15.041849999999997 224.373 35.35885 221.88299999999998 52.74485 216.689 C 69.75685 211.606 83.31485 203.44899999999998 87.73485 195.813 C 54.27284999999999 208.063 14.214849999999998 207.62599999999998 -0.0011500000000097543 207.62599999999998 C -14.45515000000001 207.62599999999998 -54.23115000000001 207.54599999999996 -87.88415 195.569 z" stroke-linecap="round" />
</g>
<g transform="matrix(0.03 0 0 0.03 23.01 224.06)" id="nwqjPZkwa7Z05y4DJe1J0"  >
<filter id="SVGID_47" y="-25%" height="150%" x="-25%" width="150%" >
	<feGaussianBlur in="SourceAlpha" stdDeviation="4.25"></feGaussianBlur>
	<feOffset dx="14.17" dy="14.17" result="oBlur" ></feOffset>
	<feFlood flood-color="rgb(0,0,0)" flood-opacity="1"/>
	<feComposite in2="oBlur" operator="in" />
	<feMerge>
		<feMergeNode></feMergeNode>
		<feMergeNode in="SourceGraphic"></feMergeNode>
	</feMerge>
</filter>
<path style="stroke: none; stroke-width: 1; stroke-dasharray: none; stroke-linecap: butt; stroke-dashoffset: 0; stroke-linejoin: miter; stroke-miterlimit: 4; fill: rgb(255,255,255); fill-rule: nonzero; opacity: 1;filter: url(#SVGID_47);" vector-effect="non-scaling-stroke"  transform=" translate(0, 0)" d="M 122.09536 -235.67795 C 156.13036 -236.05795 183.15536 -216.99595000000002 197.46035999999998 -191.24595 C 212.72035999999997 -163.77895 216.12336 -136.28895 202.91835999999998 -105.71095 C 202.09535999999997 -103.80695 198.92535999999998 -91.32095 199.52335999999997 -84.60294999999999 C 200.00335999999996 -79.20694999999999 203.05335999999997 -56.82995 200.36935999999997 -55.42294999999999 C 198.93635999999998 -54.28294999999999 189.31935999999996 -73.96795 186.31335999999996 -78.75495 C 181.17735999999996 -86.93494999999999 173.41935999999995 -97.53895 178.15335999999996 -108.50094999999999 C 187.93835999999996 -131.15795 185.92335999999997 -158.47295 174.73135999999997 -178.62095 C 163.53835999999995 -198.76695 144.89135999999996 -211.81495 117.44135999999997 -209.43595 C 87.80935999999997 -206.86894999999998 71.23435999999998 -197.56394999999998 60.18435999999998 -184.63995 C 49.13435999999997 -171.71395 43.36035999999997 -153.80995000000001 40.16835999999998 -132.98795 C 33.785359999999976 -91.34595000000002 40.20835999999998 -40.38295000000001 17.76835999999998 -4.075950000000006 C 17.50835999999998 -3.655950000000006 17.22535999999998 -3.250950000000006 16.91835999999998 -2.862950000000006 L -17.619640000000018 40.951049999999995 C -21.333640000000017 41.40105 -24.449640000000016 41.47105 -26.894640000000017 41.21805 C -31.337640000000015 40.75805 -33.42464000000002 39.582049999999995 -34.937640000000016 38.00505 C -36.81164000000002 36.052049999999994 -38.267640000000014 31.91905 -38.60764000000002 25.421049999999997 C -38.57564000000002 25.43405 -38.541640000000015 25.443049999999996 -38.50964000000002 25.456049999999998 L -4.119640000000018 -18.170950000000005 C 10.206359999999982 -41.950950000000006 7.406359999999982 -90.85095000000001 14.468359999999983 -136.92695 C 18.018359999999984 -160.09395 24.686359999999983 -183.12695000000002 40.42135999999998 -201.53195 C 56.15735999999998 -219.93695 80.71135999999998 -232.35195 115.19535999999998 -235.33895 C 117.52535999999998 -235.54095 119.82535999999998 -235.65095000000002 122.09335999999998 -235.67695 z M -56.92164 22.00805 C -56.88664 22.00805 -56.851639999999996 22.01105 -56.81664 22.012050000000002 C -57.05864 33.41205 -54.91164 43.182050000000004 -47.92164 50.46705 C -43.08763999999999 55.50505 -36.24664 58.34205 -28.749639999999996 59.11905 C -23.101639999999996 59.70405 -16.949639999999995 59.28905 -10.056639999999994 58.02505 C -8.466639999999995 63.00505 -7.360639999999995 68.37705 -6.696639999999995 74.12505 C -4.674639999999995 91.58305 -6.931639999999995 112.09005 -11.640639999999994 132.68105 C -16.985639999999993 156.04905 -25.393639999999994 179.35705000000002 -33.608639999999994 198.88105000000002 C -93.27564 186.17105 -145.77164 143.73105 -183.87063999999998 82.92905000000002 C -167.34864 69.73405000000002 -146.36863999999997 54.71305000000002 -124.47763999999998 42.91705000000002 C -105.69563999999998 32.79705000000002 -86.33063999999999 25.157050000000016 -69.22163999999998 22.807050000000018 C -64.94563999999998 22.22105000000002 -60.84663999999998 21.94205000000002 -56.92363999999998 22.007050000000017 z M -197.83164 94.51205 C -158.59763999999998 156.21705 -104.22363999999999 200.98605 -41.01563999999999 215.67405000000002 C -44.17963999999999 222.51105 -47.15263999999999 228.55705000000003 -49.70363999999999 233.49805000000003 C -52.38963999999999 234.98305000000005 -56.367639999999994 235.91105000000005 -62.040639999999996 235.63505000000004 C -68.77064 235.30805000000004 -77.38463999999999 233.30805000000004 -86.86264 229.79305000000002 C -105.81764 222.76305000000002 -128.22264 209.80505000000002 -148.59064 194.30105000000003 C -168.95864 178.79805000000005 -187.36064000000002 160.67305000000005 -198.75864 143.93505000000005 C -209.59864000000002 128.01505000000006 -213.17564000000002 114.45705000000004 -210.01464 105.50105000000005 C -206.81664 102.45305000000005 -202.66764 98.69105000000005 -197.83164000000002 94.51305000000005 z" stroke-linecap="round" />
</g>
<g transform="matrix(0.03 0 0 0.03 82.07 225.53)" id="jwMZcHoxMF3wygsX6wuv6"  >
<filter id="SVGID_48" y="-25%" height="150%" x="-25%" width="150%" >
	<feGaussianBlur in="SourceAlpha" stdDeviation="4.25"></feGaussianBlur>
	<feOffset dx="14.17" dy="14.17" result="oBlur" ></feOffset>
	<feFlood flood-color="rgb(0,0,0)" flood-opacity="1"/>
	<feComposite in2="oBlur" operator="in" />
	<feMerge>
		<feMergeNode></feMergeNode>
		<feMergeNode in="SourceGraphic"></feMergeNode>
	</feMerge>
</filter>
<path style="stroke: none; stroke-width: 1; stroke-dasharray: none; stroke-linecap: butt; stroke-dashoffset: 0; stroke-linejoin: miter; stroke-miterlimit: 4; fill: rgb(255,255,255); fill-rule: nonzero; opacity: 1;filter: url(#SVGID_48);" vector-effect="non-scaling-stroke"  transform=" translate(0, 0)" d="M 0 -232 C -64 -184 -128 -168 -224 -136 C -224 -70.05954 -189.39465 16.794369999999986 -139.46979 88.26735 C -92.48325999999999 155.53377999999998 -31.029769999999985 208.72768 0 232 C 19.08619 217.68536 94.34601 154.20244 118.26425 122.77901 C 142.18249 91.35558 173.65157 45.288979999999995 188.3 13.986490000000003 C 202.94843 -17.315999999999995 224 -65.04759 224 -136 C 128 -168 64 -184 0 -232 z M 0 -197.25 L 5.4 -193.2 C 55.1 -155.89999999999998 105 -143.29999999999998 182.1 -117.6 L 188.29999999999998 -115.6 L 188.29999999999998 -109.1 C 188.29999999999998 -54.099999999999994 157.16424999999998 10.600000000000009 118.26424999999999 67.30000000000001 C 79.36425 124.10000000000001 32.69999999999999 172.3 5.3999999999999915 192.8 L -8.881784197001252e-15 196.9 L -5.400000000000009 192.8 C -32.70000000000001 172.3 -77.4 124.10000000000001 -116.30000000000001 67.30000000000001 C -155.20000000000002 10.600000000000009 -188.3 -54.099999999999994 -188.3 -109.1 L -188.3 -115.6 L -182.15 -117.6 C -105.10000000000001 -143.29999999999998 -55.10000000000001 -156 -5.400000000000006 -193.2 z M 0 -175.07 C -49.4 -139.7 -99.8 -125.89999999999999 -170.05 -102.69999999999999 C -167.47 -55.999999999999986 -137.70000000000002 4.300000000000011 -101.4 57.20000000000002 C -66.10000000000001 108.70000000000002 -24.80000000000001 153.5 0 174 C 24.8 153.5 66.1 108.7 101.4 57.2 C 137.7 4.300000000000004 167.5 -56 170 -102.7 C 99.7 -125.9 49.400000000000006 -139.7 0 -175.07 z M -45.5 -120.1 C -25.8 -119.6 -7.399999999999999 -105.69999999999999 0 -72 C 18 -158.3 110 -114.5 110 -49.5 C 109 14.399999999999999 18 58.2 0 112.6 C -19 58.199999999999996 -108 14.399999999999991 -110 -49.5 C -110 -89.1 -76.2 -120.8 -45.5 -120.1 z" stroke-linecap="round" />
</g>
</svg>