<?xml version="1.0" encoding="UTF-8" standalone="no" ?>
<!DOCTYPE svg PUBLIC "-//W3C//DTD SVG 1.1//EN" "http://www.w3.org/Graphics/SVG/1.1/DTD/svg11.dtd">
<svg xmlns="http://www.w3.org/2000/svg" xmlns:xlink="http://www.w3.org/1999/xlink" version="1.1" width="63mm" height="88mm" viewBox="0 0 178.58268 249.44882" xml:space="preserve">
<desc>Created with Fabric.js 4.6.0</desc>
<defs>
</defs>
<g transform="matrix(0.87 0 0 0.49 89.21 194.15)" id="_EsD0jtIfcrhAQysz0pl7"  >
<path style="stroke: rgb(209,179,15); stroke-opacity: 0.56; stroke-width: 1.41732; stroke-dasharray: none; stroke-linecap: butt; stroke-dashoffset: 0; stroke-linejoin: miter; stroke-miterlimit: 4; fill: none; fill-rule: nonzero; opacity: 1;" vector-effect="non-scaling-stroke"  transform=" translate(0, 0)" d="M -95.26334 -76.18224 C -95.26334 -81.24286 -94.13371 -86.09621999999999 -92.12295 -89.67461999999999 C -90.11219 -93.25301999999999 -87.38501000000001 -95.26334999999999 -84.54137 -95.26334999999999 L 85.07235 -95.26334999999999 L 85.07235 -95.26334999999999 C 87.77517 -95.26334999999999 90.36729 -93.35257999999999 92.27847 -89.95139999999999 C 94.18965 -86.55020999999999 95.26334 -81.93721 95.26334 -77.12720999999999 L 95.26334 78.71037000000001 L 95.26334 78.71037000000001 C 95.26334 87.85232 91.09897 95.26333000000001 85.96197 95.26333000000001 L -85.36093000000001 95.26333000000001 L -85.36093000000001 95.26333000000001 C -90.82988000000002 95.26333000000001 -95.26334000000001 87.37343000000001 -95.26334000000001 77.64075000000001 z" stroke-linecap="round" />
</g>
<g transform="matrix(1 0 0 1 21.35 142.06)" id="-fh4S1InDP-LZGRcsICj0"  >
<filter id="SVGID_181" y="-27%" height="154%" x="-27%" width="154%" >
	<feGaussianBlur in="SourceAlpha" stdDeviation="0.28"></feGaussianBlur>
	<feOffset dx="0.57" dy="0.57" result="oBlur" ></feOffset>
	<feFlood flood-color="rgb(0,0,0)" flood-opacity="1"/>
	<feComposite in2="oBlur" operator="in" />
	<feMerge>
		<feMergeNode></feMergeNode>
		<feMergeNode in="SourceGraphic"></feMergeNode>
	</feMerge>
</filter>
<path style="stroke: none; stroke-width: 1; stroke-dasharray: none; stroke-linecap: butt; stroke-dashoffset: 0; stroke-linejoin: miter; stroke-miterlimit: 4; fill: rgb(223,193,63); fill-rule: nonzero; opacity: 1;filter: url(#SVGID_181);" vector-effect="non-scaling-stroke"  transform=" translate(-7.8, -8.58)" d="M 9.69059 0.00025 C 6.35145 0.022690000000000002 2.61196 1.99927 1.1404499999999995 4.867430000000001 C -0.9802400000000007 9.00078 0.09356999999999949 12.97273 2.4211399999999994 17.16233 L 9.38633 17.16225 C 9.412859999999998 17.16327 9.4398 17.16379 9.46754 17.16298 C 9.47273 17.1629 9.47777 17.16243 9.48299 17.16225 L 11.45028 17.16225 C 11.067029999999999 17.03425 10.687059999999999 16.873730000000002 10.31415 16.68539 C 10.68228 16.064670000000003 10.40019 15.062680000000002 9.46738 15.087830000000002 C 9.0785 15.098430000000002 8.80291 15.281350000000002 8.64016 15.534530000000002 C 8.29447 15.227630000000001 7.97182 14.895730000000002 7.67281 14.545210000000003 C 8.21746 13.960680000000004 7.9774400000000005 12.749250000000004 6.9531600000000005 12.776960000000003 C 6.7829500000000005 12.781530000000002 6.634600000000001 12.819240000000002 6.50774 12.881310000000003 C 6.30185 12.519100000000003 6.11805 12.148240000000003 5.95822 11.772840000000002 C 6.65653 11.250440000000003 6.45876 9.864350000000002 5.36452 9.892930000000002 C 5.31693 9.662780000000001 5.27863 9.433720000000001 5.25034 9.206790000000002 C 5.230239999999999 9.045420000000002 5.2153599999999996 8.885340000000001 5.20524 8.726720000000002 C 6.2023 8.516670000000001 6.25713 7.032770000000002 5.3697099999999995 6.729860000000002 C 5.44767 6.422410000000002 5.551069999999999 6.129970000000002 5.6806399999999995 5.856620000000002 L 5.682029999999999 5.853690000000002 C 5.818099999999999 5.933360000000002 5.985969999999999 5.978510000000002 6.185969999999999 5.973100000000002 C 7.081239999999999 5.949640000000002 7.3358099999999995 4.948990000000002 6.949999999999999 4.393620000000002 C 7.1038 4.277940000000002 7.265489999999999 4.165120000000002 7.4372799999999994 4.056130000000002 C 7.496199999999999 4.018740000000002 7.55643 3.9837600000000024 7.617539999999999 3.950240000000002 C 7.695609999999999 4.353740000000002 8.001589999999998 4.699320000000002 8.53587 4.684880000000002 C 9.243469999999999 4.6663900000000025 9.55077 4.0370500000000025 9.45801 3.499850000000002 C 9.849079999999999 3.480840000000002 10.21422 3.514470000000002 10.54673 3.5903100000000023 C 10.42744 4.067640000000003 10.684520000000001 4.644760000000002 11.31814 4.627580000000002 C 11.60483 4.620090000000002 11.81433 4.494910000000002 11.9469 4.316430000000002 C 11.9977 4.366060000000002 12.04566 4.417410000000002 12.09043 4.470230000000003 C 12.27657 4.689890000000003 12.41152 4.933830000000002 12.48918 5.1973100000000025 C 11.897559999999999 5.388390000000003 11.87413 6.292800000000002 12.41901 6.510600000000003 C 12.30765 6.808620000000003 12.12819 7.118420000000003 11.86792 7.431750000000003 C 11.78013 7.330620000000002 11.6479 7.264930000000002 11.471 7.269730000000003 C 10.96139 7.283620000000003 10.82174 7.860580000000002 11.05142 8.169320000000003 C 10.79368 8.335370000000003 10.55143 8.438550000000003 10.330960000000001 8.493150000000002 C 10.35457 8.273930000000002 10.224850000000002 8.038920000000001 9.941130000000001 8.046520000000001 C 9.673300000000001 8.053840000000001 9.542740000000002 8.269770000000001 9.548710000000002 8.477210000000001 C 9.539760000000001 8.473920000000001 9.530690000000002 8.47071 9.521910000000002 8.46723 C 9.379590000000002 8.389560000000001 9.246840000000002 8.27059 9.128280000000002 8.09844 C 9.493780000000003 7.99062 9.499620000000002 7.42228 9.145020000000002 7.319570000000001 C 9.196700000000002 7.20272 9.269650000000002 7.079000000000001 9.367860000000002 6.950640000000001 C 9.459820000000002 7.011680000000001 9.607360000000002 7.0528 9.811310000000002 7.050060000000001 C 10.270440000000002 7.044210000000001 10.445440000000003 6.824550000000001 10.337140000000002 6.659710000000001 C 10.33824 6.659850000000001 10.339260000000001 6.659900000000001 10.34035 6.659960000000002 C 10.3383 6.658240000000002 10.33623 6.656670000000002 10.33421 6.654950000000001 C 10.30479 6.6126200000000015 10.25629 6.574180000000001 10.188920000000001 6.544200000000001 C 9.842070000000001 6.308630000000001 9.435780000000001 6.223370000000001 9.06577 6.277460000000001 L 9.05517 6.267410000000002 C 9.05078 6.272020000000001 9.04677 6.2766600000000015 9.04238 6.281300000000002 C 8.29214 6.403380000000002 7.70073 7.101760000000001 8.0777 8.282370000000002 C 9.47662 12.663530000000002 16.93555 8.952530000000001 15.377780000000001 4.205310000000002 C 14.420810000000001 1.2888700000000015 12.477120000000001 0.03165000000000173 9.84927 0.00021000000000181984 L 9.84927 0.0005700000000018199 C 9.79649 -0.00004999999999818008 9.74357 -0.00015999999999818004 9.690570000000001 0.0001300000000018199 z M 10.09256 1.98888 C 10.613090000000001 2.0004 10.800270000000001 2.52214 10.65451 2.91248 C 10.32765 2.84212 9.9793 2.80692 9.6145 2.81146 C 9.548639999999999 2.81234 9.48219 2.81464 9.41531 2.81804 C 9.346779999999999 2.4444399999999997 9.55906 2.0027 10.05262 1.9890999999999999 C 10.066139999999999 1.98874 10.07945 1.9886599999999999 10.092569999999998 1.98891 z M 6.81548 2.70811 C 7.19047 2.7164 7.39212 2.98961 7.42139 3.28763 C 7.0262199999999995 3.45912 6.67198 3.67322 6.35825 3.92264 C 5.94452 3.5883599999999998 6.08314 2.72675 6.77549 2.70822 C 6.789009999999999 2.7078599999999997 6.80235 2.7077799999999996 6.8154699999999995 2.70808 z M 12.96898 3.57567 C 13.73359 3.59259 13.77954 4.71074 13.10615 4.89546 C 12.9976 4.57967 12.829979999999999 4.2863999999999995 12.61163 4.02874 C 12.55169 3.95809 12.48824 3.89004 12.42135 3.82465 C 12.52924 3.68189 12.69832 3.58197 12.92902 3.57575 C 12.94254 3.57539 12.95585 3.57539 12.968969999999999 3.57567 z M 4.89479 5.32697 C 4.99303 5.32916 5.07922 5.34963 5.15371 5.38384 C 5.12254 5.44327 5.09231 5.50336 5.063540000000001 5.5641 C 4.89981 5.909409999999999 4.77397 6.27557 4.68353 6.65721 C 3.99257 6.51116 4.049110000000001 5.34861 4.8548800000000005 5.327030000000001 C 4.8684 5.326670000000001 4.881710000000001 5.326670000000001 4.894830000000001 5.326950000000001 z M 13.0901 6.66342 C 13.71853 6.8615200000000005 13.64163 7.95774 12.859729999999999 7.9781 C 12.674639999999998 7.983110000000001 12.529319999999998 7.9255700000000004 12.423329999999998 7.8319 C 12.734619999999998 7.44887 12.955849999999998 7.05566 13.090139999999998 6.66342 z M 4.37956 8.61895 C 4.40562 8.61953 4.43084 8.6214 4.4555 8.62407 C 4.47542 8.63576 4.49592 8.64665 4.51709 8.65685 C 4.52776 8.86683 4.54611 9.07841 4.57257 9.291170000000001 C 4.60722 9.569310000000002 4.65613 9.84946 4.71679 10.130230000000001 C 4.6934 10.15051 4.67125 10.1719 4.650119999999999 10.1942 C 4.5572799999999996 10.23426 4.451029999999999 10.25864 4.33076 10.26174 C 3.2718599999999998 10.29025 3.272 8.6478 4.33068 8.61911 C 4.3472 8.61867 4.36357 8.61859 4.37959 8.61897 z M 11.44462 8.72688 C 11.588370000000001 9.04574 11.42986 9.51912 10.969050000000001 9.53122 C 10.687990000000001 9.53882 10.519760000000002 9.368829999999999 10.46358 9.16108 C 10.780280000000001 9.08578 11.11189 8.94281 11.44464 8.72688 z M 5.21992 11.96339 C 5.2445900000000005 11.96566 5.26963 11.967410000000001 5.29521 11.96814 C 5.50113 12.46346 5.74535 12.95084 6.02612 13.42243 C 6.02455 13.426630000000001 6.02305 13.43083 6.02151 13.43511 C 5.88621 13.55982 5.70193 13.64183 5.46753 13.64791 C 4.44627 13.6754 4.364 12.22201 5.21999 11.96336 z M 7.02999 14.84763 C 7.4536 15.35968 7.92537 15.83723 8.4428 16.26574 C 8.28067 16.522460000000002 8.00359 16.70842 7.61123 16.718590000000003 C 6.52279 16.748050000000003 6.3206 15.380150000000002 7.00352 14.849680000000003 C 7.0124 14.849100000000004 7.02121 14.848400000000003 7.02999 14.847630000000002 z" stroke-linecap="round" />
</g>
<g transform="matrix(-0.99 0 0 1 156.56 142.06)" id="ZyRPwRhNUIE2Os8fWvjqq"  >
<filter id="SVGID_183" y="-27%" height="154%" x="-27%" width="154%" >
	<feGaussianBlur in="SourceAlpha" stdDeviation="0.28"></feGaussianBlur>
	<feOffset dx="-0.57" dy="0.57" result="oBlur" ></feOffset>
	<feFlood flood-color="rgb(0,0,0)" flood-opacity="1"/>
	<feComposite in2="oBlur" operator="in" />
	<feMerge>
		<feMergeNode></feMergeNode>
		<feMergeNode in="SourceGraphic"></feMergeNode>
	</feMerge>
</filter>
<path style="stroke: none; stroke-width: 1; stroke-dasharray: none; stroke-linecap: butt; stroke-dashoffset: 0; stroke-linejoin: miter; stroke-miterlimit: 4; fill: rgb(223,193,63); fill-rule: nonzero; opacity: 1;filter: url(#SVGID_183);" vector-effect="non-scaling-stroke"  transform=" translate(-7.8, -8.58)" d="M 9.69059 0.00025 C 6.35145 0.022690000000000002 2.61196 1.99927 1.1404499999999995 4.867430000000001 C -0.9802400000000007 9.00078 0.09356999999999949 12.97273 2.4211399999999994 17.16233 L 9.38633 17.16225 C 9.412859999999998 17.16327 9.4398 17.16379 9.46754 17.16298 C 9.47273 17.1629 9.47777 17.16243 9.48299 17.16225 L 11.45028 17.16225 C 11.067029999999999 17.03425 10.687059999999999 16.873730000000002 10.31415 16.68539 C 10.68228 16.064670000000003 10.40019 15.062680000000002 9.46738 15.087830000000002 C 9.0785 15.098430000000002 8.80291 15.281350000000002 8.64016 15.534530000000002 C 8.29447 15.227630000000001 7.97182 14.895730000000002 7.67281 14.545210000000003 C 8.21746 13.960680000000004 7.9774400000000005 12.749250000000004 6.9531600000000005 12.776960000000003 C 6.7829500000000005 12.781530000000002 6.634600000000001 12.819240000000002 6.50774 12.881310000000003 C 6.30185 12.519100000000003 6.11805 12.148240000000003 5.95822 11.772840000000002 C 6.65653 11.250440000000003 6.45876 9.864350000000002 5.36452 9.892930000000002 C 5.31693 9.662780000000001 5.27863 9.433720000000001 5.25034 9.206790000000002 C 5.230239999999999 9.045420000000002 5.2153599999999996 8.885340000000001 5.20524 8.726720000000002 C 6.2023 8.516670000000001 6.25713 7.032770000000002 5.3697099999999995 6.729860000000002 C 5.44767 6.422410000000002 5.551069999999999 6.129970000000002 5.6806399999999995 5.856620000000002 L 5.682029999999999 5.853690000000002 C 5.818099999999999 5.933360000000002 5.985969999999999 5.978510000000002 6.185969999999999 5.973100000000002 C 7.081239999999999 5.949640000000002 7.3358099999999995 4.948990000000002 6.949999999999999 4.393620000000002 C 7.1038 4.277940000000002 7.265489999999999 4.165120000000002 7.4372799999999994 4.056130000000002 C 7.496199999999999 4.018740000000002 7.55643 3.9837600000000024 7.617539999999999 3.950240000000002 C 7.695609999999999 4.353740000000002 8.001589999999998 4.699320000000002 8.53587 4.684880000000002 C 9.243469999999999 4.6663900000000025 9.55077 4.0370500000000025 9.45801 3.499850000000002 C 9.849079999999999 3.480840000000002 10.21422 3.514470000000002 10.54673 3.5903100000000023 C 10.42744 4.067640000000003 10.684520000000001 4.644760000000002 11.31814 4.627580000000002 C 11.60483 4.620090000000002 11.81433 4.494910000000002 11.9469 4.316430000000002 C 11.9977 4.366060000000002 12.04566 4.417410000000002 12.09043 4.470230000000003 C 12.27657 4.689890000000003 12.41152 4.933830000000002 12.48918 5.1973100000000025 C 11.897559999999999 5.388390000000003 11.87413 6.292800000000002 12.41901 6.510600000000003 C 12.30765 6.808620000000003 12.12819 7.118420000000003 11.86792 7.431750000000003 C 11.78013 7.330620000000002 11.6479 7.264930000000002 11.471 7.269730000000003 C 10.96139 7.283620000000003 10.82174 7.860580000000002 11.05142 8.169320000000003 C 10.79368 8.335370000000003 10.55143 8.438550000000003 10.330960000000001 8.493150000000002 C 10.35457 8.273930000000002 10.224850000000002 8.038920000000001 9.941130000000001 8.046520000000001 C 9.673300000000001 8.053840000000001 9.542740000000002 8.269770000000001 9.548710000000002 8.477210000000001 C 9.539760000000001 8.473920000000001 9.530690000000002 8.47071 9.521910000000002 8.46723 C 9.379590000000002 8.389560000000001 9.246840000000002 8.27059 9.128280000000002 8.09844 C 9.493780000000003 7.99062 9.499620000000002 7.42228 9.145020000000002 7.319570000000001 C 9.196700000000002 7.20272 9.269650000000002 7.079000000000001 9.367860000000002 6.950640000000001 C 9.459820000000002 7.011680000000001 9.607360000000002 7.0528 9.811310000000002 7.050060000000001 C 10.270440000000002 7.044210000000001 10.445440000000003 6.824550000000001 10.337140000000002 6.659710000000001 C 10.33824 6.659850000000001 10.339260000000001 6.659900000000001 10.34035 6.659960000000002 C 10.3383 6.658240000000002 10.33623 6.656670000000002 10.33421 6.654950000000001 C 10.30479 6.6126200000000015 10.25629 6.574180000000001 10.188920000000001 6.544200000000001 C 9.842070000000001 6.308630000000001 9.435780000000001 6.223370000000001 9.06577 6.277460000000001 L 9.05517 6.267410000000002 C 9.05078 6.272020000000001 9.04677 6.2766600000000015 9.04238 6.281300000000002 C 8.29214 6.403380000000002 7.70073 7.101760000000001 8.0777 8.282370000000002 C 9.47662 12.663530000000002 16.93555 8.952530000000001 15.377780000000001 4.205310000000002 C 14.420810000000001 1.2888700000000015 12.477120000000001 0.03165000000000173 9.84927 0.00021000000000181984 L 9.84927 0.0005700000000018199 C 9.79649 -0.00004999999999818008 9.74357 -0.00015999999999818004 9.690570000000001 0.0001300000000018199 z M 10.09256 1.98888 C 10.613090000000001 2.0004 10.800270000000001 2.52214 10.65451 2.91248 C 10.32765 2.84212 9.9793 2.80692 9.6145 2.81146 C 9.548639999999999 2.81234 9.48219 2.81464 9.41531 2.81804 C 9.346779999999999 2.4444399999999997 9.55906 2.0027 10.05262 1.9890999999999999 C 10.066139999999999 1.98874 10.07945 1.9886599999999999 10.092569999999998 1.98891 z M 6.81548 2.70811 C 7.19047 2.7164 7.39212 2.98961 7.42139 3.28763 C 7.0262199999999995 3.45912 6.67198 3.67322 6.35825 3.92264 C 5.94452 3.5883599999999998 6.08314 2.72675 6.77549 2.70822 C 6.789009999999999 2.7078599999999997 6.80235 2.7077799999999996 6.8154699999999995 2.70808 z M 12.96898 3.57567 C 13.73359 3.59259 13.77954 4.71074 13.10615 4.89546 C 12.9976 4.57967 12.829979999999999 4.2863999999999995 12.61163 4.02874 C 12.55169 3.95809 12.48824 3.89004 12.42135 3.82465 C 12.52924 3.68189 12.69832 3.58197 12.92902 3.57575 C 12.94254 3.57539 12.95585 3.57539 12.968969999999999 3.57567 z M 4.89479 5.32697 C 4.99303 5.32916 5.07922 5.34963 5.15371 5.38384 C 5.12254 5.44327 5.09231 5.50336 5.063540000000001 5.5641 C 4.89981 5.909409999999999 4.77397 6.27557 4.68353 6.65721 C 3.99257 6.51116 4.049110000000001 5.34861 4.8548800000000005 5.327030000000001 C 4.8684 5.326670000000001 4.881710000000001 5.326670000000001 4.894830000000001 5.326950000000001 z M 13.0901 6.66342 C 13.71853 6.8615200000000005 13.64163 7.95774 12.859729999999999 7.9781 C 12.674639999999998 7.983110000000001 12.529319999999998 7.9255700000000004 12.423329999999998 7.8319 C 12.734619999999998 7.44887 12.955849999999998 7.05566 13.090139999999998 6.66342 z M 4.37956 8.61895 C 4.40562 8.61953 4.43084 8.6214 4.4555 8.62407 C 4.47542 8.63576 4.49592 8.64665 4.51709 8.65685 C 4.52776 8.86683 4.54611 9.07841 4.57257 9.291170000000001 C 4.60722 9.569310000000002 4.65613 9.84946 4.71679 10.130230000000001 C 4.6934 10.15051 4.67125 10.1719 4.650119999999999 10.1942 C 4.5572799999999996 10.23426 4.451029999999999 10.25864 4.33076 10.26174 C 3.2718599999999998 10.29025 3.272 8.6478 4.33068 8.61911 C 4.3472 8.61867 4.36357 8.61859 4.37959 8.61897 z M 11.44462 8.72688 C 11.588370000000001 9.04574 11.42986 9.51912 10.969050000000001 9.53122 C 10.687990000000001 9.53882 10.519760000000002 9.368829999999999 10.46358 9.16108 C 10.780280000000001 9.08578 11.11189 8.94281 11.44464 8.72688 z M 5.21992 11.96339 C 5.2445900000000005 11.96566 5.26963 11.967410000000001 5.29521 11.96814 C 5.50113 12.46346 5.74535 12.95084 6.02612 13.42243 C 6.02455 13.426630000000001 6.02305 13.43083 6.02151 13.43511 C 5.88621 13.55982 5.70193 13.64183 5.46753 13.64791 C 4.44627 13.6754 4.364 12.22201 5.21999 11.96336 z M 7.02999 14.84763 C 7.4536 15.35968 7.92537 15.83723 8.4428 16.26574 C 8.28067 16.522460000000002 8.00359 16.70842 7.61123 16.718590000000003 C 6.52279 16.748050000000003 6.3206 15.380150000000002 7.00352 14.849680000000003 C 7.0124 14.849100000000004 7.02121 14.848400000000003 7.02999 14.847630000000002 z" stroke-linecap="round" />
</g>
<g transform="matrix(0.83 0 0 0.45 89.16 194.02)" id="XMnhmxet6158A64CR_7ew"  >
<path style="stroke: rgb(209,179,15); stroke-width: 1.41732; stroke-dasharray: none; stroke-linecap: butt; stroke-dashoffset: 0; stroke-linejoin: miter; stroke-miterlimit: 4; fill: rgb(30,29,26); fill-opacity: 0.72; fill-rule: nonzero; opacity: 1;" vector-effect="non-scaling-stroke"  transform=" translate(0, 0)" d="M -95.26334 -81.22243 C -95.26334 -88.97701 -91.85589 -95.26335 -87.65258 -95.26335 L 87.26836 -95.26335 L 87.26836 -95.26335 C 91.68387 -95.26335 95.26335 -88.65965 95.26335 -80.51358 L 95.26335 80.46891000000001 L 95.26335 80.46891000000001 C 95.26335 88.63964000000001 91.67304 95.26333000000001 87.24416000000001 95.26333000000001 L -86.23706 95.26333000000001 L -86.23706 95.26333000000001 C -91.22214 95.26333000000001 -95.26334 87.80781000000002 -95.26334 78.61096 z" stroke-linecap="round" />
</g>
<g transform="matrix(0.03 0 0 0.03 140.71 225.39)" id="azJwLwh40c_qwQ2XanGXS"  >
<filter id="SVGID_170" y="-25%" height="150%" x="-25%" width="150%" >
	<feGaussianBlur in="SourceAlpha" stdDeviation="4.25"></feGaussianBlur>
	<feOffset dx="14.17" dy="14.17" result="oBlur" ></feOffset>
	<feFlood flood-color="rgb(0,0,0)" flood-opacity="1"/>
	<feComposite in2="oBlur" operator="in" />
	<feMerge>
		<feMergeNode></feMergeNode>
		<feMergeNode in="SourceGraphic"></feMergeNode>
	</feMerge>
</filter>
<path style="stroke: none; stroke-width: 1; stroke-dasharray: none; stroke-linecap: butt; stroke-dashoffset: 0; stroke-linejoin: miter; stroke-miterlimit: 4; fill: rgb(255,255,255); fill-rule: nonzero; opacity: 1;filter: url(#SVGID_170);" vector-effect="non-scaling-stroke"  transform=" translate(0, 0)" d="M -229.02525 -239.29523 C -274.01225 -111.06523000000001 -112.95925 20.376770000000022 58.38674999999998 123.53077000000002 C 53.74174999999998 137.29777 52.80174999999998 151.15877 54.99274999999998 164.16577 C 59.43274999999998 190.52077 75.96674999999998 213.16277000000002 97.85274999999999 226.59077000000002 C 119.73674999999999 240.01877000000002 147.62875 244.16077 173.49775 232.35577 C 199.36775 220.55177 222.18775 193.43277 236.23475 147.70177 L 218.36974999999998 142.21377 C 205.36974999999998 184.53177 185.56374999999997 206.30777 165.73975 215.35377 C 145.91475 224.40077 125.04974999999999 221.35177 107.62374999999999 210.66076999999999 C 90.19874999999999 199.97077 76.87374999999999 181.56577 73.41874999999999 161.06077 C 69.96374999999999 140.55377 75.65074999999999 117.74277 98.09574999999998 95.84276999999999 C 118.83874999999998 75.60276999999999 130.16375 54.227769999999985 128.52974999999998 34.602769999999985 L 109.90774999999998 36.154769999999985 C 110.64774999999997 45.044769999999986 105.55774999999998 58.91476999999999 93.22374999999998 73.64076999999997 C -34.052250000000015 -26.743230000000025 -182.27125 -128.92123000000004 -229.02525000000003 -239.29523 z M 229.02475 -239.29523 C 195.23075 -159.51323000000002 108.41775000000001 -84.01323 14.820750000000004 -10.377229999999997 C 34.31275000000001 5.500770000000003 54.380750000000006 21.244770000000003 74.01575 34.63477 C 184.77175 -50.201229999999995 261.89374999999995 -145.60823 229.02575 -239.29523 z M -128.52925 34.60277 C -130.16324999999998 54.22877 -118.83924999999999 75.60276999999999 -98.09525 95.84277 C -75.65025 117.74277000000001 -69.96324999999999 140.55477000000002 -73.41825 161.06077 C -76.87325 181.56677 -90.19825 199.97077 -107.62425 210.66076999999999 C -125.04925 221.35277 -145.91425 224.40077 -165.73925 215.35476999999997 C -185.56425 206.30876999999998 -205.37125 184.53276999999997 -218.36925 142.21477 L -236.23425 147.70277 C -222.18825 193.43276999999998 -199.36725 220.55276999999998 -173.49825 232.35676999999998 C -147.62825 244.16177 -119.73525000000001 240.01977 -97.85025000000002 226.59177 C -75.96525000000001 213.16377 -59.430250000000015 190.52177 -54.99025000000002 164.16577 C -52.80025000000002 151.16077 -53.74025000000002 137.30277 -58.38325000000002 123.53777000000001 C -44.397250000000014 115.11777000000001 -30.478250000000017 106.51577 -16.735250000000015 97.73477000000001 L -73.70225000000002 58.34777000000001 C -80.25225000000002 63.45077000000001 -86.76525000000002 68.54777000000001 -93.22225000000002 73.64077 C -105.55925000000002 58.91677 -110.64925000000002 45.04677 -109.90925000000001 36.15677 L -128.53125 34.60277 z M -110.42925 108.21677 C -136.52925 116.81676999999999 -172.51625 144.47177 -187.53325 168.54077 C -182.58525 177.17077 -177.14025 183.76377000000002 -171.48325 188.68077 C -145.63725 179.72777 -111.63325 151.27477 -96.75025 128.42377 C -99.75725 121.82377 -104.20424999999999 115.03777 -110.43025 108.21677 z M 110.43375 108.21677 C 104.20875000000001 115.03877 99.76375 121.82677 96.75375 128.42677 C 111.63974999999999 151.27677 145.64375 179.72677 171.48975000000002 188.68177 C 177.14575000000002 183.76377 182.58975 177.17177 187.53975000000003 168.54176999999999 C 172.52175000000003 144.47177 136.53575000000004 116.81777 110.43475000000002 108.21676999999998 z" stroke-linecap="round" />
</g>
<g transform="matrix(0.03 0 0 0.03 81.94 225.28)" id="Qs1-AY0ILXCxQQpyuSrFJ"  >
<filter id="SVGID_171" y="-25%" height="150%" x="-25%" width="150%" >
	<feGaussianBlur in="SourceAlpha" stdDeviation="4.25"></feGaussianBlur>
	<feOffset dx="14.17" dy="14.17" result="oBlur" ></feOffset>
	<feFlood flood-color="rgb(0,0,0)" flood-opacity="1"/>
	<feComposite in2="oBlur" operator="in" />
	<feMerge>
		<feMergeNode></feMergeNode>
		<feMergeNode in="SourceGraphic"></feMergeNode>
	</feMerge>
</filter>
<path style="stroke: none; stroke-width: 1; stroke-dasharray: none; stroke-linecap: butt; stroke-dashoffset: 0; stroke-linejoin: miter; stroke-miterlimit: 4; fill: rgb(255,255,255); fill-rule: nonzero; opacity: 1;filter: url(#SVGID_171);" vector-effect="non-scaling-stroke"  transform=" translate(0, 0)" d="M 0 -232 C -64 -184 -128 -168 -224 -136 C -224 -70.05954 -189.39465 16.794369999999986 -139.46979 88.26735 C -92.48325999999999 155.53377999999998 -31.029769999999985 208.72768 0 232 C 19.08619 217.68536 94.34601 154.20244 118.26425 122.77901 C 142.18249 91.35558 173.65157 45.288979999999995 188.3 13.986490000000003 C 202.94843 -17.315999999999995 224 -65.04759 224 -136 C 128 -168 64 -184 0 -232 z M 0 -197.25 L 5.4 -193.2 C 55.1 -155.89999999999998 105 -143.29999999999998 182.1 -117.6 L 188.29999999999998 -115.6 L 188.29999999999998 -109.1 C 188.29999999999998 -54.099999999999994 157.16424999999998 10.600000000000009 118.26424999999999 67.30000000000001 C 79.36425 124.10000000000001 32.69999999999999 172.3 5.3999999999999915 192.8 L -8.881784197001252e-15 196.9 L -5.400000000000009 192.8 C -32.70000000000001 172.3 -77.4 124.10000000000001 -116.30000000000001 67.30000000000001 C -155.20000000000002 10.600000000000009 -188.3 -54.099999999999994 -188.3 -109.1 L -188.3 -115.6 L -182.15 -117.6 C -105.10000000000001 -143.29999999999998 -55.10000000000001 -156 -5.400000000000006 -193.2 z M 0 -175.07 C -49.4 -139.7 -99.8 -125.89999999999999 -170.05 -102.69999999999999 C -167.47 -55.999999999999986 -137.70000000000002 4.300000000000011 -101.4 57.20000000000002 C -66.10000000000001 108.70000000000002 -24.80000000000001 153.5 0 174 C 24.8 153.5 66.1 108.7 101.4 57.2 C 137.7 4.300000000000004 167.5 -56 170 -102.7 C 99.7 -125.9 49.400000000000006 -139.7 0 -175.07 z M -45.5 -120.1 C -25.8 -119.6 -7.399999999999999 -105.69999999999999 0 -72 C 18 -158.3 110 -114.5 110 -49.5 C 109 14.399999999999999 18 58.2 0 112.6 C -19 58.199999999999996 -108 14.399999999999991 -110 -49.5 C -110 -89.1 -76.2 -120.8 -45.5 -120.1 z" stroke-linecap="round" />
</g>
</svg>